<mxfile host="app.diagrams.net" modified="2024-05-27T01:52:05.279Z" agent="Mozilla/5.0 (Windows NT 10.0; Win64; x64) AppleWebKit/537.36 (KHTML, like Gecko) Chrome/125.0.0.0 Safari/537.36" etag="BEUyB4CSxGehKarOG3pb" version="24.4.8" type="github">
  <diagram name="第 1 页" id="0yEsTGnP3ADWChSaNu_O">
    <mxGraphModel dx="1195" dy="643" grid="1" gridSize="10" guides="1" tooltips="1" connect="1" arrows="1" fold="1" page="1" pageScale="1" pageWidth="827" pageHeight="1169" math="0" shadow="0">
      <root>
        <mxCell id="0" />
        <mxCell id="1" parent="0" />
        <mxCell id="8NRp37ZozChNo-UHmFwA-1" value="" style="shape=image;verticalLabelPosition=bottom;labelBackgroundColor=default;verticalAlign=top;aspect=fixed;imageAspect=0;image=data:image/png,iVBORw0KGgoAAAANSUhEUgAAAkwAAAG8CAYAAAAsHvpHAAAgAElEQVR4Ae29DbhdVXnvuxOgBC7cKyJeLF9Bw64gosAxilpSCNQGSi1HQWzUFPRar5z2qIdyT5Ee+qgHeqUxiYiCBYEAtjHQUKUIUpHwkUDQIvIlNSQUo2AwJiEhX+w1xznv3JmLueYaY+318V9jrzn3bzzPYK45Pt4x5jt+Y47/u/bOZsiR8AAewAN4AA/gATyAB1p6YKhlLZV4AA/gATyAB/AAHsADDsEEBHgAD+ABPIAH8AAeGMMDCKYxHEQ1HsADeAAP4AE8MLYHHn/8cXfppZe6HTt2jN24ixYrV650X/ziF92WLVta9r7jjjvc5Zdf3rJNN5UIpm68Rh88gAfwAB7AA3gg9cDIyIgbGhpK8/Tp0+ufx3LP+vXr622z/qE+Wf073/nOep9i2+uvv75ed9BBB6WfJ02aVGzW9T2CqWvX0REP4AE8gAfwAB7IxEzeE1Y2d+7cfFHLzz4bWQdfXajMxFs+WTtV0llSzQg7eAAP4AE8gAfwQGk8YKJk6dKlDfPdY4890m94Ggpb3PgEUNbc6q677rrsNr1OnTq1yb5PHFnZtGnTGvp2e4Ng6tZz9MMDeAAP4AE8MME9sH379ibhYi5ZsWKFtzzkrrEEU7Hf2rVrG+x/6EMfarjP2h9xxBHe8qy+k+u4Cqba373bkfEBDMAADMBAlRjo5BDute3fDA07Zc6ES/EamueiRYuCgsRstJuy8YrtH3zwwbbsh77ROv/884P9i2ONdd/+04xlqYv6Km0QnoUXPgzAAAzAgDEQMynFktnqNN14441BQaIQTPfff39b9nfbbTdvuwsuuMBb3ulzWnsEE99y8S0fDMAADMCAkIFuDuNu+3xuaNgpc6fzWLNmjVeQrF692lsesh/6hqlWq3ntZP8yL7N30kknedvNmDHDW5716+SKYBJuEqJLoksYgAEYgIFODuFe2yrFktnqJvm+STr33HM7EiohwWTzsbokSRqmZn/vKT/unXfe2XCfNW5lN2vT7hXBhGAisoQBGIABGBAy0O4BrGj3haFhp8zdzMlEif1ILJ+s7IQTTsgXtfzcStj46kJlxUGsnX3bpUgIJuEmIbIksoQBGIABGFAczu3auHho2Clzu+Pm2y1ZsiT9dmfWrFnO/hhl6PeJTLwUUyZ8itd8u+wXv4877ji3adMmt+eee3q/Tcr+1MC8efPcE088kbbxjZm33cnn5tl30rvHtrxYeLHAAAzAAAxUjYEej8aOuivFktnqNj3wwAN1gRISKb7yolDK7ovzePLJJxvs2+82+dIuu+zS0M7XptsyBBPfMPFVPAzAAAzAgJCBbg/kbvr97dCwU+Zu5jBR+iCYhJukalESz0PkDwMwAAOdMxBTQHxxaNgpc8y5l20sBBOCicgSBmAABmBAyEBMIaAUS2aLFPYAgkm4SYjEOo/E8Bk+gwEYqBoD4SNXX3Pp0LBTZv0Mq2MRwYRgIrKEARiAARgQMhBTIijFktkihT2AYBJukqpFSTwPkT8MwAAMdM5A+MjV18wdGnbKrJ9hdSwimBBMRJYwAAMwAANCBmJKhHlDw06ZY869bGMhmISbhEis80gMn+EzGICBqjEQUwgoxZLZIoU9gGBCMBFZwgAMwAAMCBkIH7n6mgVDw06Z9TOsjkUEk3CTVC1K4nmI/GEABmCgcwZiSgSlWDJbpLAHEEwIJiJLGIABGIABIQPhI1dfc9nQsFNm/QyrYxHBJNwkRGKdR2L4DJ/BAAxUjYGYEuHyoWGnzDHnXraxEEwIJiJLGIABGIABIQMxhYBSLJktUtgDCCbhJqlalMTzEPnDAAzAQOcMhI9cfc3XhoadMutnWB2LCCYEE5ElDMAADMCAkIGYEuHKoWGnzDHnXraxEEzCTUIk1nkkhs/wGQzAQNUYiCkElGLJbJHCHkAwIZiILGEABmAABoQMhI9cfc3fDw07ZdbPsDoWEUzCTVK1KInnIfKHARiAgc4ZiCkRlGLJbJHCHkAwIZiILGEABmAABoQMhI9cfc3VQ8NOmfUzrI5FBJNwkxCJdR6J4TN8BgMwUDUGYkqEa4aGnTLHnHvZxkIwIZiILGEABmAABoQMxBQCSrFktkhhDyCYhJukalESz0PkDwMwAAOdMxA+cvU11w0NO2XWz7A6FhFMCCYiSxiAARiAASEDMSXCwqFhp8wx5162sRBMwk1CJNZ5JIbP8BkMwEDVGIgpBJRiyWyRwh5AMCGYiCxhAAZgAAaEDISPXH3NDUPDTpn1M6yORQSTcJNULUrieYj8YQAGYKBzBmJKBKVYMluksAcQTAgmIksYgAEYgAEhA+EjV1/zzaFhp8z6GVbHIoJJuEmIxDqPxPAZPoMBGKgaAzElwj8ODTtljjn3so2FYEIwEVnCAAzAAAwIGYgpBJRiyWyRwh5AMAk3SdWiJJ6HyB8GYAAGOmcgfOTqa741NOyUWT/D6lhEMCGYiCxhAAZgAAaEDMSUCDcNDTtljjn3so2FYBJuEiKxziMxfIbPYAAGqsZATCGgFEtmixT2AIIJwURkCQMwAAMwIGQgfOTqa/5paNgps36G1bGIYBJukqpFSTwPkT8MwAAMdM5ATImgFEtmixT2AIIJwURkCQMwAAMwIGQgfOTqa24ZGnbKrJ9hdSwimISbhEis80gMn+EzGICBqjEQUyJ8e2jYKXPMuZdtLAQTgonIEgZgAAZgQMhATCGgFEtmixT2AIJJuEnqUdI3PuRqd3+FF1A/fNtPm3ctcLXbvsC69dPH/bB979dd7UszWLd++LZfNr/915V+R4aPXH3NrUPDTpn1M6yORQST8oUw9/g6GckvH69/rgsp5VjYkh2Q2UIlv/p3l2x/Kb2tfe29Mvusf39+5FRft2ceyj6yZgP+XkieXpauVTKyw2XvyGTDLyq3bnUgI3y4bWjYKXOEKZd2CAST8AVjFNiBWz8g589MwagtOPmVMuF49XGw2ZN/bZFq3/iTuo3khadH1w2/1n0yaKwlO0VSfl7p/tuyYWDnnJ/rRP2crtEEeEemL5BI/1GKJbPVSxoaGnKW9957747M7Lvvvmk/6+tLmV3fNd/eVx+yme/X7mf/7Nrt3WO7Sr00/uH/Tb1RfKZkx1ZvebEd9/35FmIsv2YIF9tZee3eKzl8B1Q0puvzD+c2rs+8E9lrA7pe6f4KvCNDe7C4J8t0nz1TjOt3h4adMncz5wsuuCAVPPPmzUu7Dw8Pp/ft2DJBc8ABB6RNr7766rTf7NmzG7ouX77cFXMmjvINrazYzu5VCcEkesEkG36ZrknTpv7ORf5y0bhN42G38RAdwx+2OMmPlzT1yTYY/h0fITuW3219fG1C5b62lMVd29A7sop7LXumGFelWDJb3aSQeJk7d25Lc4sXL24SVj5bPiPW7lOf+lRDlZX1M7Vl/YgjjnCTJk1qypMnT+5pblV6YWWO8D2T1fnKKYv7wvb5O12bhec0rU+r9fTZoSziWt58Xro8Pp+z1yKuwxjBSHF9Qnuq/nuDHdor2h+k++xZY1zvGBp2ytzNnE2o7Nixo6HrzJkzm8RQQwPn0vpp06YVi8fsN2PGDG+bcRVMGzdudCaKTCzZV261Wq3+YPfcc09aZ/XdCqdBArzXuWSO8dmxOl85ZeP/ck/X5qoPNK1Pq/Vk3cZ53W79m3R5fOvAXhvntWkhekJ7KnlxbXA9fWtchrLsWWNc7xwadsrc6ZxXrlzpFS+/+MUvvOV5+yZwli0b/YcAxfK77rorX9Tw2fpdfPHFDWV2Y+XF3NSoh4KW3zCZUJo1a1ZL80899VRbgqn4EHZfBvDbnWPmpKb2/F7FQK+zrVtt8Wea5hhczxYHQtPa07bJrxIfLTwnXR6frXQ98Xt//N6jX0N7KlTuW9+ylGXPFOOqFEtmy3dWW1koLVq0KCiMWvUze1a/bdu2JtNWfumllzaVW8H8+fNbjrdixYr0264zzzyz/ixeQ10Uhr3gXFtCyMY0YfXYY491PHxZ4G9nnsnjd6TPX2yb/NtN3vJiO+7HJzK2xUnWrmw6YNLyF59vKmedxmedin639SmW2X2o3NeWsrhrGXpHposWWM+yrlH2TDGu3x8adsrc6ZxvuummlgKmlT0TRi+9NPqnXPLtrDz0+09WZ7ndZG2ffPLJdpu3bNdy1HZ/1GaCqZtU1s0Qmrf5oHblf254kVtZ8h8/bCgL9ac87gvc/J3cf3WKbtH36Vr2GFEXbXKvW990X43saNhXya9Xe9cSv+v83qsv0301Ad6RKYiR/nPXpGGnzJ1OO0kSr4BZunSptzxv38TMwoUL80XpZyt/7rnnmsqtwOruvfdeb52v0Nq/6U1v8lV1XNZSMO25557pt0dbt47+03if9ex3nHx1Y5X1uvkGrX+yZUP6yNm8khefb7jPyrkOzgvc1sJS8vK2+uGbFlQs4q0cc5efOrq3br1odN0Wnj16v+jP6+tYuWeugIAv7q2qviOz54xxVYols9VNMlGyYcPo+Zf1P+aYY9oSTPvtt1/WJb2GBJhVfuADHxjTZoOxnQLr9NNPLxZ3dd9SMJnFXXfdNf3RnH2LVMy9iCWzXcUXWvJc41d/VXzGKj5Tfvckm16oJJuVW7cbPp5fNlf7l8+xbiUQVRPhHdkAZp9v7p58mFPmbqZrgslyPtn9zTffnC9qavPQQw81lflsZUas7i//8i+z24ar78du3/zmN5vsN3Tq8KbxCVt0/qM/+qMGwTRlypSefy5YuRd4CV5W+Hywvt1iPVgPGKgeAy2OUnmVUiyZrW7SkiVLUmFi/0hs/fr1brfddvMKlaKosrGszL6MWbdunct+UXvBggXeafj6Zw2zOVibfD7wwAOzJj1f2xZMPY/kMcCLonovCtaUNYUBGJjoDHiOu74VLd3lMKfMvUzU/mK3iZXTTjutIzOZUCr+eC5vxL5Bauevdj///PPOvrnqR0Iw8a0QP8aAARiAARgQMtCPwzpk855dDnPKHBqHcucQTMJNMtGjKp6fbxZgAAZgYPQfksQSGEqxZLZIYQ8gmBBMRJYwAAMwAANCBsJHrr7m3l2nOWXWz7A6FhFMwk1CZEV0DQMwAAMwEFMi3LfbNKfMMedetrEQTAgmIksYgAEYgAEhAzGFgFIsmS1S2AMIJuEmIbIksoQBGIABGAgfufqa+39rmlNm/QyrYxHBhGAisoQBGIABGBAyEFMiLN/9DU6ZY869bGMhmISbhMiSyBIGYAAGYCCmEFCKJbNFCnsAwYRgIrKEARiAARgQMhA+cvU1D+z+BqfM+hlWxyKCSbhJiCyJLGEABmAABmJKBKVYMluksAcQTAgmIksYgAEYgAEhA+EjV1/z4JQ3OGXWz7A6FhFMwk1CZElkCQMwAAMwEFMirNjjDU6ZY869bGMhmBBMRJYwAAMwAANCBmIKAaVYMluksAcQTMJNQmRJZAkDMAADMBA+cvU1D+35eqfM+hlWxyKCCcFEZAkDMAADMCBkIKZE+NH/8XqnzDHnXraxEEzCTUJkSWQJAzAAAzAQUwgoxZLZIoU9gGBCMBFZwgAMwAAMCBkIH7n6mn/b6/VOmfUzrI5FBJNwkxBZElnCAAzAAAzElAhKsWS2SGEPIJgQTESWMAADMAADQgbCR66+5uG9DnXKrJ9hdSwimISbhMiSyBIGYAAGYCCmRPjx3oc6ZY4597KNhWBCMBFZwgAMwAAMCBmIKQSUYslskcIeQDAJNwmRJZElDMAADMBA+MjV1zzyfx7qlFk/w+pYRDAhmIgsYQAGYAAGhAzElAiP/l9TnTLHnHvZxkIwCTcJkSWRJQzAAAzAQEwhoBRLZosU9gCCCcFEZAkDMAADMCBkIHzk6msee9VUp8z6GVbHIoJJuEmILIksYQAGYAAGYkoEpVgyW6SwBxBMCCYiSxiAARiAASED4SNXX/P4q6Y6ZdbPsDoWEUzCTUJkSWQJAzAAAzAQUyI8sc8hTpljzr1sYyGYEExEljAAAzAAA0IGYgoBpVgyW6SwBxBMwk1CZElkCQMwAAMwED5y9TVPvvoQp8z6GVbHIoIJwURkCQMwAAMwIGQgpkR4at9DnDLHnHvZxkIwCTcJkSWRJQzAAAzAQEwhoBRLZosU9gCCCcFEZAkDMAADMCBkIHzk6mv+/TUHO2XWz7A6FhFMwk1CZElkCQMwAAMwEFMiKMWS2SKFPYBgQjARWcIADMAADAgZCB+5+pqfveZgp8z6GVbHIoJJuEmILIksYQAGYAAGYkqElfsd7JQ55tzLNhaCCcFEZAkDMAADMCBkIKYQUIols0UKewDBJNwkRJZEljAAAzAAA+EjV1/z9GsPcsqsn2F1LCKYEExEljAAAzAAA0IGYkqE1f/3QU6ZY869bGMhmISbhMiSyBIGYAAGYCCmEFCKJbPVSxoaGnKW9957747M7Lvvvmk/6+tLmd3i1df2pptuqtt685vf7GvSdZl/dl2b66wjLxZeLDAAAzAAA1VjoLOTsLfWz+x/kFPmbmZzwQUXpCJl3rx5affh4eH0vh1bJoIOOOCAtOnVV1+d9ps9e3ZD10woLV++3OVzQyPn3H777Zf2f/DBB9OqyZMntz2Poi3fPYKJb5j4Kh4GYAAGYEDIgO+w7VfZf7zuIKfM3cwzEzT5vlY2d+7cfFHT58WLFzcJmpAtKx8rWZuNGzc2NLOyrVu3NpR1ezP2DLq13Ea/qkUVPA+RMgzAAAzAQBvHn6yJUiyZrW6SiZIdO3Y0dJ05c2aTGGpo4FxaP23atGJxUz+zb7lV2r59u7dNO31b2c3XtZ5BvmUfPvNi4cUCAzAAAzBQNQb6cFwGTT77ugOdMgcHClSEhMqKFSu8AiZvxsSMfctUTFa+atWqenEmerJr9qO/egPn3IUXXugd75RTTvGW5/u2+xnBJPwatmqbnufhIIMBGICBzhlo9wBWtFOKJbOViZLiNTTXRYsWBQWJ2WiVrH7btm1NTaz80ksvrZfb/Wc/+1ln4szK7d5yrVartzn88MO98/jqV7/qLa937OBD66fpwFA3TdmInW9EfIbPYAAGYGCwGejmPOy2z89/+0CnzJ3OI/tXab5+JmpaJat/6aWXmppY+Vi//2Rt8vaPPPLIhvvM6Fe+8hVveVbfybX103RiqYu2bPrB3vSsD+sDAzAAA50z0MVx2HWXNQce5JS504msWbPGK0hWr17tLc/bN8Fz991354vSz1a+bNmypvJ8waRJkxrsf+xjH2u4z9rOmTPHW57Vd3JFMPEjOf51DAzAAAzAgJCBTg7hXtsqxZLZ6iaZwNmwYUND12OOOWZMoWL97E8B5FOSJGP2s/bW13KWQv2K7bL23VxfGa2b3j32IXLpPHLBZ/gMBmAABgabgR6Pxo66/+Lgg5wydzT4zsY+UWJlN998c4O5vMCxioceeqhB9FiZz1aDkf/9C94jIyNpu1122aWhyvo+9dRTTWUNBT3cIJiEUQUvscF+ibE+rA8MwEAMBno4kzvu+stDDnLK3PEEnHNLlixJBcysWbPc+vXr3W677dYkhMxuUTBlZfbjtXXr1rkzzzwzbbNgwYKGaWQiqnhtaOScmz59etr/85//vHv66afTz74xi/3avUcwIZj4Kh4GYAAGYEDIQLsHsKKdUiyZrV6S/cVuEyinnXZaR2YyoVT88VzRyA9/+MP026Vief5+7dq1bvfdd0/ncd555+Wrev6MYBJukhiRC2MQIcMADMDAYDPQ88ncgYFfHnqwU+YOhp5wTRFMCCYiSxiAARiAASEDMZWEUiyZLVLYAwgm4SYh6hvsqI/1YX1gAAZiMBA+cvU1z73hYKfM+hlWxyKCCcFEZAkDMAADMCBkIKZEeH7aIU6ZY869bGMhmISbJEbkwhhEyDAAAzAw2AzEFAJKsWS2SGEPIJgQTESWMAADMAADQgbCR66+5lfDhzhl1s+wOhYRTMJNQtQ32FEf68P6wAAMxGAgpkT41e9Mdcocc+5lGwvBhGAisoQBGIABGBAyEFMIKMWS2SKFPYBgEm6SGJELYxAhwwAMwMBgMxA+cvU1aw+f6pRZP8PqWEQwIZiILGEABmAABoQMxJQISrFktkhhDyCYhJuEqG+woz7Wh/WBARiIwUD4yNXXvPCmQ50y62dYHYsIJgQTkSUMwAAMwICQgZgS4ddHHuqUOebcyzYWgkm4SWJELoxBhAwDMAADg81ATCGgFEtmixT2AIIJwURkCQMwAAMwIGQgfOTqa9YddahTZv0Mq2MRwSTcJER9gx31sT6sDwzAQAwGYkqEdW99vVPmmHMv21gIJgQTkSUMwAAMwICQgZhCQCmWzBYp7AEEk3CTxIhcGIMIGQZgAAYGm4Hwkauv+c3Rr3fKrJ9hdSwimBBMRJYwAAMwAANCBmJKBKVYMluksAcQTMJNQtQ32FEf68P6wAAMxGAgfOTqa9Yf+wanzPoZVsciggnBRGQJAzAAAzAgZCCmRNjwtjc4ZY4597KNhWASbpIYkQtjECHDAAzAwGAzEFMIKMWS2SKFPYBgQjARWcIADMAADAgZCB+5+pqN06c5ZdbPsDoWEUzCTULUN9hRH+vD+sAADMRgIKZE2PiOaU6ZY869bGMhmBBMRJYwAAMwAANCBmIKAaVYMluksAcQTMJNEiNyYQwiZBiAARgYbAbCR66+5sXjpjll1s+wOhYRTAgmIksYgAEYgAEhAzElglIsmS1S2AMIJuEmIeob7KiP9WF9YAAGYjAQPnL1NZvedZhTZv0Mq2MRwYRgIrKEARiAARgQMhBTImz+3cOcMsece9nGQjAJN0mMyIUxiJBhAAZgYLAZiCkElGLJbJHCHkAwIZiILGEABmAABoQMhI9cfc3m44edMutnWB2LCCbhJiHqG+yoj/VhfWAABmIwEFMivPR7w06ZY869bGMhmBBMRJYwAAMwAANCBmIKAaVYMluksAcQTMJNEiNyYQwiZBiAARgYbAbCR66+ZsuJv+OUWT/D6lhEMCGYiCxhAAZgAAaEDMSUCFtn/o5T5phzL9tYCCbhJiHqG+yoj/VhfWAABmIwEFMIKMWS2SKFPYBgQjARWcIADMAADAgZCB+5+pptJ7/RKbN+htWxiGASbpIYkQtjECHDAAzAwGAzEFMiKMWS2SKFPYBgQjARWcIADMAADAgZCB+5+pptv/9Gp8z6GVbHIoJJuEks6iumZN2zvIjEPlZH18nK+4vLxpoN+Jr59potopoN7Im/yZl/YvNe+/oZlVu3pofsY8H2P3ijU+Y+TrX0phFMwoPBaEi2v/TK5p8/MwWktuDkV8qE4/Ey17zMbZFq3/iT+holLzw9um6sVd0ng8Za8sxDTWtkBcmWDQM750Hz4XjMJ12jCfCOTOGM9B+lWDJbvaShoSFnee+99+7IzL777pv2s76+tGHDBnfUUUfV25x00km+ZvX6bB7Z1du4i0L/7Low1E2X8diwfRtz7ozUBUX7mV+K5dxrxE6vfky2bAyuW23hORy+AyoabdGSH32rcX3++bPeteyVEfqL9uoEekdm7/0Y1x2nHO6UuZs5j4yM1MXK9OnT65/bsZWJmmOPPbbeb/PmzQ1dszaHHXaY22233ertGho5Vy/P2mfXYrtu7xFMogMh2fDLdA2aXq7fuchfLhq3aTzsNh6iY/jDFif58ZKmPtmGwr+iw3KMdejUz7Y+vj6hcl9byuKubegdWcW9lj1TjOvLpx7ulLmbOfuEiZXNnTu3pbnFixenIiffyGcrX5999rWzsn6m/lofY+ZVemFlj+p7JqvzlVMW94Xt83e6Np5vklqtp88OZRHX8ubz0uXx+Zy9FnEdOhTBoT1lv8ZQtXXLnjXGVSmWzFY3yYTKjh07GrrOnDmzSQw1NNj5jdC0adOKxWP2sw6lFkyTJ09ueuixCnwvvLKWZc/qm7/V+copG/+Xe7o2X39/0/q0Wk/WbZzX7bbPp8vjWwf22jivTQsRFdpTycbnguvpW+MylGXPGuM6ctoRTpk7nfP27du9AmfFihXe8rx9Ez32LVMxWfmqVauKxQ33IcF06qmnpuNOmTLF/eAHP2jo0+uN7BumsQRT9nD5axnAb3eO2UI0tZ83+q9CmspbvFhoG++lb+tWW/wZBFOZeFx4TrrdfPskXc8yPcsEmmvoHRkq961vWcqyZ4pxVYols5U/o/OfQ8+yaNGioDCy/q2S1W/btq2piZVfeumlTeVZwZ577ukd0/rdd9997uWXX3Znn312/Vmyfr1eWz+Nc27p0qVt5bEE07Jly1wxlwX+duaZvDCqhpva3n5JukZN5RPoRTnIz26Lkzx+O4KpZDzauvm4CpX72lIWLzAxX4fekekLMrCeZV2j7JliXEfee4RT5uI5nd2HnuXGG2/0ihdr345gMnFTTNbv4osvLhan9zNmzEjtFn8x3Nt45xy2bt0aqu6ofEzBNGnSJGdiqJ3c0cgV2yC2sS0VN7iVJUmtqbzYjvu4L+/M38lvfh5ct9oVp7NuAyqk0n310+83rs+/fsm7ltlacx2fPZb3uy1Q/t4+p2tZsXdk+lCR/jNy+pucMnc67TVr1niF0erVq73lefsmjO6+++58UfrZyk2oFdOZZ56Z2rQx201m69BDD223ect2bQmmlhZ2Vo71DZPPRnHjlP3e/gaMpew5khefb7jPyrmO/4s7vwa2SMnL2+rrli5abh3zbfk8IGt3+amje+vWi0bXbeHZo/eL/ry+jqzVgKxVTnQX91ZV35HZc8a4KsWS2eommSixv5WUT8ccc0xbgmm//fbLd3NJknj7ffSjH/WWN3T23Njcjj76aE9N50VjCiYTQuvWrRvTMoJp9OVUdJTvxz28yAfsRX7XguKycejmDrlB5TWpNX+VP6hzZV6v7PniZqvNO6Fy+634jP28H3nfm5wydzNXEyX295HyycpOOOGEfFHT5zlz5jSJoFe/+tVNZU15ZFkAACAASURBVJ/+9KfTskcffbTJxlgFNo9NmzaN1ayt+jEF06te9Sr3lre8ZUxjzzzzzJhtig14ibzyEsEX+AIGYAAGqsFA8azr5/3IGUc6Ze5mrkuWLEkFzaxZs9z69evrf1yyaMvESzFZmf3qj30xk/3IbcGCxiDW2oRyZu/hhx/2tjENo0rNs1dZbsMOL4dqvBxYR9YRBmAABl5hoI3jT9ZEKZbMVi/pgAMOSEXLaaed1pGZTCgVfzzXkZGdjX/961+7hx4a/V8nddO/VR8EUwl+9MCL6JUXEb7AFzAAA4POQKtDV1038oEjnTKr51clewgmBFPlfn9g0F+mzI8DHwaqzUBMkaAUS2aLFPYAggnBhGCCARiAARgQMhA+cvU1Ix98s1Nm/QyrYxHBJNwkRI3VjhpZX9YXBmCgHQZiSoSR2Uc5ZY4597KNhWBCMBFZwgAMwAAMCBmIKQSUYslskcIeQDAJN0k7kQdtiFBhAAZgoNoMhI9cfc3Ih49yyqyfYXUsIpgQTESWMAADMAADQgZiSoSROW9xyhxz7mUbC8Ek3CREjdWOGllf1hcGYKAdBmIKAaVYMluksAcQTAgmIksYgAEYgAEhA+EjV18zcvZbnDLrZ1gdiwgm4SZpJ/KgDREqDMAADFSbgZgSQSmWzBYp7AEEE4KJyBIGYAAGYEDIQPjI1deMfPStTpn1M6yORQSTcJMQNVY7amR9WV8YgIF2GIgpEUY+9lanzDHnXraxEEwIJiJLGIABGIABIQMxhYBSLJktUtgDCCbhJmkn8qANESoMwAAMVJuB8JGrrxn5+NFOmfUzrI5FBBOCicgSBmAABmBAyEBMiTDyiWOcMsece9nGQjAJNwlRY7WjRtaX9YUBGGiHgZhCQCmWzBYp7AEEE4KJyBIGYAAGYEDIQPjI1deMfPIYp8z6GVbHIoJJuEnaiTxoQ4QKAzAAA9VmIKZEGPkvxzpljjn3so2FYEIwEVnCAAzAAAwIGYgpBJRiyWyRwh5AMAk3CVFjtaNG1pf1hQEYaIeB8JGrr6n9xbFOmfUzrI5FBBOCicgSBmAABmBAyEBMiaAUS2aLFPYAgkm4SdqJPGhDhAoDMAAD1WYgfOTqa2qf+k9OmfUzrI5FBBOCicgSBmAABmBAyEBMiVD7zH9yyhxz7mUbC8Ek3CREjdWOGllf1hcGYKAdBmIKAaVYMluksAcQTAgmIksYgAEYgAEhA+EjV19TO+9tTpn1M6yORQSTcJO0E3nQhggVBmAABqrNQEyJUDt/ulPmmHMv21gIJgQTkSUMwAAMwICQgZhCQCmWzBYp7AEEk3CTEDVWO2pkfVlfGICBdhgIH7n6mtp/n+6UWT/D6lhEMCGYiCxhAAZgAAaEDMSUCEqxZLZIYQ8gmISbpJ3IgzZEqDAAAzBQbQbCR66+pnbB250y62dYHYsIJgQTkSUMwAAMwICQgZgSoXbh250yx5x72cZCMAk3CVFjtaNG1pf1hQEYaIeBmEJAKZbMFinsAQQTgonIEgZgAAZgQMhA+MjV19T+xzucMutnWB2LCCbhJmkn8qANESoMwAAMVJuBmBKh9jfvcMocc+5lGwvBhGAisoQBGIABGBAyEFMIKMWS2SKFPYBgEm4SosZqR42sL+sLAzDQDgPhI1dfU/vccU6Z9TOsjkUEE4KJyBIGYAAGYEDIQEyJoBRLZosU9gCCSbhJ2ok8aEOECgMwAAPVZiB85Opral84zimzfobVsYhgQjARWcIADMAADAgZiCkRahe/0ylzzLmXbSwEk3CTEDVWO2pkfVlfGICBdhiIKQSUYsls9ZIef/xxd+mll7odO3Z0ZKZWq7m5c+e6hx9+uGW/lStXui9+8Ytuy5YtLdvdcccd7vLLL2/ZpptKBBOCicgSBmAABmBAyEA3h3G3fWp/+y6nzN3MY2RkxA0NDaV5+vTp9c/t2Mr6HXvssfV+mzdvbuqatXvnO99Zb1dsdP3119frDjrooPTzpEmTis26vkcwCTdJO5EHbYhQYQAGYKDaDHR9InfRsfbFdzll7mIKdZGS72sCx741apUWL16c9s23yYRRt2Um3vLJ7KmSzlIXM+KlUe2XBuvL+sIADExEBro4DrvuohRLZqubZKJk6dKlDV332GOPJjHU0MA5r9B65plnmvqZ/euuu66h+9SpU73tGhrtHGPatGnF4q7uEUx8w8RX8TAAAzAAA0IGujqNu+ykFqSdTmP79u1NwsVsrFixwluet29CyL5lKiYrX7VqVb3Y7otp7dq1DfY/9KEPNdxn7Y844ghveVbfybV5Fp307rGteqGxRzQLAzAAAzAw3gz0eDR21F39rCZOfDk0qUWLFgUFiU/o5O1Y/bZt2/JF6Wcrt18et/Tggw+2ZT/0jdb5558f7N808BgFCCZhVKEGF3u8+GEABmCgfAyMce5Kq2tferdT5mXLljlfDk36xhtvDAqSdgTTyy+/3GTa+l188cVp+f3339+W/d12283b7oILLvCWNw3aRgGCCcHEV/EwAAMwAANCBto4e2VNavN+1ylzpxNbs2aNV5CsXr3aW563b8Lo7rvvzheln63cRJsl+5MDPuGV/cu8rPNJJ53kbTdjxgxvedavkyuCSbhJiATLFwmyZqwZDMCAmoFODuFe2yrFktnqJvkEzbnnnjumULF+p512WtOQRXt2nyRJQzv7kV2+3Z133tlwnzW2Nvl2WXk3VwQTgonIEgZgAAZgQMhAN4dxt31q83/XKXM38zBBYj8SyycrO+GEE/JFTZ/nzJnTJGZe/epXN5X5RE+orDiItbNvuxQJwSTcJOooBXtEvjAAAzBQPgYUh3O7NmoLjnfK3O64+XZLlixJRc6sWbPc+vXrU/FkQqWYQmX2xyXXrVvnzjzzzNTOggULGrpmv/h93HHHuU2bNrk999yzSVRZh+xPDcybN8898cQTaRvfmA3GO7hpfqIOOvfalBdB+V4ErBlrBgMwAAOtGej1bOykv1Isma1u0wMPPFAXKCGR0qrc6ix/97vf9U7hySefbLBvv9vkS7vssktDO1+bbssQTHzDxFfxMAADMAADQga6PZC76Vf78vFOmbuZw0Tpg2ASbhKirtZRF/7BPzAAAxOBgZgConbZDKfMMedetrEQTAgmIksYgAEYgAEhAzGFgFIsmS1S2AMIJuEmmQiRE8/INwQwAAMw0JqB8JGrr6ldPsMps36G1bGIYEIwEVnCAAzAAAwIGYgpEZRiyWyRwh5AMAk3CVFX66gL/+AfGICBicBA+MjV19S++ntOmfUzrI5FBBOCicgSBmAABmBAyEBMiVD72u85ZY4597KNhWASbpKJEDnxjHxDAAMwAAOtGYgpBJRiyWyRwh5AMCGYiCxhAAZgAAaEDISPXH1N7YoTnDLrZ1gdiwgm4SYh6moddeEf/AMDMDARGIgpEWpXnuCUOebcyzYWggnBRGQJAzAAAzAgZCCmEFCKJbNFCnsAwSTcJBMhcuIZ+YYABmAABlozED5y9TW1r5/olFk/w+pYRDAhmIgsYQAGYAAGhAzElAhKsWS2SGEPIJiEm4Soq3XUhX/wDwzAwERgIHzk6mtqV53olFk/w+pYRDAhmIgsYQAGYAAGhAzElAi1q2c6ZY4597KNhWASbpKJEDnxjHxDAAMwAAOtGYgpBJRiyWyRwh5AMCGYiCxhAAZgAAaEDISPXH1N7RsznTLrZ1gdiwgm4SYh6moddeEf/AMDMDARGIgpEZRiyWyRwh5AMCGYiCxhAAZgAAaEDISPXH1N7ZqTnDLrZ1gdiwgm4SaZCJETz8g3BDAAAzDQmoGYEiG59iSnzDHnXraxEEwIJiJLGIABGIABIQMxhYBSLJktUtgDCCbhJiHqah114R/8AwMwMBEYCB+5+prkupOdMutnWB2LCCYEE5ElDMAADMCAkIGYEiFZeLJT5phzL9tYCCbhJpkIkRPPyDcEMAADMNCagZhCQCmWzBYp7AEEE4KJyBIGYAAGYEDIQPjI1dckN/y+U2b9DKtjEcEk3CREXa2jLvyDf2AABiYCAzElglIsmS1S2AMIJgQTkSUMwAAMwICQgfCRq69Jbvx9p8z6GVbHIoJJuEkmQuTEM/INAQzAAAy0ZiCmREi++R6nzDHnXraxEEwIJiJLGIABGIABIQMxhYBSLJktUtgDCCbhJiHqah114R/8AwMwMBEYCB+5+prkH97jlFk/w+pYRDAhmIgsYQAGYAAGhAzElAjJP/6BU+aYcy/bWAgm4SaZCJETz8g3BDAAAzDQmoGYQkAplswWKewBBBOCicgSBmAABmBAyED4yNXXJIv+wCmzfobVsYhgEm4Soq7WURf+wT8wAAMTgYGYEkEplswWKewBBBOCicgSBmAABmBAyED4yNXXJItnOWXWz7A6FhFMwk0yESInnpFvCGAABmCgNQMxJUJy0yynzDHnXraxEEwIJiJLGIABGIABIQMxhYBSLJktUtgDCCbhJiHqah114R/8AwMwMBEYCB+5+prk5lOcMutnWB2LCCaxYCqikax7lshN7GP1CzdZeX9x2VizAV8zY8CX1GxgTyzw5p/YtGy1r59Ruf3W9JB9LEj+6RSnzH2caulNI5iEB0NSezkFInvJJqseaLjPyrmKX8I9rqEtUrL+F/WXdrarWafBWqeG9bhuzuje+vudh+38k0bv/3VufR0b2vfICLY0LBT3VlXfkdlzxrgqxZLZip2uuOIKd+utt3Y87Nq1a93FF1/s7NoqzZs3z91+++2tmrRdh2BSvUjnzkidXnyxZitRLOde8wLu1Y/Jlo3BdastPIfDV7U/xHZs0ZIffatxff75s9617JUR+ov26gR6R2bv/RjXZMmpTpljzNnG2H333d3Q0JDbf//906t9vuSSS9oa3tpanjFjRr1vsWPW5q1vfWu9zeTJk4vN6nVZ++za1NA5h2ASvciTlfem/i2+XJMHFnrLi+24F72UO1xPW5xkzSONB+/OH/ckW19sKmedxmedin63dSuW2X2o3NeWsrhrGXpHposWWM+yrlH2TDGuSrFktmIlEybnnHNOfbjrrrsuFS/1gsAHn6DxlRW7b9q0KbV/7bXXNlRZ33ZT+y3btdhBu7JuBt+8s8duqpt7fFrVVN7hwU7//rzcbXFqi/6i6fANrifr1uSr6Gze+PHgnkrXkzUa/zXyrEFoT4XKo3PlmXO3c8ieKcY1ueVUp8wx5jxz5kyvODLxsn379pZTsDZnn312Q5s//dM/9dpraGTfEO38ZipfLhVMkyZNcvY1lmX7/K1vfSs/VvrZ9zVXUyNPQbcwDmK/7PF8c7M6Xzll/RFBnfg1XZuvv79pfVqtZyf2aduHNb7t8+ny+HzLXuuDv0VCIrSnko3PBdfTt8ZlKMueNcY1+fYfOmWOMWcTKXvttVfTUFZ+/PGjXzI0Ve4sCAmcUHnejrU544wz8kWpiHrzm9+cXg855BD3wgsvNNTnb1p+w3TooYemQmnJkiXupZdeSgWTiaNt27blbaRtGgo8NzbRYi4D+O3OMXtkX3ur85VTNv4v93Rtbvh40/q0Wk/WbZzXbfGn0+XxrQN7bZzXpoW4Cu2p5OXR88S3nmUty541xlUplsxW8ZzO7pXPYjb/8A//sMlkO2NZG18KlWdtjzzyyPTZsvvsmo2Zv374wx/Oqhuu/pF3NvF9c/T444+nAultb3tb3ZCvXb2yxYeybgbfvJMXVqVP2lR3++gvsTWVt3ix0DbeS98WLXn8dgRTyXi0dfPtk1C5ry1l8faZ+Tr0jkxfnIH1LOsaZc8U45p85zSnzN3MOS82Wn3ObFub2bNnZ7f1a9a3XuD5YG18KVRubXfddVevWPLZsR8Jhmz5R95pJSSEXnzxxVQ0HXHEEWnLUDvfZPJlZd0MoXnbsxXrrCxJak3lxXbcx315Z/5OfvPzFMnsPruma3nF6azbgAqpdF/99PuN6/OvX/KuZbamXMdnj+X9nu6rAlPpWlbsHZmCGOk/ya1/5JQ5xrRNkEydOrVpKCsfHh5uKs8XBMVMQEjZj/5CffJ285+tvf0SejF1JZjMyJYtW1LRtGbNmrZ+JFcc2O7zG6kKn7NnrD/L1R9Mi2p/97uVe9b6MxZefmUsT1n89oX1NbJ/HZeWVeDZyrge7cw5eXhJ0xpZQbJ2ZX0d27FDm7giKl20/Lu/ou/I7DljXJViyWzFSCZIfCLGyq666qqWU7A2P/rRjxraPPTQQ1571s43TkNnz431ueyyy5pqWgom+yXvhQtH/1l8U0/n3I4dO1KxxDdMr7x0in7y/biHl/Qr/hoIX9y1oLhsHLolEIvZH4rNL95A8FQC342nn/LrZZ9r806o3H4rPmM/75N/ea9T5n7ONbO9efNmr5BpR9xYm2I7X1n2952yMdu9dv0jua9+9avpL3q3Gsj+OR+CySMArv1I5V4C4/mSjTL2Nz7kal97L+tWtgP/+o+xZmVbs8v+wNUq/I5sdWaq65RiyWzFSkWRU7y3eVxzzTVN4ugjH/lIWmb/EM1SJr7mzBn96/9W9qtf/Spt8/a3v90tX768KacdnXPvfe973W//9m+7VatWpf+w7eijj077FQVZ1r7lN0xZo35doxyCZXuRMF8OPxiAARgoNQP9OjN9dpPbTnfK7BujX2VTpkypCxT7iVYx+QSTtfnNb35T72fiZv369Q1df/CDHzTUZ2Isu+Yb/9mf/Vm97fTp093WrVvz1Q2fEUy8mEr9YkJ0e77dhGmYhoFxZaDhlO3zTXL7f3bK3Ofplto8gokXy7i+WBA8CB4YgIGqMRBTFSjFktkihT2AYEIwIZhgAAZgAAaEDISPXH1Ncsf7nDLrZ1gdiwgm4SapWpTE8xD5wwAMwEDnDMSUCMn3znDKHHPuZRsLwYRgIrKEARiAARgQMhBTCCjFktkihT2AYBJuEiKxziMxfIbPYAAGqsZA+MjV1yR3numUWT/D6lhEMCGYiCxhAAZgAAaEDMSUCEqxZLZIYQ8gmISbpGpREs9D5A8DMAADnTMQPnL1Ncn3P+CUWT/D6lhEMCGYiCxhAAZgAAaEDMSUCMldH3TKHHPuZRsLwSTcJERinUdi+AyfwQAMVI2BmEJAKZbMFinsAQQTgonIEgZgAAZgQMhA+MjV1yQ/+BOnzPoZVscigkm4SaoWJfE8RP4wAAMw0DkDMSVCcvdsp8wx5162sRBMCCYiSxiAARiAASEDMYWAUiyZLVLYAwgm4SYhEus8EsNn+AwGYKBqDISPXH1NsvTDTpn1M6yORQQTgonIEgZgAAZgQMhATImQ3PsRp8wx5162sRBMwk1StSiJ5yHyhwEYgIHOGYgpBJRiyWyRwh5AMCGYiCxhAAZgAAaEDISPXH1Nct8cp8z6GVbHIoJJuEmIxDqPxPAZPoMBGKgaAzElglIsmS1S2AMIJgQTkSUMwAAMwICQgfCRq69J7j/bKbN+htWxiGASbpKqRUk8D5E/DMAADHTOQEyJkCw7xylzzLmXbSwEE4KJyBIGYAAGYEDIQEwhoBRLZosU9gCCSbhJiMQ6j8TwGT6DARioGgPhI1dfkzzwUafM+hlWxyKCCcFEZAkDMAADMCBkIKZESB78f5wyx5x72cZCMAk3SdWiJJ6HyB8GYAAGOmcgphBQiiWzRQp7AMGEYCKyhAEYgAEYEDIQPnL1NcmKjztl1s+wOhYRTMJNQiTWeSSGz/AZDMBA1RiIKRGUYslskcIeQDAhmIgsYQAGYAAGhAyEj1x9TfLQnzll1s+wOhYRTMJNUrUoiech8ocBGICBzhmIKRGSH37CKXPMuZdtLAQTgonIEgZgAAZgQMhATCGgFEtmixT2AIJJuEmIxDqPxPAZPoMBGKgaA+EjV1+T/NsnnTLrZ1gdiwgmBBORJQzAAAzAgJCBmBIhefhcp8wx5162sRBMwk1StSiJ5yHyhwEYgIHOGYgpBJRiyWyRwh5AMCGYiCxhAAZgAAaEDISPXH1N8uP/4pRZP8PqWEQwCTcJkVjnkRg+w2cwAANVYyCmRFCKJbNFCnsAwYRgIrKEARiAARgQMhA+cvU1ySN/4ZRZP8PqWEQwCTdJ1aIknofIHwZgAAY6ZyCmREge/a9OmWPOvWxjIZgQTESWMAADMAADQgZiCgGlWDJbpLAHEEzCTUIk1nkkhs/wGQzAQNUYCB+5+prksU85ZdbPsDoWEUwIJiJLGIABGIABIQMxJULy+GecMsece9nGQjAJN0nVoiSeh8gfBmAABjpnIKYQUIolsxUz3XTTTW5oaCjN8+fP72joSZMmpf3s6kuZ3eLV1/a8886rz2P27Nm+JmkZggnBRGQJAzAAAzAgZCB44vahInnivzll7sMUvSYzIWOVq1evTgXL5MmTvW3zhT/5yU/Stpmw+eAHP5jeW3k+mf1TTjnFLV++vCHn29jnbB4bNmxwO3bsqN8X26VtfYWxyohcOo9c8Bk+gwEYgIHBZiDWGWrjKMWS2YqVTKhs3LixYTgrGytlAiffLlQ2Z86cfDPvZ9+YvjLrPPbsvENoCtn0g73pWR/WBwZgAAY6Z0BzQrZnJXnyPKfM7Y3aW6spU6ak3+QUrZhQueeee4rFDffW5oYbbmgou/7665vsWbuxBNPnPve5pn5m2PqeeOKJDWOk5U0lEQvYiJ1vRHyGz2AABmBgsBmIeIy65KnzpTnG3E2Q7LXXXk1DWfnxxx/fVJ4vsDa+VCy3+6OOOioVP7vuuqu79dZbm7rZjwCL/ayRlXnLmyxELGDTD/amZ31YHxiAARjonIGIx6hULJn4ysRC8ap8JrN91llnNZnMxmyqyBVYG18qltv95Zdf7l5++WV37rnn1p8r3zc03mtf+1oEExu/842Pz/AZDMAADHTGQP5Q7vfn5Kn/zylzN/PNhMdY18y2tTvjjDOy2/o1618v8HywNr4UKs+3Ldov3mdtX/Oa1yCY2PSdbXr8hb9gAAZgoHMGsoM3xjX59//ulDnGnE2oTJ06tWkoKx8eHm4qzxdYG18KlefbWpt8u+J91jZYnjUYjysbsfONiM/wGQzAAAwMNgMxz1OlWDJbMdK+++7bIFyyMU2oPProo9mt92ptLrvssoa6L3/5y157DY08v5sU6mdjvO997yt251/J8eIZ7BcP68P6wAAMlI2BppO2jwXJzy5wytzHqTaYNlHy1FNP1cu2bdvWJHquueaapjLrZzmfimVbtmzJV6efs7/fZH+3KZ+KtqzOV5aW5zvG/ly2TcB8eXHDAAzAAAyMxUDMs1QplsxWrJSJnEceecRdeeWVqUjZZ599Gob3Cab169enbQ8++GBnIuvAAw9M7608S1mbbIzsan/OoJiyultuucXdfffdqS0r8yV/qa9lH8rGgo56XkwwAAMwAANlY6APx2XQZPKzzzplDg7Uh4q1a9emAsX+ef8TTzzR0QjHHnts2teurdKKFStaVad1d955Z10oXXfddcH2CCbhn8Mv26ZmvhxEMAADMKBnIHji9qEiWXmhU+Y+TLEyJhFMCCb+H1IwAAMwAANCBmIqBKVYMluksAcQTMJNQqSmj9TwKT6FARgoGwPhI1dfkzz9P5wy62dYHYsIJgQTkSUMwAAMwICQgZgSIXn6IqfMMedetrEQTMJNUrYoiPkSucMADMCAnoGYQkAplswWKewBBBOCicgSBmAABmBAyED4yNXXJKv+ximzfobVsYhgEm4SIjV9pIZP8SkMwEDZGIgpEZJVn3PKHHPuZRsLwYRgIrKEARiAARgQMhBTCCjFktkihT2AYBJukrJFQcyXyB0GYAAG9AyEj1x9TbL6806Z9TOsjkUEE4KJyBIGYAAGYEDIQEyJoBRLZosU9gCCSbhJiNT0kRo+xacwAANlYyB85Oprkme+4JRZP8PqWEQwIZiILGEABmAABoQMxJQIyTP/0ylzzLmXbSwEk3CTlC0KYr5E7jAAAzCgZyCmEFCKJbNFCnsAwYRgIrKEARiAARgQMhA+cvU1yX9c4pRZP8PqWEQwCTcJkZo+UsOn+BQGYKBsDMSUCMmzf+uUOebcyzYWggnBRGQJAzAAAzAgZCCmEFCKJbNFCnsAwSTcJGWLgpgvkTsMwAAM6BkIH7n6muTZ/98ps36G1bGIYEIwEVnCAAzAAAwIGYgpEZRiyWyRwh5AMAk3CZGaPlLDp/gUBmCgbAyEj1x9TfLzS50y62dYHYsIJgQTkSUMwAAMwICQgagSYc3fOafMUSdfrsEQTMJNUrYoiPkSucMADMCAnoGoMkAplswWKegBBBOCicgSBmAABmBAyEDwxO1HxZq5zilzP+ZYEZsIJuEmIVLTR2r4FJ/CAAyUjYGo+uAX85xT5qiTL9dgCCYEE5ElDMAADMCAkIGoMkAplswWKegBBJNwk5QtCmK+RO4wAAMwoGcgeOL2o+IX851T5n7MsSI2EUwIJiJLGIABGIABIQNR9YFSLJktUtADCCbhJiFS00dq+BSfwgAMlI2B4Inbj4pfLnBOmfsxx4rYRDAhmIgsYQAGYAAGhAxE1QfPXeacMkedfLkGQzAJN0nZoiDmS+QOAzAAA3oGosoApVgyW6SgBxBMCCYiSxiAARiAASEDwRO3HxXPfcU5Ze7HHCtiE8Ek3CREavpIDZ/iUxiAgbIxEFUfPH+5c8ocdfLlGgzBhGAisoQBGIABGBAyEFUGKMWS2SIFPYBgEm6SskVBzJfIHQZgAAb0DARP3H5U/OprzilzP+ZYEZsIJgQTkSUMwAAMwICQgaj6QCmWzBYp6AEEk3CTEKnpIzV8ik9hAAbKxkDwxO1Hxa+ucE6Z+zHHithEMCGYiCxhAAZgAAaEDETVB2uvdE6Zo06+XIMhmISbpGxREPMlcocBGIABPQNRZYBSLJktUtADCCYEE5ElDMAADMCAkIHgiduPirV/75wy92OOFbGJtyUqbAAAEUJJREFUYBJuEovUiilZ9ywvIrGP1RFxsvL+4rKxZgO+Zr69ZouoZgN74m9f5p/YvNe+fkbl1q3pIftZ8MJVzilzP+dactsIJuHBYCwk2196ZfPPn5niUVtw8itlwvF4mWte5rZItW/8SX2NkheeHl031qruk0FjLXnmoaY1soJky4aBnfOg+XA85pOu0QR4R6ZwxvqPUiyZrYjppptuckNDQ2meP39+RyNPmjQp7WdXX8rs+q759r56K/Mlf6mvZR/KxmPD9m3MuTNSDxXtZ24rlnOvETu9+jHZsjG4brWF53D4DqhotEVLfvStxvX5589617JXRugv2qsT6B2ZvfejXH99tXPKHGXSzu2+++6p4Nl///3roumSSy5pa/RM5MyYMaPet9gxa+O75tv66q3Ml/ylvpZ9KKvSiyjZ8MvUQ03P9J2L/OUDehA1zb/i87TFSX68pPHgzf1odaL5oyzPa+vmm2uo3NeWMpEQavMdEXpHpi/IwHqWdY2yZ4py/fU1zilzlEm7VOhs3DgasGZDhoRKVm/XTOCMVZavzz5b37Vr12a36bWdMbMOXQumM844w82cOfojp8xYp9eybgbfvLNnD9X5yimL+8L2+dvWzfdNUqv19NmhLOJa3nxeujw+n6fr2eYB7utPWf/WMbSn7NcYqrZu2bNGuSrFktmKkKZMmZIKn+JQJl7uueeeYnHDvbW54YYbGsquv/56r718I+vnE0e+sny//OcxBZP9fHDy5MnOrj/72c/SvllZVv7kk0/mbbb9uUovp+yhfc9kdb5yyvr3cm7Xt+nafP39TevTaj3btU27Pq3vbZ9Pl8fnX/Zan3wuEKGhPZVsfC64nr41LkNZ9qxRruuudU6ZI0zaRMpee+3VNJKVH3/88U3l+YKQwAmVZ32t3oRVMVn58PBwKqbsumnTpmKT+n1LwWTCyHKWMqF05plnZkXuda97XUObekXhg02qmMsAfrtzzB63qf280X8V0lQueAFhs/fDwdattvgzCKYy8bjwnHS7+fhP17NMzzKB5hp6R4bKfetblrLsmaJclWJp3bVN53R2biufxWyeddZZTSbbGcva+FKo3Nq+9rWv9X67ZHV77rmnW7lypbMfDx522GH15/eO4SvMyuwbpHw64IADvOKo2C7fJ/u8bNkyV8xlgb+deSYvrEoftant7aO/xNZUPoFelIP87LZoyeO3I5hKxqOtm4+rULmvLWW9Bxyd+DD0jkxfnIH17MT+ILXNninKdd11zglz8ZzO7ls9SyZ0xrpmNqzd7Nmzs9v6NetfL/B8sDa+FCq3tu3YzWxu2LAhKK78I+/sWRRC9913n1cw5b+FygZt5zpIgCvmYs9ctGNlSVJrKi+24z7uyzvzd/Kbn6eoZvfZNV3LK05n3QZUSKX76qffb1yff/2Sdy2zNeU6Pnss7/d0XxWYSteyYu/IFMRY//nN9c4pc4R5m4CZOnVq00hWbj8Wa5VCwihUbrasbtWq0S81WtnO6qz90qVLs9v6tSPB9MADDyCYCps9/zKwvwFjKStLXny+4T4r5zr+L+78GtgiJS9vq69bumi5dcy35fOArN3lp47urVsvGl23hWeP3i/68/o6slYDsla5d2Zxb1X1HZk9Z5SrUiyZrQhp33339X6LY0Ll0UcfbTkDa3PZZZc1tPnyl7/stWeNrL3lTpK1f+SRR5q6tLTS7jdHxW+imkYJFFTxhVZ8VN+Pe6r43KV+prsWFJeNQzd3yA3q2ia1l1m3EqxTkZ/iotXmnVC5/VZ8xr7er7/BOWXu62RHjW/evNkrYtoRNj4B5CvLHsPqTFC1m7r+kdxf//Vfu4ULF7Yc55ZbbvF+69Sy087K4kbifvAiQtaENYEBGICBzhho5/yTtVl/o3PKLJtYa0OZyLFvcq688spUQO2zzz4Nna655pomYbV+/fq07OCDD3bbtm1zBx54YHpv5b5k44TSW97ylrRvNpfs+ulPf9rbJWzJ21xbyCbsbBPiL/wFAzAAA4PPgPakHMOaUiyZrYjJ/oikiRT7KdUTTzzR0cjHHnts2teuobR8+XJneay0evVq74/giv0QTCX8SpsX5uC/MFkj1ggGJi4DxYO2r/cb/sE5Ze7rZMttHMGEYKrc7w9wUE3cg4q1Z+0HgYGoskAplswWKegBBBOCCcEEAzAAAzAgZCB44vajYsM/OqfM/ZhjRWwimISbZBAiG+ZAhA0DMAAD48tAVH2wcZFzyhx18uUaDMGEYCKyhAEYgAEYEDIQVQYoxZLZIgU9gGASbhKiuvGN6vA//ocBGBgEBoInbj8qNi52Tpn7MceK2EQwIZiILGEABmAABoQMRNUHL97knDJHnXy5BkMwCTfJIEQ2zIEIGwZgAAbGl4GoMkAplswWKegBBBOCicgSBmAABmBAyEDwxO1HxaZ/ck6Z+zHHithEMAk3CVHd+EZ1+B//wwAMDAIDUfWBUiyZLVLQAwgmBBORJQzAAAzAgJCB4Inbj4pNS5xT5n7MsSI2EUzCTTIIkQ1zIMKGARiAgfFlIKo+2HyLc8ocdfLlGgzBhGAisoQBGIABGBAyEFUGKMWS2SIFPYBgEm4SorrxjerwP/6HARgYBAaCJ24/KjZ/2zll7sccK2ITwYRgIrKEARiAARgQMhBVH7z0HeeUOerkyzUYgkm4SQYhsmEORNgwAAMwML4MRJUBSrFktkhBDyCYEExEljAAAzAAA0IGgiduPype+hfnlLkfc6yITQSTcJMQ1Y1vVIf/8T8MwMAgMBBVHyjFktkiBT2AYEIwEVnCAAzAAAwIGQieuP2o2HKbc8rcjzlWxCaCSbhJBiGyYQ5E2DAAAzAwvgxE1Qdbv+ucMkedfLkGQzAhmIgsYQAGYAAGhAxElQFKsWS2SEEPIJiEm4SobnyjOvyP/2EABgaBgeCJ24+KrXc4p8z9mGNFbCKYEExEljAAAzAAA0IGouqDbd9zTpmjTr5cgyGYhJtkECIb5kCEDQMwAAPjy0BUGaAUS2aLFPQAggnBRGQJAzAAAzAgZCB44vajYtudzilzP+ZYEZsIJuEmIaob36gO/+N/GICBQWAgqj5QiiWzRQp6AMGEYCKyhAEYgAEYEDIQPHH7UbH9+84pcz/mWBGbCCbhJhmEyIY5EGHDAAzAwPgyEFUfbL/LOWWOOvlyDYZgQjARWcIADMAADAgZiCoDlGLJbJGCHkAwCTcJUd34RnX4H//DAAwMAgPBE7cfFTvudk6Z+zHHithEMCGYiCxhAAZgAAaEDETVBzuWOqfMUSdfrsEQTMJNMgiRDXMgwoYBGICB8WUgqgxQiiWzRQp6AMGEYCKyhAEYgAEYEDIQPHH7UfHyPc4pcz/mWBGbCCbhJiGqG9+oDv/jfxiAgUFgIKo+GLnPOWWOOvlyDYZgQjARWcIADMAADAgZiCoDlGLJbJGCHkAwCTfJIEQ2zIEIGwZgAAbGl4HgiduPipH7nVPmfsyxIjYRTAgmIksYgAEYgAEhA1H1gVIsmS1S0AMIJuEmIaob36gO/+N/GICBQWAgeOL2o6K2zDll7sccK2ITwYRgIrKEARiAARgQMhBVH9QecE6Zo06+XIMhmISbZBAiG+ZAhA0DMAAD48tAVBmgFEtmK3K64oor3K233tq3Ue+99143f/78Me3fcMMNznKrhGBCMBFZwgAMwAAMCBlodejK65IHnVNm+QT9BnfffXc3NDTk9t9///Rqny+55BJ/41yptcvnOXPm5Gpf+fjYY4/V2x1++OH1z6+0GP109NFHp3V77LGHmzJlSvr5mGOOKTZL7xFMwk1CVDe+UR3+x/8wAAODwID3tO1XYfKQc8rcr3kW7Jro2bhxY0OplXWSrH1IMFmdCaB8srLf+q3fyhelAqmhwDlvmbXpbHZFqz3eDwLYzIEXLAzAAAzAgJKBHo/GzrorxZLZipBmzpzpFSUmaLZv3972DMYSTEVD1t5ylq6//vqG+6zc2vh+PPdKz6xlxKsSUGzxwoMBGIABGBgEBiIeo865H4pz/2dvgmSvvfZqGsjKjz/++KbyUIG1933DdNVVV3mF0Cc/+cmGcutvuZiC5cWGMe8HAWzmwAsWBmAABmBAyUDMc1QtmDKxULwqn8lsn3XWWU0mszGbKgIF1t4nmGbNmuUVQrfddltDeWi8YHlgHhT34IFly5Y1LEoPpuga0QO2SWztSOXygK0bqVweCB1I5XqKas7W3oG+3Opps/Uc65rZsHazZ8/ObuvXrH+9YIwP1t4nmE4++WTvGfy9732voTw0XrB8jPlQ3YUHEExdOG0AutgmQTANwEJ0OAVbN1K5PBA6kMr1FMy2Ww/Y+k+dOrWpu5UPDw83lYcKrL1PMH3hC19oEEZZ/4suuqihPMRhsDwzxFXnAQSTzpcxLdkmQTDF9LhmLFs3Urk8EDqQyvUUzLZbD4TW38rt94/aTdbeJ5i2bt3aIIwye3vvvXdD+bve9a6G+6yd2X33u9+d3davvGnqrtB9QDDpfBnTkm0SBFNMj2vGsnUjlcsDtmasW7nWTDnbzZs3e9e/UyasvU8w2Vyt7j3veU/DtK2sOEbxPuvb0HHnDW8an1d6LEMw9ejAcepuGwfBNE7O72FY3wuvB3N0jeABWzPWLYKjB3iIjIFHHnnEXXnllSkP++yzT8OMr7nmmiZOZsyYkZZl/fPXfOc//uM/Ttudf/757tlnn633ybexz1n/O+64w333u9+t3xfbpW19hZThATyAB/AAHsADeKCfHsj+sraJlkmTJjUN1YtgMmPz5s2rCyAbI5Qy0ZRdg+1CFZTjATyAB/AAHsADeAAPjHogLLnwEB7AA3gAD+ABPIAH8EDqAQQTIOABPIAH8AAewAN4YAwPIJjGcBDVeAAP4AE8gAfwAB5AMMEAHsADeAAP4AE8gAfG8ACCaQwHdVq9xx57NPxW/oYNGzo1QfvIHjjppJMa1izy8AzXoQeef/55N3ny5IY1a/UvYDo0T/M+eeDCCy9sWjPWrU/OxmxfPIBgErp1l112SV8ImUn7o1m8EDJvDO7V1uj000+vv8wHd6bMzDzw0Y9+1B133HENzrA1ZK81uGTgbq699tqmObFuTS6hYIA9gGASLo5t/pdeeqnBopW98Y1vbCjjZjA9wMt7MNel3VnZ+i1cuLDd5rQbEA/YupHwQBk8AKmiVTrttNO8Ee5f/dVfectFw2JG6AEEk9CZ42DK1u/iiy8eh5EZshcPIJh68R59Y3oAwSTyduiwHRkZQTCJfNxvM6E17Pe42O/dA+94xzvYZ727MYqF5cuXu3vvvdd94hOfSNfspz/9aZRxGQQP9OoBBFOvHtzZv9VhSwQlcnKfzbRawz4PjfkePcDa9ejAiN2ztbKr73+HEXEqDIUHOvIAgqkjd4UbZy8BXwurIw2+B1qt4eDPfuLO0NbN/oecpPJ54P3vfz/fDJZv2SbsjDnJRUu/++67ezf+0qVLveWiYTEj9ACCSejMSKZYs0iO7uMwtobve9/7+jgCpvGAxgMIJo0f3RNPPOEVRvaVs70QSIPvAQ7fwV+j/AxZr7w3yvvZ1vGEE04o7wMw8wnjAU5y4VIXX+BPPfVUKpZqtZpwFEz1ywPF9evXONjtzQNJkqT76tBDD+3NEL2jemDJkiVN4+2///4ElE1eoWBQPYBgEq9Mdujmr+IhMCf2QH6t8p9Xr14tHglzCg8ccsgh6SGbX6vss9WRBtMD2RoVr4899thgTphZ4YGCBxBMBYeobn/yk5+oTGEHD+ABPIAH8AAeGGcPIJjGeQEYHg/gATyAB/AAHhh8DyCYBn+NmCEewAN4AA/gATwwzh5AMI3zAjA8HsADeAAP4AE8MPgeQDAN/hoxQzyAB/AAHsADeGCcPfC/AH67AlU6DCxzAAAAAElFTkSuQmCC;" parent="1" vertex="1">
          <mxGeometry y="200" width="211.89" height="160" as="geometry" />
        </mxCell>
        <mxCell id="8NRp37ZozChNo-UHmFwA-2" value="" style="shape=image;verticalLabelPosition=bottom;labelBackgroundColor=default;verticalAlign=top;aspect=fixed;imageAspect=0;image=data:image/png,iVBORw0KGgoAAAANSUhEUgAAAjsAAAG6CAYAAADu0oe7AAAgAElEQVR4Ae29C9xdRXn/+ybIQThyjgfK+dcDyNWXO8REwsUSCEQwQVQqhFbFWFGqtX+PVf6oFKxKTZU00mDBu5FLWkMoQUEupdKESwih54+aYKRgQiFyqzEBAuTyvnvO/1lhdtdee9be71575llrz/rO5zNZa82aeZ7ZM7+1nu/Mft83Q4bECDACjAAjwAgwAoxAxCMwFPFn46MxAowAI8AIMAKMACNggB1EwAgwAowAI8AIMAJRjwCwE/X08uEYAUaAEWAEGAFGANhBA4wAI8AIMAKMACMQ9Qgows6/GWPIjAEa0NDAF4aGDXmwxqBx358Y8uCNgSYh+H6mNfteti9gBwADQiPUgO+XIvbCgxOgM3igI3OmmXw/h5p9L9sXsBNhoNPYOcBHtXeofL8UsQfsAGNuGNMM4l8aGjY+s2bfy/YF7AA77OxEqAHgJDyc+B5jYMINE1UfF80g7hN0xFadErATYaBj16Xauy4a8+M7EGMvPDxVPajTPzeMaQLDXw8NG59Zs+9l+wJ2gB12diLUAHASHk58jzEw4YaJqo+LZhCfPTRsfGbNvpftC9iJMNBp7Bzgo9q7R74DMfbCw1PVgzr9c8OYZhD3CTpiq04J2AF22NmJUAPASXg48T3GwIQbJqo+LprA8JWhYeMza/a9bF/AToSBjl2Xau+6aMyP70CMvfDwVPWgTv/cMKYZxC8bGjY+s2bfy/YF7AA77OxEqAHgJDyc+B5jYMINE1UfF80g7hN0xFadErATYaDT2DnAR7V3j3wHYuyFh6eqB3X654YxTWCYMzRsfGbNvpftC9gBdtjZiVADwEl4OPE9xsCEGyaqPi6aQdwn6IitOiVgJ8JAx65LtXddNObHdyDGXnh4qnpQp39uGNMEhrlDw8Zn1ux72b6AHWCHnZ0INQCchIcT32MMTLhhourjohnELx8aNj6zZt/L9gXsRBjoNHYO8FHt3SPfgRh74eGp6kGd/rlhTDOI+wQdsVWnBOwAO+zsRKgB4CQ8nPgeY2DCDRNVHxdNYJg3NGx8Zs2+l+0L2Ikw0LHrUu1dF4358R2IsRcenqoe1OmfG8Y0g7hP0BFbdUrADrDDzk6EGgBOwsOJ7zEGJtwwUfVx0QSGrw8NG59Zs+9l+wJ2Igx0GjsH+Kj27pHvQIy98PBU9aBO/9wwphnErxwaNj6zZt/L9gXsADvs7ESoAeAkPJz4HmNgwg0TVR8XzSDuE3TEVp0SsBNhoGPXpdq7Lhrz4zsQYy88PFU9qNM/N4xpAsM3hoaNz6zZ97J9ATvADjs7EWoAOAkPJ77HGJhww0TVx0UziH9raNj4zJp9L9sXsBNhoNPYOcBHtXePfAdi7IWHp6oHdfrnhjHNIO4TdMRWnRKwA+ywsxOhBoCT8HDie4yBCTdMVH1cNIHhO0PDxmfW7HvZvoCdCAMduy7V3nXRmB/fgRh74eGp6kGd/rlhTDOI+wQdsVWnBOwAO+zsRKgB4CQ8nPgeY2DCDRNVHxdNYPje0LDxmTX7XrYvYCfCQKexc4CPau8e+Q7E2AsPT1UP6vTPDWOaQXz+0LDxmTX7XrYvYAfYYWcnQg0AJ+HhxPcYAxNumKj6uGgGcZ+gI7bqlICdCAMduy7V3nXRmB/fgRh74eGp6kGd/rlhTBMYrh4aNj6zZt/L9gXsADvs7ESoAeAkPJz4HmNgwg0TVR8XzSB+zdCw8Zk1+162L2AnwkCnsXOAj2rvHvkOxNgLD09VD+r0zw1jmkHcJ+iIrTolYAfYYWcnQg0AJ+HhxPcYAxNumKj6uGgCw3VDw8Zn1ux72b6AnQgDHbsu1d510Zgf34EYe+HhqepBnf65YUwziPsEHbFVpwTsADvs7ESoAeAkPJz4HmNgwg0TVR8XTWD4h6Fh4zNr9r1sX8BOhIFOY+cAH9XePfIdiLEXHp6qHtTpnxvGNIP4D4eGjc+s2feyfQE7wA47OxFqADgJDye+xxiYcMNE1cdFM4j7BB2xVacE7EQY6Nh1qfaui8b8+A7E2AsPT1UP6vTPDWOawHD90LDxmTX7XrYvYAfYYWcnQg0AJ+HhxPcYAxNumKj6uGgG8RuGho3PrNn3sn0BOxEGOo2dA3xUe/fIdyDGXnh4qnpQp39uGNMM4j5BR2zVKQE7wA47OxFqADgJDye+xxiYcMNE1cdFExhuHBo2PrNm38v2BexEGOjYdan2rovG/PgOxNgLD09VD+r0zw1jmkHcJ+iIrTolYAfYYWcnQg0AJ+HhxPcYAxNumKj6uGgCw01Dw8Zn1ux72b6AnQgDncbOAT6qvXvkOxBjLzw8VT2o0z83jGkG8R8PDRufWbPvZfsCdoAddnYi1ABwEh5OfI8xMOGGiaqPi2YQ9wk6YqtOCdjpM9A9+uhN5rvf/QLA0Oc4au8UzZ9/qbnxxq9FO2++A3G/9v7+kOnmjk9/xXzpNYeanmyNO8jc/hezzTeOemfHdjf/6efNjz9yccc6Pfkd0oelsoP6Ty4/w/zTV083vfZj1T+cba78zDQzcs8HO7a944p3muv/ZkbHOr36rkJ9TWC4ZWjY+MyafS/bF7BTMEiPjKwww8PDST7rrOnNc+2gjb/evk6yc/bOd77NTJhwZDJvzz57Z3TQU5XA/sXxBzffcU8u/1nzfCz9s5V/8+BKe2q+vMtRLUBjb/z2kTXm2ZWP2MuWOllfzUrGdKyXbRf6uqzA/eH3HJM8B4cdcpCZcOTByfnU44/oCiUv/vQDzfferHcf3TzPfo6//MgJyb1DDh42R7/50ORcjul69rl0HcdS74kf/XGLvXSb0OdpPYU+v3Vo2PjMoftbJfvATkHYkYdywoQjmkHy5ZfvSx7iTZvubZYBIr2BiMZ4ybw99tiPmnN0+uknJ/Om4VvTR+jAPFb79mWXri9lL/32d51BY9xBSdN0uxeeeratLH3fnkul36150mlfdpjSybapwjF0UM6zn7zLjji4CQsv3bUdYvLq23ILJvZajlJ22pSjmrZs2cEHDTfLZAdI6j3ZBVC+8NEpSb2sfWmbLiv7PK2n0Oc+QUds1SkBOwVg58EHr3MGyCOPPNxZrhnk8JUPWPblnB0jKb/qqoubAJS9P4jXVQje0gdJ3z/hvS3gsfWll5PyTn20L+FsHSnPlmWv89pKPdu+U52sPa3rMoL2g/Pf0wYU0o/kmfjstI5QIXWywGKfMftZnrr5vbn2pa6t5zrK/U+ee3xLnax9VzvtMqsljeNtQ8PGZ9boc1V8ADsFYGfq1OOdUHPLLVc4ywcxWMbYZ3lRXnLJx9qgxr5AY/rMWgG6mx950WXrLDrnk8n7L1uevpYKd35mTltbKf/iDoe0lWfbuvyu/MdbzCsbX0jaJh1w9C1tR/tcO0iLv5OOO6IQjGxZOsvZ7psXva2l/H1nvKXl2n5G+8zZ6+zx3m+f2bHdhn8+16y98Y9aQChrQ+vaaknj6BN0xFadUhvsHHrooWbcuHFtefz48X2OS/6Ke9CCjH1QXf2We65yysqff5mblSuvb5ufTvM5qPOmHahd/q6b/uHkneG6Jzdc5bZM7n91t8ltdaT8lo/+VVu5bXfjuf8j8Sk/K2TL5Dh/yvuScluWXHTpg62rddQKzmk/VvvpMjmfcMT2n93Jltvr6y59uxNG1t/+/pbyPPunT53QUs/atce8drY8e7TtyjhaLWkc7xgaNj6zRp+r4qMJO88//7wRoBHQueiii8zo6Gizj3fffXdyT+4Xh57yg52vwGUfNJc9uecqp6z8+Ze5efzxW9rmp9N8Duq8aQXoTn5u+ONPJe8QVx254Sq3ZXLftYMj5f/y2b91tv3r18rP0Jm2H2IWm5Iu+71jmu2Sgi59sH3ROpYRqK32s77/YPL2r+Sz5fb6qs9Nc8JKdscnz/45MyY521v70k6Ayl53Oub56NTG5z2rJY3jnUPDxmfW6HNVfDRhRyBn+vTWH97LdvKRRx4ZE+wMDQ2ZbB7UoOHqt324svc2b16WPMDZcq7LBx2ZA5m3u+/+HrCj9GvV35p4ZvIKycLCpTsd7ixP15MKXx8+rQkn9p6U//Ddf9ZWLmAk6T9/tabt3tolD5htr2xuKU8qAzvJMyHPRTb423dcttxe3zbvDCesPHbDOS3leXaOf8thLfWsXTnKr7G7+pSukz7/yNnbf5ssXaZ5brWkcfQJOmKrTqkJO2PdsREoWrVqVYExqkbA8wEen/709h/gy9r64hc/njyk2XKuqzH38gJ9xztOccLOlCnHtpUP8rxZOCj7KC+KbB8e+Pq1yfsjW56+lgq/+tFP29q67H3h1d/cev7Jp9vqi81uKe23zHPNAG19ffoDb3WChTwrU445vA2CbDs5uoAkCx5f+9T233ZMt7NtXe3tvfPeM7mj77S9v7vgFGdf0nVCnnfTl8/7Px0aNj6zz75V3VYh2Cn2oaoR8HwFMHlQn3rqjpYAKWXnnvvuljJf/rDTv36uuOKzbTDaaDzYVhbDWJcZtNO+5V0xsmVLC4TY90e6Xvb8ofn/lFRLl8vf2JGULls29/tJ2ZWHnd5Snq7jOk8aZWy56mmWhQzInWzLe+s3P35vC1zkgUjajtSZPNH993Ky9R665qw2+ye/tf1v+Xz5z0/qGVykH2Ppb7pPPs+tljSOd40bNj6zRp+r4qMJO7vsskvy8zqvvPJKbt/sz/TkVuh4o/9gVaUgNHnyxJYgKTsD8sBVqY/0pV1zMkeHH35Yc57sizK2sdIM0p18yd/TkWTrfHPCu5LrH5x0brNM7qXr2LpS9oOpH2jWk+ttm9vBaXTbNvOdY85uy9aO65g4TPXLVUe7zGcA7sWWfQZsG9nRkTJ7LUfXb20dduhBLfXsb1DJV1nptln7nX44OVs3bUfO5f5XPnGSeeFftv82lq3/0yvf1eIz2y7ktdWSxtEn6IitOqUm7MiHfs1rXtP8IeXsb2T1BzpivT3wDHrZmWeeljx89oEb9M9Tl/7b+ZLjW986OUptagfqTv6+M/mslneqq65UyCu3jeWvJGfr2HuuY7Zu+trWT5eVfR4yIHezfeapb255l2Xru2BH6iz5xrs7trN2Ppj6C8vy3Nny7FHuyQ8/Z8vt9T3fPtPMOOmops+vX3hKbl3bJvTRaknjuGT8m4zPrNHnqvhogR3bqXe+850tv3r+2te+1qxevdreLniMD3bqAgd8zsHTbtmBG/+9/99aoYMy9sP8R6MFA2KhZj5BR2zVKTlhJ8wADF7AIMgzZ4OqAWCjd9goe8yAkTAwEnpcw8RLt9WlO7zJ+MxuL3GWAjsRfr02qAGafvuDy7IDN/57h63QQRn7YWBKEw3u3uFNxmfW7HvZvoAdYCfKn1mpOzgBG73DRtljBoyEgZHQ46oZxH2CjtiqUwJ2gB1gJ0INlB248d87bIUOytgPA1OawHDPaw40PrNm38v2BexEGOjqvqvB5/+3tt9aAj56hw/tMQNGwsBI6HHVDOL37nig8Zk1+162L2AH2GFnJ0INaAdq/PUPU6GDMvbDwJRmEPcJOmKrTgnYiTDQsbPh7wd9B3UsgY/+4UN7DIGRMDASelw1geG+/+1A4zP303f7/1/uuuuuPZnZfffdm/93pqvhxo0bzZFHHtmsM23aNFe1pOyGG25o1jviiO3/EXBeZWAH2GFnJ0INaAdq/PUPV6GDMvbDwFRecA1Rfv9OBxifuUgfR0ZGmoAxefLk5vlYbFlAmjRpUrPdpk2bWpraOm9605vMjjvu2KzXUskYc9dddzXvHXDAAc3zbD17DexEGOgGdTeCfvvbkQI++ocP7TEERsLASOhxtcFU4+gTdMRWkWRhJN1WyubOnZsuajtftGhRAiTpGy5b6fv23FVPyp5//nlbJTlKWd5/eQXsADvs7ESoAe1Ajb/+4Sp0UMZ+GJhqibaBL5bvdIDxmYt0V4Bi69atLU1POeWUNpBpqfC//jsYaXfgge0/JyTl3ZLUSdfb8r/+c+H0tW2frWfL5djdS7p2X+f+Vq3sADCWaKCzBoCP/uFDewyBkTAwEnpc+wqLPTb2CTpiq9eUBxkrVqxwwkfavoCI7O5kk5SvWbMmW9xynYWYiy++2OlvxowZznIxBuxEuKoHBDqDQB3GRztQ469/uAodlLEfBqZaonLgiwdee4DxmS1EZI95H2PhwoX5MNFlh0Z8bN68uc20lM+ZM6et3BbssssubT4POeSQtjKpf9VVVznL5R6wA+zwNVaEGgA++ocP7TEERsLASOhxtUFZ47hi5wOMz7xs2TLjynmfZcGCBfkwMQbY2bZtW5tpgZ3Zs2e3lUvBiSeemPjL/hCz/PCytMumb3/7285yqddeO9va2zWr7TrsKPAZq6Fz7UCNv/7hKnRQxn4YmPIWIsdgyCfoiK1e07p165wwsXbtWmd52r7AyZIlS9JFybmUC3Bl08yZMxOb4jObPvzhDzv9zZo1y1ku7YGdCFf1AEc1gKPMeQA++ocP7TEERsLASOhxzQbikNcP7rK/8ZmL9FXgRP4WTjpNnDgxFzJsPWm3xx572Mvk2Gg0nO3OO+88Z7ltnNdOfEh2JXepq2bfZQSgMoMfvuulP+1Ajb/+4Sp0UMZ+GJjqOzT2YOD/+9/3Nz5zD66bVQUm5O/fpJOUTZ06NV3Udu7addltt93a4OQv/uIvkrKVK1e22UgXuKBGypYuXZqu1jwHdtjZ4Wd2ItQA8NE/fGiPITASBkZCj2szmiqc+AQdsVUkLV68OIGR6dOnmw0bNjT/8F/WVh6MjBs3zqxfv97Yr6nmzZvX0lTa5eV0RfsHDS+99FLz61//utkmXSd9DuxEGOjYxanXLo5rvrUDNf76h6vQQRn7YWAqHVBDn//P1+1vfOZ++rvnnnsmgHHGGWf0ZMZCTvYrrZ6MvFr5ueeeMzvttFPSjwsuuKCjCWAH2GFnJ0INAB/9w4f2GAIjYWAk9Lh2jLCeb/oEHbFVpwTsRBjoXCt9yuq126MdqPHXP1yFDsrYDwNTmsDw0Ov2Mz6zZt/L9gXsADvs7ESoAeCjf/jQHkNgJAyMhB5XzSD+s133Mz6zZt/L9gXsRBjo2MWp1y6Oa761AzX++oer0EEZ+2FgSjOI+wQdsVWnBOwAO+zsRKgB4KN/+NAeQ2AkDIyEHldNYPj5/7Gf8Zk1+162L2AnwkDnWulTVq/dHu1Ajb/+4Sp0UMZ+GJjSDOIr/899jc+s2feyfQE7wA47OxFqAPjoHz60xxAYCQMjocdVM4j7BB2xVacE7EQY6NjFqdcujmu+tQM1/vqHq9BBGfthYEoTGFa9fl/jM2v2vWxfwA6ww85OhBoAPvqHD+0xBEbCwEjocdUM4j5BR2zVKQE7EQY610qfsnrt9mgHavz1D1ehgzL2w8CUJjA8/Pp9jc+s2feyfQE7wA47OxFqAPjoHz60xxAYCQMjocdVM4j/8v/ax/jMmn0v2xewE2GgYxenXrs4rvnWDtT46x+uQgdl7IeBKc0g7hN0xFadErAD7LCzE6EGgI/+4UN7DIGRMDASelw1gWH1bvsYn1mz72X7AnYiDHSulT5l9drt0Q7U+OsfrkIHZeyHgSnNIP7I7vsYn1mz72X7AnaAHXZ2ItQA8NE/fGiPITASBkZCj6tmEPcJOmKrTgnYiTDQsYtTr10c13xrB2r89Q9XoYMy9sPAlCYw/PvvvdH4zJp9L9sXsAPssLMToQaAj/7hQ3sMgZEwMBJ6XDWDuE/QEVt1SsBOhIHOtdKnrF67PdqBGn/9w1XooIz9MDClCQyP/t4bjc+s2feyfQE7wA47OxFqAPjoHz60xxAYCQMjocdVM4g/tscbjc+s2feyfQE7EQY6dnHqtYvjmm/tQI2//uEqdFDGfhiY0gziPkFHbNUpATvADjs7EWoA+OgfPrTHEBgJAyOhx1UTGH79f+9tfGbNvpftC9iJMNC5VvqU1Wu3RztQ469/uAodlLEfBqY0g/ja/7a38Zk1+162L2AH2GFnJ0INAB/9w4f2GAIjYWAk9LhqBnGfoCO26pSAnQgDHbs49drFcc23dqDGX/9wFTooYz8MTGkCw+O/v7fxmTX7XrYvYAfYYWcnQg0AH/3Dh/YYAiNhYCT0uGoG8f94w97GZ9bse9m+gJ0IA51rpU9ZvXZ7tAM1/vqHq9BBGfthYEoziPsEHbFVpwTsADvs7ESoAeCjf/jQHkNgJAyMhB5XTWB44g17GZ9Zs+9l+wJ2Igx07OLUaxfHNd/agRp//cNV6KCM/TAwpRnEfYKO2KpTAnaAHXZ2ItTAD4eGDXmwxsA89y1DHsAxUCSGJ/+fvYzPrNj10l0BOxEGOtdKn7J67fYAOoMFOjJfgM4Ago4AqmJat9fexmdW7HrproAdYIednQg1AOwAO8CTEjwphnGfoCO26pSAnQgDHbs49drFcc03sAPsADvxwc5v3ri38ZmBnSAjQAByBSXK0EUIDQA7wA6wEx/sPLXP3sZnDhLqK2qUnR12dvgaK0INADvADrAD7HQDo4pySZBuATsRBroQOwXYHKwdKGAH2AF2IoSd/d5onvKYg1BFRY0CO8AOOzsRagDYAXaAHWCnGxhVlEuCdAvYiTDQsQszWLswIeYL2AF2gJ34YOfpA95ofOYgVFFRo8AOsMPOToQaAHaAHWAnPth55sB9jM9cUS4J0i1gJ8JAF2KnAJuDtVsE7AA7wA6w0w2MglBFRY0CO8AOOzsRagDYAXaAnfhg59nhfYzPXFEuCdItYCfCQMcuzGDtwoSYL2AH2AF2IoSdg/Y1z3rMQaiiokaBHWCHnZ0INQDsADvADrDTDYwqyiVBugXsRBjoQuwUYHOwdouAHWAH2IkPdp47ZF/jMwehiooaBXaAHXZ2ItQAsAPsADvATjcwqiiXBOkWsBNhoGMXZrB2YULMF7AD7AA78cHOfx62n/GZg1BFRY0CO8AOOzsRagDYAXaAnfhg57eH72d85opySZBuATsRBroQOwXYHKzdImAH2AF2gJ1uYBSEKipqFNgBdtjZiVADwA6wA+zEBzvrj9zP+MwV5ZIg3QJ2Igx07MIM1i5MiPkCdoAdYCdC2Jmwv1nvMQehiooaBXaAHXZ2ItQAsAPsADvATjcwqiiXBOkWsBNhoAuxU4DNwdotAnaAHWAnPtj53Zv3Nz5zEKqoqFFgB9hhZydCDQA7wA6wA+x0A6OKckmQbgE7EQY6dmEGaxcmxHwBO8AOsBMf7GyYdIDxmYNQRUWNAjvADjs7EWoA2AF2gJ34YGfj0QcYn7miXBKkW8BOhIEuxE4BNgdrtwjYAXaAHWCnGxgFoYqKGgV2gB12diLUALAD7AA78cHO85MPND5zRbkkSLeAnQgDHbswg7ULE2K+gB1gB9iJEHaOPdA87zEHoYqKGgV2gB12diLUALAD7AA7wE43MKoolwTpFrATYaALsVOAzcHaLQJ2gB1gJz7YeeG4A43PHIQqKmoU2AF22NmJUAPADrAD7AA73cCoolwSpFvAToSBjl2YwdqFCTFfwA6wA+zEBzsvvvVNxmcOQhUVNQrsADvs7ESoAWAH2AF24oOdTSe8yfjMFeWSIN0CdiIMdCF2CrA5WLtFwA6wA+wAO93AKAhVVNQosAPssLMToQaAHWAH2IkQdqYMm00ec0W5JEi3gJ0IAx27MIO1CxNivoAdYAfYiQ92Xjpp2PjMQaiiokaBHWCHnZ0INQDsADvADrDTDYwqyiVBugXsRBjoQuwUYHOwdouAHWAH2IkPdl4++SDjMwehiooaBXaAHXZ2ItQAsAPsADvxwc4rpxxkfOaKckmQbgE7EQY6dmEGaxcmxHwBO8AOsAPsdAOjIFRRUaPADrDDzk6EGgB2gB1gJz7Y2fy2g43PXFEuCdItYCfCQBdipwCbg7VbBOwAO8AOsNMNjIJQRUWNAjvADjs7EWoA2AF2gJ0IYefUg81mj7miXBKkW8BOH4FueHjYpPOpp04BHPoYT43do/PPP6dlzmT+NPxq+6gS7GTfXC88ssaMpX+/feDn2aZt7doqGGN+c8u/ttT70Z4nuKqZu046t6XeWPoUsk5ZcPLKk3/f9kw88bPLzFj6k37/yflZ75rS1m70mW+22V9595da6j324Oy2OmLvudVfa6mX9Wevl99+cUu9sfTdWx2nusIUbnn7wcZnDtPLaloFdgoGZ3nIJkw4ohkoX375vuRh3bTp3maZdoDDX/evmmTeHnvsR805Ov30k5N5i23sQgblXmzb1166jZRt/u3vOoPGuIOSpul2Lz/1bFtZ+r49l0ovrnmyaV9gx96zx5v+2/FjsmXraxy9Bd/netvRSN5lRx3WhIWXn9gOP936Y0EjXU/KTpt2TNOW3JOygw8+qFlm4WfdL+Y0y9I27PmtP/zU9mcz9XlcPm390o6JknT+8Qk6YqufNDQ0ZCTvuuuuPZnZfffdk3bStlOaMWNGUm/+/PnOatZ/9uisbIzp7C2vVaHy7oFoUALOtm0POANk80EsCFCD8vkHtZ9HH/3m3HlbtWpRE4AG9fOl+60RnMfiQ14Vj/zd1S2wYV8fndqPbtuWVMvWkcJsWfZ6LPalzVhsZW2HvC4jWG976httQCH9kHfZqntad1+y/ZM6879+fguwNN+BGUBxtZW62fLsdbaOy362jfq1FZzCceuMQ4zPXKTLIyMjTViZPHly83wstiyYTJo0qdlu06ZNLU1tHXsEdkoEiqlTj3cGzVtuucJZng5CnJcHvfKivOSSj7VBTfMFWqKmfOsiZFDuxba8xbL17zvnk8nLLVuevpYKP/vMnLa2Ur5wh0PayrNtXX7TdeR8LHWybUJeqwfp575lpk55Sy7sZEEj3b+tT13lbPetuR9qKX//zFd3TlPwI3aaz1ymPO3Dfr2WLrPtXlx7hVnzb3/TFZbSbYOdJ0rS+Wfb6YcYn7lIry2EpNtK2dy5c7QiGIwAACAASURBVNNFbeeLFi1KACd9w2Ure78T7KTrdjtnZ6dAgLMPnCtAJS+IAjZdtijzC0YyNytXXg/sDOn88O7S6R9O3j8uQJAbrnJbJvdv3G1yWx0pf/Cjf9VWbtstP/d/JD4Xjj84t47UHetXYtauxjFYMO4AFM13WabOhKMOa4GWbN+u++bHnPfX//vlLeV59k8/7biWeta+rW+PttwebXn2aO+XckwUp/OPT9ARW0WSAMrWrVtbmp5yyiltINNSQb5GGhoyBx54YLa4YztpUyrsjB8/vq3D3Qv8Bq4yQcA+aK4+yD1XOWXlz7/MzZNP3tY2P53mc1DnTSM4d/NhwcNVT94XrnJblndfyn9xybzctnJ/3U3/kntf7P/8oq9JNXPz/qd0rGf7onUsI1A3tZ+BnZNOmOSEEdvHr3/1g877jWe3/zCyrZdn/31ddnxsu5sXfLLr7o2ta32qHxM16fwzcsahxmfutddbtmxxwsmKFSuc5Wn7Ai6yu5NNUr5mzZpscXLdDXamTZuW+H3d615nHnzwQacNW1hoZ6cb7EgHs3lQg4ar382HK7ODs3nzsu0vgEy5ywZl+vAj83b33d8DdpR2du6YeGbynsnCwvU7He4sT9eTCj8ZPq0NRqT8nnf/WVu5fLUl6flfdf5Nr3vP+kRST45pf1U4Vw/SHb5Oar7jMhBk+3j79Z92wo79rSpbL8/O8cdOcLa37exR2tvzvOMXPztzTLby2vddnihK5x+foCO2snHaXud9moULF+ZCjbTtlOT+5s2b26pI+Zw5c9rKpUDuddrZEciSXaaZM2c2P4vTUPYHlJcuXWrGkrvBzrJly0w2xxTcZ8yY6oSa66+f4yyP6bMP8meRF+cFF3wI2FGCHQEISVmQeOBDFznL0/WkwqovXdnW1mXP+sm7l7W74sN/2WY3Xaes876Dbg6YdLI749TOXyfltc3u4Nh6l3/5Ay3g8ZFZp7Vc23p5EGTv26PUe/SB2R2B519v+ozTh7UR/JioWeefkXcdanzmbJy213mfZsGCBX3BzrZXf/EgbV+AZvbs2emi5nkn2GlWSp1I/bzUcmfcuHFGQGYsOc9gfrn+Sj5kYE5WHJkdHCk76CD5ldm4Pmssn2fatBOcMCrz9vTTd0Q1b2UF7KxfeR/8x8JbW+DCviOyddPXW59/MamWLpNzSa6yV575z7bydL2fnvDepO1Dn/qbjvXSbbTPgwflHBhK3mWZe8kzsepvO0KG1PnqF97bUkfKsvay1/I5XfVcn1/qya+qu+7ZsrHasvW9HxNl6fwzcuZhxmfutdfr1q1zws7atWud5Wn7AiJLlixJFyXnUi6Q5UpFYGfq1KkuU62/ei6wM5bUbWfHbSMuAJg8eWJL4Jwy5diW61gAIbbPIS/Gww8/rAk2zRdlZICqHajz/Mnf05Fk798+4V3JdfYP+qXr2LpSdtfUDzTbyvXI5i3Na6knSX5N/c5jzm7L1o58HSZJfpYnW2/x7x3TYs+2KePoPQhnACbPfvMZeLX+lD949d2Wau/6ra3DDjukBWzu+8lFyfWvM78llbX/jre/+tusKftSZ+TpbzShxv6tHylP91uuL73oHPPCmiuM/OFDa1t+YDpdT/U8UZfOPz5BR2wVSQIgGzdubGk6ceLEMcHOHnvs0dKu0Wh0bFcEds48c/vX5y2Osl9jCcSsX78+W6ftGtjZDm72QbNH11ckscHCoH+e+fMvbb4g7bwN+mdy9b+MYJ3n0/7NHPsiWXvNTW2AIfey7Vdf9l3bpHnM1mnecJzYustnfcZxd3uR3LP1yj6qBugUaIhf+yzY45Z1V7bAgwt2XO0u+8L7WtrZz2Tt2uPzv57XUs+WZ4+2vT1m78u1gJG9X8oxV13+b4y85zDjMxfpoQDIjjvu2NJUyvJ2VGzFWbNmtYHNbrvt1lZm68uxCOwIQLlSy9dYr3/9681RRx3lqtdS9vjjj7dcj+0irp0dV4ChjDmuigbKDtz47/3X+0sJ1BnooQ+9/fXpZLzGFgC91Bo5+3DjMxfp1OLFixMImT59utmwYUMCPgIl2ZRXJt8gyaaK/aHiefPmtTSVdnnZVrR9yNbba6+9bJW2Y3sP26r4KiAQViUQ0o/4tQhs9A4bZY8ZoFEANKoAa75C5Bjs+AQdsdVP2nPPPRMoOeOMM3oyYyEn+5WWNXL//febvGzr2OMzzzzT9VfObV1gJ7Kf1QBk4geZscxx2YEb/73DFrAD7NjAnHccOedw4zPn+YmxHNgBdpo/rDuWIEqdwYApYKN32Ch7zIAdYKcbZPgEHbFVpwTsADvAToQaKDtw47932AJ2gJ1u8DHyx0cYn7mbv5juAzsRBjp2XwZj9yXkPAEbvcNG2WMG7AA73eBi5H1HGp+5m7+Y7gM7wA47OxFqoOzAjf/eYQvYAXa6wYVP0BFbdUrAToSBLuSOAbYHY9cI2OgdNsoeM2AH2OkGHyPnHml85m7+YroP7AA77OxEqIGyAzf+e4ctYAfY6QYXI7OOMj5zN38x3Qd2Igx07L4Mxu5LyHkCNnqHjbLHDNgBdrrBhU/QEVt1SsAOsMPOToQaKDtw47932AJ2gJ1u8DHyJ0cZn7mbv5juAzsRBrqQOwbYHoxdI2Cjd9goe8yAHWCnG1z4BB2xVacE7AA77OxEqIGyAzf+e4ctYAfY6QYfI+dNMD5zN38x3Qd2Igx07L4Mxu5LyHkCNnqHjbLHDNgBdrrBxciHJxifuZu/mO4DO8AOOzsRaqDswI3/3mEL2AF2usGFT9ARW3VKwE6EgS7kjgG2B2PXCNjoHTbKHjNgB9jpBh8j57/Z+Mzd/MV0H9gBdtjZiVADZQdu/PcOW8AOsNMNLkY+OtH4zN38xXQf2Ikw0LH7Mhi7LyHnCdjoHTbKHjNgB9jpBhc+QUds1SkBO8AOOzsRaqDswI3/3mEL2AF2usHHyJ9NND5zN38x3Qd2Igx0IXcMsD0Yu0bARu+wUfaYATvATje4GPnzScZn7uYvpvvADrDDzk6EGig7cOO/d9gCdoCdbnDhE3TEVp0SsBNhoGP3ZTB2X0LOE7DRO2yUPWbADrDTDT5GPzHJ+Mzd/MV0H9gBdtjZiVADZQdu/PcOW8AOsNMNLnyCjtiqUwJ2Igx0IXcMsD0Yu0bARu+wUfaYATvATjf4GP3kW4zP3M1fTPeBHWCHnZ0INVB24MZ/77AF7AA73eBi9FNvMT5zN38x3Qd2Igx07L4Mxu5LyHkCNnqHjbLHDNgBdrrBhU/QEVt1SsAOsMPOToQaKDtw47932AJ2gJ1u8DF6wdHGZ+7mL6b7wE6EgS7kjgG2B2PXCNjoHTbKHjNgB9jpBhejF042PnM3fzHdB3aAHXZ2ItRA2YEb/73DFrAD7HSDC5+gI7bqlICdCAMduy+DsfsScp6Ajd5ho+wxA3aAnW7wMfrZycZn7uYvpvvADrDDzk6EGig7cOO/d9gCdoCdbnDhE3TEVp0SsBNhoAu5Y4Dtwdg1AjZ6h42yxwzYAXa6wcfoRccYn7mbv5juAzvADjs7EWqg7MCN/95hC9gBdrrBxejFxxifuZu/mO4DOxEGOnZfBmP3JeQ8ARu9w0bZYwbsADvd4MIn6IitOiVgB9hhZydCDZQduPHfO2wBO8BON/gY/fyxxmfu5i+m+8BOhIEu5I4Btgdj1wjY6B02yh4zYAfY6QYXo1841vjM3fzFdB/YAXbY2YlQA2UHbvz3DlvADrDTDS58go7YqlMCdiIMdOy+DMbuS8h5AjZ6h42yxwzYAXa6wcfol44zPnM3fzHdB3aAHXZ2ItRA2YEb/73DFrAD7HSDC5+gI7bqlICdCANdyB0DbA/GrhGw0TtslD1mwA6w0w0+Rv/6OOMzd/MX031gB9hhZydCDZQduPHfO2wBO8BON7gYnX288Zm7+YvpPrATYaBj92Uwdl9CzhOw0TtslD1mwA6w0w0ufIKO2KpTAnaAHXZ2ItRA2YEb/73DFrAD7HSDj9GvvNX4zN38xXQf2Ikw0IXcMcD2YOwaARu9w0bZYwbsADvd4GL0srcan7mbv5juAzvADjs7EWqg7MCN/95hC9gBdrrBhU/QEVt1SsBOhIGO3ZfB2H0JOU/ARu+wUfaYATvATjf4GP3bPzA+czd/Md0HdoAddnYi1EDZgRv/vcMWsAPsdIMLn6AjtuqUgJ0IA13IHQNss2uEBtAAGkhrQA8ZRr/2B8Zn1ut5+Z6AHWCHnR00gAbQABoorAG9QD56+QnGZ9brefmegJ3CAk+TPees9NAAGkAD9dSAXiD3CTpiq04J2AF2WNGhATSABtBAYQ3oIcPo351gfGa9npfvCdgpLHBWcfVcxTHvzDsaQANpDegF8tF5U4zPrNfz8j0BO8AOKzo0gAbQABoorAG9QO4TdMRWnRKwU1jgabLnnJUeGkADaKCeGtBDhtErphifWa/n5XsCdoAdVnRoAA2gATRQWAN6gXz06ycan1mv5+V7AnYKC5xVXD1Xccw7844G0EBaA3qB3CfoiK06JWAH2GFFhwbQABpAA4U1oIcMo1eeaHxmvZ6X7wnYKSzwNNlzzkoPDaABNFBPDegFcp+gI7bqlIAdYIcVHRpAA2gADRTWgB4yjF51kvGZ9Xpevidgp7DAWcXVcxXHvDPvaAANpDWgF8hHv3GS8Zn1el6+J2AH2GFFhwbQABpAA4U1oBfIfYKO2KpTAnYKCzxN9pyz0kMDaAAN1FMDesgw+s2pxmfW63n5noAdYIcVHRpAA2gADRTWgF4gH/3WVOMz6/W8fE/ATmGBs4qr5yqOeWfe0QAaSGtAL5D7BB2xVacE7AA7rOjQABpAA2igsAb0kGH02ycbn1mv5+V7AnYKCzxN9pyz0kMDaAAN1FMDeoHcJ+iIrTolYAfYYUWHBtAAGkADhTWghwyj3z3Z+Mx6PS/fE7BTWOCs4uq5imPemXc0gAbSGtAL5KPfO8X4zHo9L98TsAPssKJDA2gADaCBwhrQC+Q+QUds1SkBO4UFniZ7zlnpoQE0gAbqqQE9ZBj9/inGZ9brefmegB1ghxUdGkADaAANFNaAXiD3CTpiq04J2CkscFZx9VzFMe/MOxpAA2kN6CHD6PxpxmfW63n5noAdYIcVHRpAA2gADRTWgF4gb/xgmvGZ9Xpevidgp7DA02TPOSs9NIAG0EA9NaAXyH2CjtiqUwJ2gB1WdGgADaABNFBYA3rI0Lj6bcZn1ut5+Z6AncICZxVXz1Uc8868owE0kNaAXiBvXPM24zP30/OhoSEjedddd+3JzO677560k7ad0owZM5J68+fPz632/e9/v2nr2GOPza0nNzp769i015tpcXDOywINoAE0gAZi0ECvsbB4fZ+gI7aKpJGRkSZgTJ48uXk+FlsWkCZNmtRst2nTppamto495sHOtdde27Sx9957J+fjxo1rsZW+AHbY2WH7Gg2gATSABgprIB1Sw543rjvV+MxFemshJN1WyubOnZsuajtftGhRAiTpGy5b2ft5sCNtBbzSScryUv6dvBaFy2MgeD4DK1E0gAbQABpIa6BwUOy5oU/QEVtFkgDF0qVLW5ruvPPObSDTUkG+Rnr1a690+eOPP96xnbTpBDtpW3Iu9Q888MBscXIN7BSm+bTYOeflhwbQABqopwacsTVIYWPBqcZn7rWTW7ZsccLJihUrnOVp+wIisruTTVK+Zs2abHFynQc773//+53+Dj30UGe5GAN2gB22r9EAGkADaKCwBpxxOkhh4x9OMz6zwIQr53V+4cKF+TDR4SukBDaGhszmzZvbTIv/OXPmtJXbNq6dnbydpAsvvDC/f04PQQpZ9dRz1cO8M+9oAA3ErIEgAdNp1CfoiK1ly5Y5s9O5MWbBggX5MDEG2Nm2bVubaYGd2bNnt5VLgdxzwc6OO+7o7MdFF13kLE9sOT0EKYxZ7Hw2XuZoAA2ggXpqIEjAdBpt/ONpxmd2OulQuG7dOidMrF271lmeNiXgsmTJknRRci7lAl2ulAc706ZNc/o78cQTneVim6+xCm9d8mKr54uNeWfe0QAaSGvAFabDlDV++HbjMxfppQDIxo0bW5pOnDgxFzJsRWm3xx572Mvk2Gg0OrbLg50NGzY420n9HXbYocWHvQB2gB2+q0cDaAANoIHCGrDhNPzRJ+iIrSJJgEK+RkonKZs6dWq6qO181qxZbYCy2267tZWlG+bBjtSRe9kkZbLL5ErttV21vJSlSZhzVkZoAA2gATQQgwa8BMgxGWksfLvxmcfkNFNp8eLFCWhMnz7dyA5L3s/P5MGI/OG/9evXm5kzZyZ25s2b1+JB2uXldMV99903qXf55ZebX/7yl8026Trpc2CnMM3H8JDyGQg2aAANoIH+NJAOqWHPfYKO2Cqali9f3oQLF9SI3U7lFmZuu+22ti7Ye65jtrJ8ZZWul72fvgZ2gB22r9EAGkADaKCwBtIhNex5Y9F04zOH7W21rAM7hQXOaqi/1RDjx/ihATQQgwb0gnrjhunGZ9brefmegB1ghxUdGkADaAANFNaAXiD3CTpiq04J2Cks8BhWJHwGVtZoAA2ggf40oIcMjX+aYXxmvZ6X7wnY6QN2hoeHTTqfeuoUVkd9jGd/L5yxvbDPP/+cljmT+dPwi4+xzU/eOKWfM3ueV5fy/sba1/i98sqytmftiSdujfB50wvkjRtnGJ9Zr+flewJ2CgbnQw45OHmQ7YvhQx86q+XalnOsxovXzoMEypNPfmvzhUvgrNb82HlKH1ev/qfk2XriiZ8k8/bSS/cm19ddJ39ivvr9r2sfs89WvO9IvUDuE3TEVp0SsFPgZblt2wNOsMk+3HV9yVX1cx999Jtz523VKvnfeAmcVRwDea4uvfS/t8zP7bdf5ZzLKva/jn2q1ztSDxkai083PrNez8v3BOwUCHB/+qd/5HzRzp17gbO8ji+7Kn5mCZp/9EfvaAma0k8pf8tbJrSVV/Ez1LFPMj+uz51X7qpLmS7I570jZc7imze9QO4TdMRWnRKwUwB28h7YkZEVET7Iui/JkEFJ5m3ZsqvbAmfefIbsC7bHpquHHvrH3GcqvqA5tjEZBO3kPVN55YPwmfL7qIcMjZtONz6zXs/L99QCO/JnnMePH59kOb/++uvbeij3i6X4H2R5GHgBV3eeZW6efFL+YmdrH+N8Abd+xuxnHpTrxYu/lvtM8axVd47znqmTTjo+dz4HRZPt/SwWEYu0avz4HcZnLtKHQW3ThJ399tsvgRz5fy9eeuklY8Fn8+bNLZ9tLLCT/vPN9rxdINV9ULv1Ne9Blna8gKs7rzI3P/vZD4GdDOx103uZ9++55/u5zxTPWrWfNdf8HH74YbnzWabO+vPdEiKDXvgEHbFVp9SEHRfEPPzwwwkAHX300c0xcdVr3ux4Ut0Hs1ehz5gx1fnAXn/9HGd5r/apH0Yr8vK94IIPATsDBDvyLLiCZqdynp8wz08v45r3jpS5zJvPXuxXq27HwOf1ZuPmM4zP7LVzFTfWEXak7y+88EICPIceemjyUYCd7S8S1wMrZQcddFBbMK3Wg1n+i7Cs8Zg27QTni1bm7emn72DeKgpBMj+f+MS5LfNz7bVfds5lWdrCb/t7pT7vSL0o37jlncZn1ut5+Z66wo508eWXX06AZ926dcmxWLfbH4ZBfkHIg5x+mNesuTm5Hh1d0fJSHuTPGGPfZc5uvfXvm3M0adKElnmM8TMP+mf6/Oc/1jZHMo/veMcpzXkc9M8YY//r844sFhGLtPIJOmKrTqkJO/IzOtdcc03uZ9+6dWsCOuzs/Be02YfZHl1fkcT4EhvkzzR//qVJ4LRzJsdB/jx16bv9I57M23+9fwZh7tPzJedbttwf4fOWGza932j85F3GZ/bewQobbMLOVVddlfxQcqe+fvCDH2Rnx7HV/6tf3RjhAzxYL9VeX/yPPnqTefbZO5k3h557HUvN+j//+ULmbMDm7Pnnl5q435Gdoqbfez5BR2zVKTVhJ/yHjjt4ar7w8YWW0AAaQANV0UD46Gk9NG490/jM1m4djsDOgK2SeMFV5QVHP9AiGkADogG91Lj9D43PrNfz8j0BO8AOXwugATSABtBAYQ3oBXKfoCO26pSAncICZ1XHqg4NoAE0gAb0kKFxx3uMz6zX8/I9ATvADis6NIAG0AAaKKwBvUDe+Oezjc+s1/PyPQE7hQXOio4VHRpAA2gADegFcp+gI7bqlIAdYIcVHRpAA2gADRTWgB4yNO6caXxmvZ6X7wnYKSxwVnSs6NAAGkADaEAvkPsEHbFVpwTsADus6NAAGkADaKCwBvSQofHTc4zPrNfz8j0BO4UFzoqOFR0aQANoAA3oBfLGXX9sfGa9npfvCdgBdljRoQE0gAbQQGEN6AVyn6AjtuqUgJ3CAmdFx4oODaABNIAG9JCh8a/vNT6zXs/L9wTsADus6NAAGkADaKCwBvQCeWPJ+4zPrNfz8j0BO4UFzoqOFR0aQANoAA3oBXKfoCO26pSAHWCHFR0aQANoAA0U1oAeMjSWnmt8Zr2el+8J2CkscFZ0rOjQABpAA2hAL5A37vmA8Zn1el6+J2AH2GFFhwbQABpAA4U1oBfIfYKO2KpTAnYKC5wVHSs6NIAG0AAa0EOGxr2zjM+s1/PyPQE7wA4rOjSABtAAGiisAb1A7hN0xFadErBTWOCs6FjRoQE0gAbQgB4yNO77E+Mz6/W8fE/ADrDDig4NoAE0gAYKa0AvkDeWfcj4zHo9L98TsFNY4KzoWNGhATSABtCAXiD3CTpiq04J2AF2WNGhATSABtBAYQ3oIUNj+XnGZ9brefmegJ3CAmdFx4oODaABNIAG9AJ544GPGJ9Zr+flewJ2gB1WdGgADaABNFBYA3qB3CfoiK06JWCnsMBZ0bGiQwNoAA2gAT1kaKw43/jMej0v3xOwA+ywokMDaAANoIHCGtAL5D5BR2zVKQE7hQXOio4VHRpAA2gADeghQ+PBPzU+s17Py/cE7AA7rOjQABpAA2igsAb0Annj3z5qfGa9npfvCdgpLHBWdKzo0AAaQANoQC+Q+wQdsVWnBOwAO6zo0AAaQANooLAG9JCh8T//zPjMej0v3xOwU1jgrOhY0aEBNIAG0IBeIG889HHjM+v1vHxPwA6ww4oODaABNIAGCmtAL5D7BB2xVacE7BQWOCs6VnRoAA2gATSghwyNn/258Zn1el6+J2AH2GFFhwbQABpAA4U1oBfIfYKO2KpTAnYKC5wVHSs6NIAG0AAa0EOGxs8/YXxmvZ6X7wnYAXZY0aEBNIAG0EBhDegF8sbK/9f4zHo9L98TsFNY4KzoWNGhATSABtCAXiD3CTpiq04J2AF2WNGhATSABtBAYQ3oIUNj1SeNz6zX8/I9ATuFBc6KjhUdGkADaAAN6AXyxsOfMj6zXs/L9wTsADus6NAAGkADaKCwBvQCuU/QEVt1SsBOYYGzomNFhwbQABpAA3rI0Pjlp43PrNfz8j0BO8AOKzo0gAbQABoorAG9QO4TdMRWnRKwU1jgrOhY0aEBNIAG0IAeMjRWX2B8Zr2el+8J2AF2WNGhATSABtBAYQ3oBfLGIxcan1mv5+V7AnYKC5wVHSs6NIAG0AAa0AvkPkFHbNUpATvADis6NIAG0AAaKKwBPWRoPPIZ4zPr9bx8T8BOYYGzomNFhwbQABpAA3qBvPHvnzU+s17Py/cE7AA7rOjQABpAA2igsAb0ArlP0BFbdUrATmGBs6JjRYcG0AAaQAN6yNB49CLjM+v1vHxPwA6ww4oODaABNIAGCmtAL5D7BB2xVacE7BQWOCs6VnRoAA2gATSghwyNR//S+Mx6PS/fE7AD7LCiQwNoAA2ggcIa0AvkjccuNj6zXs/L9wTsFBY4KzpWdGgADaABNKAXyH2CjtiqUwJ2gB1WdGgADaABNFBYA3rI0Pj1543PrNfz8j0BO4UFzoqOFR0aQANoAA3oBfLGr//K+Mx6PS/fE7AD7LCiQwNoAA2ggcIa0AvkPkFHbNUpATuFBc6KjhUdGkADaAAN6CFDY80XjM/cT8+HhoaM5F133bUnM7vvvnvSTtp2Stb+a1/7Wmc1ez97dFY2xnT2lteqUDkvBV4KaAANoAE0EJsGCgXEQo0aa75kfOYinRgZGWnCyuTJk5vnY7FlwWTSpEnNdps2bWprausdf/zxzXrZSrZO9pitZ6+BHXZ22L5GA2gADaCBwhqw4TT80SfoiK0iycJFuq2UzZ07N13Udr5o0aIEXNI38mxJeTrl1UvX6XbearFb7b7ux0bzfB5WqGgADaABNNBXYOypcWPtpcZn7sn5q5UFPJYuXdrSdOedd24DmZYK8jXSq197pcsff/zxtnZS7+qrr05XM/vuu6+zXkulLhfATmGa5yXHSw4NoAE0gAa6RFmPt32CjtjqNW3ZsqUNOsTGihUrnOVp+wIxsruTTVK+Zs2aZrFcZ9Nzzz3XZl/qTZs2LSl/3eteZx588MFss5brdqstt31e8FLgpYAG0AAaQAOxacBnnOxsq/H4XxufWYDBlfN6sXDhwjbosHVdkGLvyVHub968OV2UnEv5nDlzkvMHHnhgzPalnUDW1q1bzcyZM5ufo83BqwXADjs7fFePBtAAGkADhTWQF179lzce/7LxmZctW2ZcOa/nCxYsGDOMZG0InGzbti1bnNibPXt2Un7fffcVti8GxEdeyr+T16JweWw0z+dhhYoG0AAaQAOFg2LPDX2CjtjqNa1bt84JFGvXrnWWp+0LiCxZsiRdlJxLuQCXpNHRUacd+xtgbY0zBWJr6tSpmdLtl8BOYZrnJcdLDg2gATSABpyxNUhh4z/+xvjMRTopQLFx48aWphMnTnRCSrqStNtjjz3SRabRaLS1k3orV65sqfeHf/iHbfVaKrx6IW3PPPNM1y3+zg4PIFhyRwAAEptJREFUKi9rNIAG0AAaKK4BZ2wNUth44ivGZy7SSQGKHXfcsaWplOXtqNiKs2bNagOW3Xbbra1MbElOJ1dZ+r49l3oCUK7UatFVw1sZD1Pxh4mxY+zQABpAA9XUgLcg2dWQT9ARW0XS4sWLExiZPn262bBhQwI+WTgRu3ll48aNM+vXr2/+UPG8efNaumF/SPm4444zL774otlll13abNk+WAiyx7322qvFVvoC2OFrLH4wEQ2gATSABgprIB1Sw543nviq8ZmL9nb58uUJgFjIcNlxwY7Us23keNttt7mamtWrV7fUk5/lyabPfe5zzTr777+/kb/Z0ykBO4UFziqrmqss5oV5QQNoQFMDnUKs33s+QUds1SkBO8AOKzo0gAbQABoorAE9ZGg8Ocf4zHo9L98TsFNY4JorB3yxUkUDaAANVFMDioF83d8a4zMrdr1sV8AOsMOKDg2gATSABgprQDGM+wQdsVWjBOwUFjirrGquspgX5gUNoAFNDSgSw7q5xvjMil0v2xWwA+ywokMDaAANoIHCGlAM47+53BifWbHrZbsCdgoLXHPlgC9WqmgADaCBampAMYz7BB2xVaME7AA7rOjQABpAA2igsAYUieE3f2eMz6zY9bJdATuFBc4qq5qrLOaFeUEDaEBTA4ph3CfoiK0aJWAH2GFFhwbQABpAA4U1oEgMT80zxmdW7HrZroCdwgLXXDngi5UqGkADaKCaGlAM409/3RifWbHrZbsCdoAdVnRoAA2gATRQWAOKYdwn6IitGiVgp7DAWWVVc5XFvDAvaAANaGpAkRie/ntjfGbFrpftCtgBdljRoQE0gAbQQGENKIbxZ640xmdW7HrZroCdwgLXXDngi5UqGkADaKCaGlAM4z5BR2zVKAE7wA4rOjSABtAAGiisAUViePYbxvjMil0v2xWwU1jgrLKqucpiXpgXNIAGNDWgGMZ9go7YqlECdoAdVnRoAA2gATRQWAOKxPDsN43xmRW7XrYrYKewwDVXDvhipYoG0AAaqKYGFMP4c98yxmdW7HrZroAdYIcVHRpAA2gADRTWgGIY9wk6YqtGCdgpLHBWWdVcZTEvzAsaQAOaGlAkhue+Y4zPrNj1sl0BO33AzvDwsEnnU0+dwuqoj/HUeEGff/45LXMm86fhFx/9BZ/0c2bPGdP+xjT0+L3yyrK2Z+2JJ26N8HlTDOP/+V1jfGbFrpftCtgpGJzlhTthwhHNB/fll+9LHuxNm+5tloV+mWC/95e9zNtjj/2oOUenn35yMm+MZe9jqTVms2ad2TZHMo+TJ09szqNWX/Azdp3U5x2pGMZ9go7YqlECdgrAzrZtD7S9fOUlKA+3ZF6IY38hao7V0Ue/2Tk/MmerVi1i3go8CxrzJ/Nz6aX/vWV+br/9KudcavQHH92f73q9IxWJ4bffM8ZnVux62a6AnQIv+KlTj3e+aG+55QpnOS/H7i9HjTGSoHnJJR9rCZriV8ola/QBH71rIW9u8soZ497H2PeY5b0j43zWFMP4b+cb4zMrdr1sV2OCnbPPPtuccsopffa1/AfQ1wPd6YHlBVzdeZa5Wbny+jao6TSfvjSDnWK6WLLkO7kgyrNWbEw1tJj3TMlX//HNW5+hsZfmPkFHbNUotcDOuHHjzPjx440cH3300WQYbJktX716dcHhqe6D2evDn/cgi534HuS45u3JJ28DdgrsZvb6jPiqv3jx13KfKZ616j6bee/Ik05y74r70ks5dgqGxCLN1v/AGJ+5SB8GtE0TdgRqJNtkIWfmzJm2yLzhDW9oqdO8kTkZGhoy2VyOCMO8DPIe5M2bt//2QUyfNabPIvN2993fA3YGCHZkJy4PavLKY9LsoH6WvHdkXvmgfs7t/c4EwJCXPkFHbNUoNWFHdm7Sac8993SCTbZeuo09X7ZsmcnmwRZzKzTNmDHV+QK+/vo5zvKYPvsgfxZ50V5wwYeAnQGCHdFbHtTklQ+yRmPpe947EtixUbLgcf3VxvjMBbsxiM1yYefee+91wk5696e3D9wKDIP+ULtetFJ20EEHtQXTQf+ssfR/2rQTnIFT5u3pp+9g3ioKQTI/n/jEuS3zc+21X3bOZSxajeFz1Ocd2Vsk7Kv27641xmfuqzOD1TgXdpYvXw7sdHj5y9/4SD/MU6Yc23Idw8sqxs8gc3b44Yc1A6dcp+cxxs886J9p/fq7kjm6+eYrknl7+OEbkuv777+6OY+D/hlj7H/22Yr3HakY9H2CjtiqUWrCzlh3bMbyNZZ7/OLa2ZGXk32Y7dH1FUmML7FB/kzz51/aNm+D/Hnq0vdDDjmYeeuw+KqqDuy70R63bLk/QkB1R7wgpRuuM8ZnDtLJahptws4ll1xirrnmmo69vOmmm5y7PR0bNW/GBztVfcHQL7SGBtAAGtDSQDPIhT/ZsMAYnzl8jyvjoQk74XukJTz88JJDA2gADaABLQ2Ej55NDz5BR2zVKAE7A7g1zEtM6yWGH7SGBtBANw0oEsPGfzTGZ1bsetmugB1gJ8Lv0Lu9nLhPAEMDaMCXBhTDuE/QEVs1SsAOsAPsoAE0gAbQQGENKBLDxh8a4zMrdr1sV8BOYYH7WhVghxUmGkADaGBwNaAYxp9faIzPrNj1sl0BO8AOKzo0gAbQABoorAHFMO4TdMRWjRKwU1jgrMQGdyXG3DF3aAAN+NKAIjE8v8gYn1mx62W7AnaAHVZ0aAANoAE0UFgDimH8hRuM8ZkVu162K2CnsMB9rQqwwwoTDaABNDC4GlAM4z5BR2zVKAE7wA4rOjSABtAAGiisAUViePFGY3xmxa6X7QrYKSxwVmKDuxJj7pg7NIAGfGlAMYz7BB2xVaME7AA7rOjQABpAA2igsAYUieHFxcb4zIpdL9sVsFNY4L5WBdhhhYkG0AAaGFwNKIbxTTcZ4zMrdr1sV8AOsMOKDg2gATSABgprQDGM+wQdsVWjBOwUFjgrscFdiTF3zB0aQAO+NKBIDJt+bIzPrNj1sl0BO8AOKzo0gAbQABoorAHFMP7Szcb4zIpdL9sVsFNY4L5WBdhhhYkG0AAaGFwNKIZxn6AjtmqUgB1ghxUdGkADaAANFNaAIjG89BNjfGbFrpftCtgpLHBWYoO7EmPumDs0gAZ8aUAxjPsEHbFVowTsADus6NAAGkADaKCwBhSJ4eVbjfGZFbtetitgp7DAfa0KsMMKEw2gATQwuBpQDOOv3GaMz6zY9bJdATvADis6NIAG0AAaKKwBxTDuE3TEVo0SsFNY4KzEBnclxtwxd2gADfjSgCIxvHKHMT6zYtfLdgXsADus6NAAGkADaKCwBhTD+OZ/NsZnVux62a6AncIC97UqwA4rTDSABtDA4GpAMYz7BB2xVaME7AA7rOjQABpAA2igsAYUiWHzncb4zIpdL9sVsFNY4KzEBnclxtwxd2gADfjSgGIY9wk6YqtGCdgBdljRoQE0gAbQQGENKBLDlp8a4zMrdr1sV8BOYYH7WhVghxUmGkADaGBwNaAYxrfcZYzPrNj1sl0BO8AOKzo0gAbQABoorAHFMO4TdMRWjRKwU1jgrMQGdyXG3DF3aAAN+NKAIjFsXWKMz6zY9bJdATvADis6NIAG0AAaKKwBxTC+dakxPrNi18t2BewUFrivVQF2WGGiATSABgZXA4ph3CfoiK0aJWAH2GFFhwbQABpAA4U1oEgM2+42xmdW7HrZroCdwgJnJTa4KzHmjrlDA2jAlwYUw/jIvcb4zIpdL9sVsAPssKJDA2gADaCBwhpQDOM+QUds1SgBO4UF7mtVgB1WmGgADaCBwdWAIjGM3GeMz6zY9bJdATvADis6NIAG0AAaKKwBxTDuE3TEVo0SsFNY4KzEBnclxtwxd2gADfjSgCIxjC4zxmdW7HrZroAdYIcVHRpAA2gADRTWgGIYH11ujM+s2PWyXQE7hQXua1WAHVaYaAANoIHB1YBiGPcJOmKrj/Twww+bOXPmmK1bt/ZkZXR01MydO9c89NBDHds99thj5rLLLjMvv/xyx3p33HGHufLKKzvWkZvADrDDig4NoAE0gAYKa6BrnPVXofGAMT5zgZ6NjIyYoaGhJE+ePLl5PhZTtt2kSZOa7TZt2tTW1NY7/vjjm/Wyla699trmvb333js5HzduXLZa8xrYKSxwVmKDuxJj7pg7NIAGfGmgGU/DnzQeNMZnLtBjCyLpplImuzWd0qJFixIgSdfJsyXl6ZRXT8ArnbLtWu6lL8Ke+xIWdnhJoQE0gAbQQFU0EDZytlj3CTpiq0ASoFi6tPW/mth5553bQCZr2gUsjz/+eFs7qXf11Ve3NN93332d9VoqyVdVQ0PmwAMPzBYn16345Kziq7AqwqQfvCTRABpAA2jAlwZ8xcix2PHVZ2tnLD7/q86WLVvaoEPurlixwln+Xy23g4js7mSTAMqaNWuaxXKdTc8991yL/fe///0t17b+oYce6iyX++1WbSvvRzu4HHnJoAE0gAbQQCwa8B4sOxj0O2YCFq6c14GFCxfmw4QDUtJ2xM/mzZvTRcm5lMsPOkt64IEHxmQ/byfpwgsvzG/f5pmCnkZg2bJluYPbkyEqq46APGAyd6TBGgGZN9JgjYDMGfNWzTmTd6Ar5/V2wYIFuXPZbY7l/rZt29pMS/ns2bOT8vvuu29M9nfccUdnvYsuushZLsZ5c7QNfW8FwE5v41WV2vKAATtVmY2x96PbC3XslqipNQIyZ8yb1miH9bNu3TrnXK5du9ZZnu6NaGDJkiXpouRcyu27WH4t3aUV+xtgtvG0adOc9U488URnubQDduzoFTwCOwUHruRm6Qes5K7gvocRcL0Ie2hO1RJGQOaMeSth4AO5dM3lxz/+8a5zLO3OOOOMtl5l7cl1o9FoqSdfc6Xr3XnnnS3XtrLUSdez5XIEdtKjUeAc2CkwaBVoIg+EXU1UoDt0YYwjkPciG2NzqpUwAp0CUAndwWWfIyDzKV8jpZOUTZ06NV3Udj5r1qw2ENltt93aylx6ySvLOpF6ssvkSsCOa1R6KAN2ehisClWVhwLYqdCEjLErMm+kwRoBV6AarE9Ab9MjsHjx4gRQpk+fbjZs2JCAj+u5zCuTP/y3fv16M3PmzMTOvHnz0uabP6R83HHHmRdffNHssssubUAkDeyvo19++eXml7/8ZVLH5dMa581hR4IjI8AIMAKMACPACHQdgeXLlzfhIg8wOpXLPcm33Xab09fq1atb7MvP8rjSDjvs0FLPVceWATt2JDgyAowAI8AIMAKMQJQjAOxEOa18KEaAEWAEGAFGgBGwIwDs2JHgyAgwAowAI8AIMAJRjgCwE+W08qEYAUaAEWAEGAFGwI4AsGNHgiMjwAgwAowAI8AIRDkCwE4f02r/fw77k+UbN27swxpNNUbA/uVNO2caPvFRfASeeeYZM378+JbfuJC5I1V7BC6++OK2OWPeqj1nsfeOt0bBGba/8mabn3baacnDba85VnME5IV75plnNl/E1ewlvbIjcN555xn5exvpBKimR6Oa5z/4wQ/aOsa8tQ0JBYojAOwUHGx5cF966aWW1lJ28MEHt5RxUc0R4MVbzXkZa69k/q655pqxVqdeRUZA5o3ECJQxAiivwKjL/+/hemg/97nPOcsLuKBJ4BEAdgIPcGDzMn/2f0oO7ArzHkfA9d70aB5TjEDuCAA7uUOTfyMvUGb/Z9Z8C9wpewTy5rDsfuG/+wgce+yxLCq6D1Mlatx///3mnnvuMR/96EeTOfvVr35ViX7RifqNALBTYM47BUpWLgUGtIQmneawhO7gsocRYO56GKySq9q5kqP8n0gkRqCsEQB2Coy8fYBdTeUeqfoj0GkOq9/7+vZQ5u3EE0+s7wAM8Cc/66yz2JEb4Pkb9K4TmQvM4E477eR8aJcuXeosL+CCJoFHANgJPMABzDNnAQZV2aTM4Xve8x5lr7hjBIwBdgqowP538tmmsk0rDzOp+iNA4Kz+HKV7yHylR2Nwz2Uep06dOrgfgJ4P7AgQmQtOXfbl+8gjjySgk/df0Rd0Q7NAI5Cdv0BuMNvnCDQajeS52m+//fq0RHPNEVi8eHGbu9///d9nMdg2KhRojQCw08dI24CZPvZhjqYKI5Ceq/T52rVrFbzjotcR2GeffZIAmZ4rey73SNUcATtH2eOqVauq2WF6Ff0IADsepvgXv/iFByuYYAQYAUaAEWAEGIEQIwDshBhVbDICjAAjwAgwAoxAZUYA2KnMVNARRoARYAQYAUaAEQgxAsBOiFHFJiPACDACjAAjwAhUZgSAncpMBR1hBBgBRoARYAQYgRAjAOyEGFVsMgKMACPACDACjEBlRuD/B0olsUkZAZSTAAAAAElFTkSuQmCC;" parent="1" vertex="1">
          <mxGeometry x="240" y="200" width="206.7" height="160" as="geometry" />
        </mxCell>
        <mxCell id="8NRp37ZozChNo-UHmFwA-3" value="" style="shape=image;verticalLabelPosition=bottom;labelBackgroundColor=default;verticalAlign=top;aspect=fixed;imageAspect=0;image=data:image/png,iVBORw0KGgoAAAANSUhEUgAAAikAAAG7CAYAAAAG1QXLAAAgAElEQVR4Ae2dCbhlRXXvz21AwSHPYPKePkQmuc2kIkgHJQzNpIBoiAIxSnDIIxgM+gnPCE+CCaJEgihG1ATSjMFuhibKqJHQDN1MAYVuESF0C42IYWikoQfuPfW+2pd93Gefvc/ZVbV2Vd3qX31fcc6pXbVqnVX/vdev6t7bdBSFCBABIkAEiAARIAIRRqAToU+4RASIABEgAkSACBABBaQgAiJABIgAESACRCDKCAApUS4LThEBIkAEiAARIAJAChogAkSACBABIkAEoowAkBLlsuAUESACRIAIEAEiAKSgASJABIgAESACRCDKCASAlLuUUlRigAZ8aODMzriiTq8YfKEzrqjTLwY+M7y0Pnz6bjoXkAIwAY0JawBAmV6AotdLOgFhz09MTZOvS3/pNXXxpe2xQErCCcrHTp054j4RAlKAFOmEhr1q6Gk7WRft/11nXEnWou3Y3gMpQAonKQlrAEgBUoCKaqiQjovP5C4JKNpWzAVISThBccoR9ymHj/UBUoAU6WSMvWro8Znov9gZV5LVp++mcwEpQAonKQlrAEgBUoCKaqiQjotp8nXp/6XOuJKsLr60PRZISThB+dipM0fcpzVACpAinYyxVw09bSfron1JQNG2Yi5ACpDCSUrCGgBSgBSgohoqpOPiM9Gf1hlXktWn76ZzASkJJyhOOeI+5fCxPkAKkCKdjLFXDT2mydel/1c640qyuvjS9lggBUjhJCVhDQApQApQUQ0V0nFpO1kX7UsCirYVcwFSEk5QPnbqzBH3aQ2QAqRIJ2PsVUOPz0R/emdcSVafvpvOBaQAKZykJKwBIAVIASqqoUI6LqbJ16W/JKBoWzEXICXhBMUpR9ynHD7WB0gBUqSTMfaqocdnoj+jM64kq0/fTecCUoAUTlIS1gCQAqQAFdVQIR0X0+Tr0l/6vnbxpe2xQErCCcrHTp054j6tkX6YYa996JFOntgDUkbdt22Dhot9IAVI4SQlYQ2MejhxvX3oMI0xUOEHKqTj7JKITcd+vTOuJKvp/Hn/TqejinXrrbfOL418LY7L31cNAlISTlCccsR9yuFjfUwTJP3DQ4t08sSeH+ipSrBttUkCirZlU9Zbb70MUPKxK1eu7Puct1e9aih55Stf2Xdp+fLlfZ/zD0AKkMJJSsIaADrCQ4fpGgAVfqBCOs55UvXx+o3OuJKsNj5r0Dj22GP7hg47Eck7XnfddY1hRo8BUhJOUD526swR92mNaYKkf3iokU6e2PMDPXkS9vH6zc64kqw2PmsgKZdLLrlkJIDocdtuu202dPXq1erpp58um+n7PDhL3+U2PsT9UCfpsj4paQDoCA8dpmsAVPiBCuk4t5Et62xKAoq2tXDhwspaN/+iRYsqYWRiYqKyvWhHQ8qpp56a9ctPXvTrHXfcUezWew+kcJLCj3sS1oBpgqR/eKiRTp7Y8wM9vazq4c23OuNKshZhofi+7qucf/75tTCixw8ruf1in80226zeXrGjn/fs1FPaqfNd4tYz0BEeOkzXAKjwAxXScfaTP6dm+U5nXElWU9/vuuuuSqhYtWpVZXvRfhWk6Ou6/cQTTyx2zd4PR56B7hINcT/USbqsT0oaME2Q9A8PNdLJE3t+oEciOza1IQko2pZNqToxOeecc5wgZb/99htwBUhJ+Kg/pWTLd7GDR6AjPHSYrgFQ4QcqpOM8kF1bbPjnzriSrDauakg59NBD+4bqtrGxsb628oePfOQjlSCjx+oTmnIBUoAUficlYQ2YJkj6h4ca6eSJPT/QU06ubX6WBBRty6ZoqNC1WPTnycnJYtNAH31R9+t2u71+r3rVqyr7ZX17vby9sdsRspMmbmjAXANAR3joMF0DoMIPVEjH2VsKVUqd2xkXrba+5/+gWw4sH/7whwdMlUFGd3jiiScyKMnH6dcy3OSG+jEob2311fxBS3IiZmjATgOmCZL+4aFGOnlizw/0tJo2S8bndMaVZC2Zj+ojkJLwUT+J3S6xpxQ3oCM8dJiuAVDhByqk4+wzs0sCirYVcwFSgBR+JyVhDZgmSPqHhxrp5Ik9P9DjM9Gf3xlXktWn76ZzASkJJ6iUTgT4LnanQkBHeOgwXQOgwg9USMfZNPm69L+gM64kq4svbY8FUoAUTlIS1oBpgqR/eKiRTp7Y8wM9bSfron1JQNG2Yi5ASsIJitMHu9OHlOIGdISHDtM1ACr8QIV0nH0m+os640qy+vTddC4gBUjhJCVhDZgmSPqHhxrp5Ik9P9Bjmnxd+ksCirYVcwFSEk5QKZ0I8F3sToWAjvDQYboGQIUfqJCOs89E/6+dcSVZffpuOheQAqRwkpKwBkwTJP3DQ4108sSeH+gxTb4u/b/bGVeS1cWXtscCKQknKE4f7E4fUoob0BEeOkzXAKjwAxXScW47WRftSwKKthVzAVKAFE5SEtaAaYKkf3iokU6e2PMDPT4T/bzOuJKsPn03nQtISThBpXQiwHexOxUCOsJDh+kaABV+oEI6zqbJ16X/ZZ1xJVldfGl7LJACpHCSkrAGTBMk/cNDjXTyxJ4f6Gk7WRftSwKKthVzAVISTlCcPtidPqQUN6AjPHSYrgFQ4QcqpOPsM9Ff0RlXktWn76ZzASlACicpCWvANEHSPzzUSCdP7PmBHtPk69JfElC0rZgLkJJwgkrpRIDvYncqBHSEhw7TNQAq/ECFdJx9JvorO+NKsvr03XQuIAVI4SQlYQ2YJkj6h4ca6eSJPT/QY5p8Xfp/rzOuJKuLL22PBVISTlCcPtidPqQUN6AjPHSYrgFQ4QcqpOPcdrIu2pcEFG0r5gKkCEHKgw9eqc455wucSgjF0xcozJlzirriiq8mu26mCTJE//O3PUAtOO409fX1t1Om8//jq96mbv1/Z6rzxt9lPNZ0Ll/9pZNnW/bmHfopNf/PPqts7M8/8q/V9cedpr4wNrNy/Hd2OkRd/5kvq7l//MnK6zZztj3GZ6K/qjOuJKtP303nAlIck+rExB1qfHw8qx/4wAG9976SLPPYnZbka/be9+6ndtzxLdm6PfHED5ODFV+J1Waer83Ypve8evy2H/feN7F1yawP9Po/8qNFvffFsb3Gl94sOvmsaQEybSdTV/s/v/rGLKITa9ao1b9Zmb1/+uFHG8HEyl8/lfVf+cST6pFb//OllVF9Y/PGZQvuyN9mr65+tz2+z9mWP1zTGVeStWV3ncwDKY6QopPdjju+uZfcXnjh1izhrVx5S68NkLADiTbjptftoYf+rbdGBx20d7Zubc4ZwnYxacf2Pn9yFf3SbS88+fRImND95u72waH9lv3gFnXu5ntnfXR/IEXmxyg6lt+Y+e4eWDxx3wO6qfe5DgYWz72mUb+q8U3sV43z2ZZ9OU//kQQUbSvmAqQ4QMqdd15Umdje8pYdKttDJCnmHASk/BSlHBvdfvbZn++BS/n6dPxcBIDY3usH47zd/7QPNNY+/0L2vBzm688vu25kn/J4PQBIcYeUc3f7YBb7cvLXjT868atDQUX3+clF3xvap2w3/6zH6h8B5Z9jfM0C4+k/13bGlWT15LbVNECKA6TMnv3OShi56qqzKtunY5JL0WcNIyed9IkBGKmDl+kcg3KyjumzfmKV/bn68E9nD7Jye/Gz7vDkkgezsWe9bHt19mvePmCn2F+/1wVIcYeUZ5Y+msWyDAlZ44jTFN0nH2cKHMWxuY3YXvMY+HiVBBRtK+ZSCynbbbedGhsbG6gzZsxw/D6DO9vpmgSGJTV9bbp+r9T91mtz333zBtZn2HpO15iUk3Usn+cf8OfZc6TKH32hqj1v09f1L9qWiz6FyfuUX3VfIMUdUvKYlwFhzXNTv5tSbs8/f22LvbOhy266MzfRe71gv4/24CXv37v40pszN5s90CfvG8tr2ec2P1/fGVeStU1fXW0PQMqzzz6rNIhoQDnxxBPV5ORkb46bbropu6av28MKkDJdE14qfmsYWbbsKiClE+7Pc6/54Gey50oZJvRnXara87b8gZR/1q/z9vjQ0HH6IpDSHqQ8u/xXWfzrgOGcXQ/Ll60PNrov5Ze6cVd+5HOV4+r6h2zvOerhzQ8740qyenDZeooBSNFwcsABBww1+MADDzSClE6no8o1lUSnv0fdznv16oX8uMfhx2hta0Sv2003nQukBISUi3c6JHvGFEFDvz/r5TtUthf75Q+nYpt+r8vtXzy7EnD0NSClPUjJ16QOEr78OztlXf7j5LP6IOW0390la68bl7frTpce9qm+sfm1WF7zGPh4lQQUbSvmMgApTU9INMwsXrzY4rulc5Jy3HEfrYSRv/3bYyrb206+2G+mLQ0p73nPPpWQssceuw60T+e4lhN5TJ/1w6Pszz3fuDB7ppTbi5/zh06xTb/X5WeXXDVgM78GpLhDyk8u1H8R99vfLckBQbeteOSXQyFC9zlv9p8N9Kmyl9vNX3UfXfLPMb6+5KKXlx91xpVk9eK05SROkGI3Z7NEMl0Sg054v/zl9X2JTbcdccQf9bVNl++zLvh51lmfG4DIbvfOgbYUYlFO5DF91s8P/W9tFH3KnynFtvL7uX849Rcm5XY99syxmX328j76GpDiDikaDnQpQ0JVW1Wfcr9f/ufURrfct/xZj7v9GxcOzFvuF/Kz9tFXuWFsXElWX37bzDMAKa94xSuy30dZtWpVrb38d1ZqOwy9kBakzJq1U19y0ztxDSkpJLiUv4Neox122L63TvpziuuWJ+kYX/W/h6JL7ttFO74v+3zpXkf02vS1Yp+8r2578Iof9PplnQq28n75q74OpMhByourVveAIY99ERCq2vJTmDM22X1q7NjMvFvPlv5xkP79laKt51/SSbEtxve9L+PhjSSgaFsxlwFI0c6uv/76vV+eLf+FjxugaOtpQYr+Pocc8q4swaWa6FJcM/2d8vXSr7vtNitJbeZJOtbX4r8cq58OVX4Oa9fXdHnoyn8fGPvsS38u+1KXvpeqeWJpizEBl30qBvM3jz3RBxW6b17K44rXdJ9v7/i+vrFffcMe+dDe65qVz/f1qbIZQ1vPYQ9vbpyxtZKsHly2nqISUnJr733ve/v+BHnDDTdU999/f37Z8jU9SEk1ifO9pr9WY0m8+NH8L6liSLj4YH7qZJkQrYZJAoq2FXMZCintOD79H/wkb9ZwumgAOGgOB7HECkAwB4QYYtZOvqy2umC9rZVkrZ4ljlYgJcEfP02XBIqf7cNeLIkXP5rDUgwJFx/MQclnSr9pva2VZPXpu+lcQAqQkuTvYgBAUwAEHDSHg1hiBSCYA0IMMTNNvi79JQFF24q5AClACpCSsAZiSbz40RyWYki4+GAOSj4T/c3rv0lJVp++m84FpCScoDhNaP/HKbHHGDhoDgexxApAMAeEGGJmmnxd+t+ywZuUZHXxpe2xQAqQwklKwhqIJfHiR3NYiiHh4oM5KLWdrIv2JQFF24q5ACkJJ6jYd/n41/5JD3DQHA5iiRWAYA4IMcTMZ6K/9WVvUpLVp++mcwEpQAonKQlrIJbEix/NYSmGhIsP5qBkmnxd+i96+VZKsrr40vZYICXhBMVJRfsnFbHHGDhoDgexxApAMAeEGGLWdrIu2pcEFG0r5gKkACmcpCSsgVgSL340h6UYEi4+mIOSz0R/28u3UpLVp++mcwEpCSeo2Hf5+Nf+SQ9w0BwOYokVgGAOCDHEzDT5uvSXBBRtK+YCpAApnKQkrIFYEi9+NIelGBIuPpiDks9Ef/uGWynJ6tN307mAlIQTFCcV7Z9UxB5j4KA5HMQSKwDBHBBiiJlp8nXpf8dGWynJ6uJL22OBFCCFk5SENRBL4sWP5rAUQ8LFB3NQajtZF+1LAoq2FXMBUhJOULHv8vGv/ZMe4KA5HMQSKwDBHBBiiJnPRH/nK7ZUktWn76ZzASlACicpCWsglsSLH81hKYaEiw/moGSafF36/+crt1SS1cWXtscCKQknKE4q2j+piD3GwEFzOIglVgCCOSDEELO2k3XRviSgaFsxFyAFSOEkJWENxJJ48aM5LMWQcPHBHJR8Jvq7X7Wlkqw+fTedC0hJOEHFvsvHv/ZPeoCD5nAQS6wABHNAiCFmpsnXpb8koGhbMRcgBUjhJCVhDcSSePGjOSzFkHDxwRyUfCb6e161hZKsPn03nQtISThBcVLR/klF7DEGDprDQSyxAhDMASGGmJkmX5f+P371FkqyuvjS9lggBUjhJCVhDcSSePGjOSzFkHDxwRyU2k7WRfuSgKJtxVyAlIQTVOy7fPxr/6QHOGgOB7HECkAwB4QYYuYz0f/kd7ZQktXF9yVLlqjTTz9drV271sVM7VggBUjhJCVhDcSSePGjOSzFkHDxwRyUarNsCxfu+x+bK8lq62Kn01HFuvXWW480tXTp0r4x+fg5c+ZUjgVSEk5QnFS0f1IRe4yBg+ZwEEusAARzQIghZpUZtqVGSUDRtmxKDhfFsbrtueeeKzYNvM8hZeBCTQOQAqRwkpKwBmJJvPjRHJZiSLj4YA5KNTm2lebFr9lcSVYbJzWQLFiwoG/oRhttlJ2S9DWWPgApCSec2Hft+BffyQ1w0BwOYokVgGAOCDHErJSLW/0oCSjalk3RkFIul1xySWNIWblypbr//vvLJgY+D84y0EW6Ib4HOcmVNUlVA7EkXvxoDksxJFx8MAcl6Uw5zN6S12yuJGv+o5vya50PV199dS2MVMFL0U5+ktJ0LiCFkxd+3JOwBoCD5nAQS6wABHNAiCFmxUTc9vuf/u5mSrIuXLhQVdW673H++edbQ0qVzRxYKq9VNbbbxq491V073ys+bceSePGjOSzFkHDxwRyU2s2b/dYlAUXbMi133XVXJaSsWrWqsn2Uff0nzHUnMJykJLyLBhrigwbfawIcNIeDWGIFIJgDQgwxG5WIJa/fv/FmSrLa+FYFFcccc0wtbAyb44YbbqgdB6QAKfy4J2ENxJJ48aM5LMWQcPHBHJSGJWHpaw+8djMlWW3805By6KGH9g3VbWNjY31tTT7ocVXQo8cCKQknKN+7duaL7+QGOGgOB7HECkAwB4QYYtYkGUv1kQQUbcumbLzxxn1gcffdd/d9zm2W4UN/Pvroo9XTTz+tfvGLX2RjdNtnP/vZfEjfK5ACpHCSkrAGYkm8+NEclmJIuPhgDkp9mbXlDz//vTcqyWrr7m233daDjDKM5DbL7RMTE2rnnXfujTvuuOPyrpWvQErCCYqTjfhONnyvCXDQHA5iiRWAYA4IMcSsMsO21CgJKNpWzAVIAVI4SUlYA7EkXvxoDksxJFx8MAcln4n+wd97o5KsPn03nQtISThB+d61M198JzfAQXM4iCVWAII5IMQQM9Pk69L/od9/o5KsLr60PRZIAVI4SUlYA7EkXvxoDksxJFx8MAeltpN10b4koGhbMRcgJeEExclGfCcbvtcEOGgOB7HECkAwB4QYYuYz0f/X/9xUSVafvpvOBaQAKZykJKyBWBIvfjSHpRgSLj6Yg5Jp8nXpv/R/baokq4svbY8FUhJOUL537cwX38kNcNAcDmKJFYBgDggxxKztZF20Lwko2lbMBUgBUjhJSVgDsSRe/GgOSzEkXHwwByWfiX7Z6zZVktWn76ZzASkJJyhONuI72fC9JsBBcziIJVYAgjkgxBAz0+Tr0v8Xr99USVYXX9oeC6QAKZykJKyBWBIvfjSHpRgSLj6Yg1LbybpoXxJQtK2YC5CScILyvWtnvvhOboCD5nAQS6wABHNAiCFmPhP9I69/g5KsPn03nQtIAVI4SUlYA7EkXvxoDksxJFx8MAcl0+Tr0l8SULStmAuQknCC4mQjvpMN32sCHDSHg1hidVpnXFGnXwx8JvpH//cblGT16bvpXEAKkMJJSsIaiCXx4kdzWAJQph+g6DXzWZa/YVMlWX36bjoXkJJwgvK9a2e++E5ugIPmcBBLrIAUIGVUIpcEFG0r5gKkACmcpCSsgVgSL340hyUgBUgZBQ2PvXFTJVlHzRfyOpCScILiZCO+kw3fawIcNIeDWGIFpAApo6Dgl5ttqiTrqPlCXgdSgBROUhLWQCyJFz+awxKQAqSMggJJQNG2Yi5ASsIJyveunfniO7kBDprDQSyxAlKAlFHQ8Mst3qgk66j5Ql4HUoAUTlIS1kAsiRc/msMSkAKkjIICSUDRtmIuQErCCYqTjfhONnyvCXDQHA5iiRWQAqSMgobHt3qjkqyj5gt5HUgBUjhJSVgDsSRe/GgOS0AKkDIKCn71ps2UZB01X8jrQErCCcr3rp354ju5AQ6aw0EssQJSgJRRUCAJKNpWzAVIAVI4SUlYA7EkXvxoDktACpAyChqeGN9MSdZR84W8DqQknKA42YjvZMP3mgAHzeEgllgBKUDKKCh4YubmSrKOmi/kdSAFSOEkJWENxJJ48aM5LAEpQMooKJAEFG0r5gKkJJygfO/amS++kxvgoDkcxBIrIAVIGQUNv952cyVZR80X8jqQAqRwkpKwBmJJvPjRHJaAFCBlFBRIAoq2FXMBUhJOUJxsxHey4XtNgIPmcBBLrIAUIGUUNPz39lsoyTpqvpDXgRQghZOUhDUQS+LFj+awBKQAKaOg4MkdtlCSddR8Ia8DKQknKN+7duaL7+QGOGgOB7HECkgBUkZBgSSgaFsxFyAFSOEkJWENxJJ48aM5LAEpQMooaHjqLVsoyTpqvpDXgZSEExQnG/GdbPheE+CgORzEEisgBUgZBQVP7bilkqyj5gt5HUgBUjhJSVgDsSRe/GgOS0AKkDIKCiQBRduKuQApCSco37t25ovv5AY4aA4HscQKSAFSRkHD02/bUknWUfOFvA6kACmcpCSsgVgSL340hyUgBUgZBQWSgKJtxVyAlIQTFCcb8Z1s+F4T4KA5HMQSKyAFSBkFDc/svJWSrKPmC3kdSAFSOElJWAOxJF78aA5LQAqQMgoKVuyylZKso+YLeR1ISThB+d61M198JzfAQXM4iCVWQAqQMgoKJAFF24q5AClACicpCWsglsSLH81hCUgBUkZBw7Oz3qQk66j5Ql4HUhJOUJxsxHey4XtNgIPmcBBLrIAUIGUUFDy765uUZB01X8jrQAqQwklKwhqIJfHiR3NYAlKAlFFQIAko2lbMBUhJOEH53rUzX3wnN8BBcziIJVZACpAyChp+8443Kck6ar6Q14EUIIWTlIQ1EEvixY/msASkACmjoEASULStmAuQknCC4mQjvpMN32sCHDSHg1hiBaQAKaOg4bndtlaSddR8Ia8DKUAKJykJayCWxIsfzWEJSAFSRkHByt23VpJ11HwhrwMpCSco37t25ovv5AY4aA4HscQKSAFSRkGBJKBoWzEXIAVI4SQlYQ3EknjxozksASlAyihoWLnHuJKso+YLeR1ISThBcbIR38mG7zUBDprDQSyxAlKAlFFQ8Pxe40qyjpov5HUgBUjhJCVhDcSSePGjOSwBKUDKKCiQBBRtK+YCpCScoHzv2pkvvpMb4KA5HMQSKyAFSBkFDS/sPVNJ1lHzhbwOpAApnKQkrIFYEi9+NIclIAVIGQUFq/aZqSTrqPlCXgdSEk5QnGzEd7Lhe02Ag+ZwEEusgBQgZRQUSAKKthVzAVKAFE5SEtZALIkXP5rDEpACpIyChtX7baMk66j5hl3vdDpK11e/+tXDutVey8fXdQBSEk5QvnftzBffyQ1w0BwOYokVkAKk1CXsvF0SULQtm3LiiSdmcHLmmWdmw8fHx7PPJra+/OUvqxkzZgwdB6QAKZykJKyBWBIvfjSHJSAFSBmV6Ffvv42SrKPmq7pedQKi284444yq7pVtuv/SpUuBlLZ3+Jogi3X//fcg8Uee+I866vC+NdPr17ZOQtiPHQ7KT66nH3hYNfW5PFZ/Lo4tX1908ll914t9Y3ofO6T8w4ZvLodWfWvzvVUTv7+91b4DY3VDPvZ7Hzq+8vo3N92z1yfvG9trpeMtNa559zZKstq4qQFj7dq1fUP32WefocBR7KzHH3LIIUBK24lBJ7cdd9Q37dRR/wsv3Jolv5Urb+m15dd4jefHIXrdHnro33prdNBBe2frltoaxZR8y77kD6xiu2574cmnR8KE7jd3tw8O7bfsB7eoczffO+uj+wMpMicUOpb/NPPdPWj49X0P6Kbe5zp4uH/uNSP7aUgpj794jw+NHFceE+Jz5qSn/0gCirZlWh566KFKGHnssccq28v2P/nJT6r1118/a+YkpcUd/Ysv3l6Z2PJTldQSXirfZ5dd3la7bosXX9oDlxS+bxEAYnuvn1B3f+38PtDIH2bDfL1i/49l3Yb1KV/TA4AUd0j5+/W2zWJfhgDdOOdtfzQAGMV+us+alc8P7VPsX3yvxxY/x/g+C4yn/6w9cFslWfWpRlWt+zpz586thRFtZ1Qp9gFSWoSU2bPfWZnsrrrqrMr2FJJeCt9BQ+RJJ31iAEZShMtyso7ps36Qlf25+vBPZ8+3cnvxs+7w5JIHs7FnvWx7dfZr3j5gp9hfv9cFSHGHlBVLH81iWYaErHEESOg++bg5Ox3Se5+3DXstjh3WL+S1PAY+Xl88aFslWU19vuyyy6wh5RWveIXac889e1MCKS1CyrCkpq+lkNBT/A56be67b97A+gxbz+kah3KyjuXz/AP+PHtIVfmjL1S15236+oLjTus95PI3a59/oXac7gOkuENKHusyDKx5bmV2qdyef/7WFntn1x+56c7cRO/1u/t9dCiwTE5MDLWdzxH6tfeFPLyRBBRty7R0u91KSFmwYEFle27/vPPOy64vWrRI5fWKK67oa8v75q+jz2XynhWv+k+HzEs8v5fgmniGJTUgJd511mvz6KPXAimd5n9xkgOC1Ot1R/zf7NFRZU9fqGrP2/JnTv5Zvz770g6/2FZ8r8cAKe1Byoply7NlqQOFi2VZt1IAACAASURBVHb/03zZ+oAkb6wb99DVN2ZdTn/Z9n3j6vqHbM+/i4/XiYO3U5LVxmf9I5sVK1b0Dd1pp52GQsqcOXOy61U/Wsrb+gwqpVqFlHzS4qsrGMQ0vg5SVq9eyI97WjzBctWAXrebbjoXSAkIKRfvdEj2LCqChH5/1st3qGwv9ssfYsU2/V6X2794diXg6GtASnuQkq9JHSR89Xd2yrrcfPJZfbDxtd/dJWuvGnfn187PrhV/SbeqXyxteQx8vEoCirZlU/K8Xhyr2y6//PJi01Bo0R2tftyjj2ya1FEnKQsXLlTl6ppgYhp/4IGzK2Fk3rzTK9tj8n1d9kVDyvHH61++7D/tqYPOcr/p9LmcyGP6rB9QZX9+8LETswdcub34OX8CFtv0e12WXX/zgM38GpDiDin/vfjnWZzLYJCvSbm9+Fn3OW/nP+6DFH1dl2I//X7hqd/K2qv6l/vG8jlz2NN/Jt63nZKsNm7Pnz8/A5ADDjhAPfPMM2qDDTaoBBINLsOKFaSMjY1l/wqchpBRddjk1df6E8N0euBX+aoTW7ldt82cqf9/CGl911S+z7777l4JkXrdHn/8+qTWrZzIY/qsnw8PzL2mDyryZ8YwPxf/y2VZt3If3ahPaMrt+rMuQIo7pGgg0KUMBrrtm5vsPtBe7Kf7PPGTn/X1uebjU1Ba7HfDS79vpH9EVGyP/X0WGE//mThkeyVZXdzeZJNNMjg5+OCDrcxowDn55JNrx1YijoaUJmXUSUq1jbQS96xZO/UlvD322LXvcyqJPbXvoYFkhx227wGJ/qxrat+zKmHH0qb/PRRdcn8u2vF92edL9zqi15YDRt4nf9UdH7ziB71+2cCCrbxf/qqvAylykPLiqtU9gMhjX4SIqrbFF+p/l6gAM2O//R/b5WOvPPRTWZ8L/uBQVa6x/15K/p19vEoCirYVc6mEFA0fTz311Ei/gZQp4MoTXP5a9aOE1JLfdP8+c+ackkFJvmYpAopeozxJx/o6+eKLfc+Zn15w5YDPukPZ/2///q5947I+YzP7+uW/TDvQscJe2X7Iz3nCjvm1HNMyQOTXy99h6b8vzC9lr93JyR7s6L73zun/fYZi57M3m93Xt2w79Oeir22/n3j/9kqytu2vi/1KSHnNa16j3vrWt460u2zZspF9BjukdZIy3ZM1/qetx5DJlrnt/noqdLJlfrsTp8Fc117LxKE7KMnanqfulishxd3sMAtpJwWSPusbkwYABTtQCBk3IMEOEkLHbVjWk74mCSjaVswFSOGXW5P7PYyYICG0LyGTLXPbAVLoZMv8dpDkM9FPHL6Dkqw+fTedC0gBUoCUhDUAKNiBQsi4AQl2kBA6bqbJ16W/JKBoWzEXICXhBBV6F8/84X/0FTLZMrcdIIVOtsxvB0k+E/3EB9+sJKtP303nAlKAFE5SEtYAoGAHCiHjBiTYQULouJkmX5f+Ex96i5KsLr60PRZISThBcZIR/iQj9BqETLbMbQdIoZMt89tBUtvJumhfElC0rZgLkAKkcJKSsAYABTtQCBk3IMEOEkLHzWeinzjiLUqy+vTddC4gJeEEFXoXz/zhT3JCJlvmtgOk0MmW+e0gyTT5uvSfOPKtSrK6+NL2WCAFSOEkJWENAAp2oBAybkCCHSSEjlvbybpoXxJQtK2YC5CScILiJCP8SUboNQiZbJnbDpBCJ1vmt4Mkn4l+4qNvVZLVp++mcwEpQAonKQlrAFCwA4WQcQMS7CAhdNxMk69Lf0lA0bZiLkBKwgkq9C6e+cOf5IRMtsxtB0ihky3z20GSz0Q/8fEdlWT16bvpXEAKkMJJSsIaABTsQCFk3IAEO0gIHTfT5OvSf+LPd1SS1cWXtscCKQknKE4ywp9khF6DkMmWue0AKXSyZX47SGo7WRftSwKKthVzAVKAFE5SEtYAoGAHCiHjBiTYQULouPlM9BNHvU1JVp++m84FpCScoELv4pk//ElOyGTL3HaAFDrZMr8dJJkmX5f+E0fvpCSriy9tjwVSgBROUhLWAKBgBwoh4wYk2EFC6Li1nayL9iUBRduKuQApCScoTjLCn2SEXoOQyZa57QApdLJlfjtI8pnoJ/5yJyVZffpuOheQAqRwkpKwBgAFO1AIGTcgwQ4SQsfNNPm69J/45M5Ksrr40vZYICXhBBV6F8/84U9yQiZb5rYDpNDJlvntIKntZF20Lwko2lbMBUgBUjhJSVgDgIIdKISMG5BgBwmh4+Yz0U8eu7OSrD59N50LSEk4QXGSEf4kI/QahEy2zG0HSKGTLfPbQZJp8nXpLwko2lbMBUgBUjhJSVgDgIIdKISMG5BgBwmh4+Yz0U9++u1Ksvr03XQuICXhBBV6F8/84U9yQiZb5rYDpNDJlvntIMk0+br0n/zM25VkdfGl7bFACpDCSUrCGgAU7EAhZNyABDtICB23tpN10b4koGhbMRcgJeEExUlG+JOM0GsQMtkytx0ghU62zG8HST4T/eTxuyjJ6tN307mAFCCFk5SENQAo2IFCyLgBCXaQEDpupsnXpf/kZ2cpyeriS9tjgZSEE1ToXTzzhz/JCZlsmdsOkEInW+a3g6S2k3XRviSgaFsxFyAFSOEkJWENAAp2oBAybkCCHSSEjpvPRD/5uVlKsvr03XQuICXhBMVJRviTjNBrEDLZMrcdIIVOtsxvB0mmydelvySgaFsxFyAFSOEkJWENAAp2oBAybkCCHSSEjpvPRD954h8oyerTd9O5gJSEE1ToXTzzhz/JCZlsmdsOkEInW+a3gyTT5OvSf/Lzf6Akq4svbY8FUoAUTlIS1gCgYAcKIeMGJNhBQui4tZ2si/YlAUXbirkAKQknKE4ywp9khF6DkMmWue0AKXSyZX47SPKZ6Cf/ZlclWX36bjoXkAKkcJKSsAYABTtQCBk3IMEOEkLHzTT5uvSf/MKuSrK6+NL2WCAl4QQVehfP/OFPckImW+a2A6TQyZb57SCp7WRdtC8JKNpWzAVIAVI4SUlYA4CCHSiEjBuQYAcJoePmM9FP/t07lGT16bvpXEBKwgmKk4zwJxmh1yBksmVuO0AKnWyZ3w6STJOvS39JQNG2Yi5ACpDCSUrCGgAU7EAhZNyABDtICB03n4l+8ovvUJLVp++mcwEpCSeo0Lt45g9/khMy2TK3HSCFTrbMbwdJpsnXpf/kl96pJKuLL22PBVKAFE5SEtYAoGAHCiHjBiTYQULouLWdrIv2JQFF24q5ACkJJyhOMsKfZIReg5DJlrntACl0smV+O0jymegnT9tNSVafvpvOBaQAKZykJKwBQMEOFELGDUiwg4TQcTNNvi79J7+ym5KsLr60PRZISThBhd7FM3/4k5yQyZa57QApdLJlfjtIajtZF+1LAoq2FXMBUoAUTlIS1gCgYAcKIeMGJNhBQui4+Uz0k//wh0qy+vTddC4gJeEExUlG+JOM0GsQMtkytx0ghU62zG8HSabJ16W/JKBoWzEXIAVI4SQFDaABNIAGnDXgL9VPfvUPlWT157n5TECKszDZrYc+LWB+NIgG0EB4DZgnYNsRk2furiSrrR8+xgEpQAo7KDSABtAAGnDWgI+UPTWHJKBoWzEXIMVZmOxgwu9gWAPWAA2ggdAa8JfqJ7+2u5Ks/jw3nwlIAVLYQaEBNIAG0ICzBswTsO2Iya/voSSrrR+nnnqq6nQ6vbpixYqRpj784Q/3+udj99xzz9pxQIqzMEPTO/Ozg0QDaAANhNdAbZ4VvyAJKNqWTTnxxBMz2DjzzDOz4ePj49nnUbYOP/xwdcwxx/S6fe5zn+tBS6+x8AZIAVLYQaEBNIAG0ICzBgqZteW3k2ftoSSrjbv6FOS1r31t31Ddts022/S1Nfmw+eab1wIOkOIsTHYw4XcwrAFrgAbQQGgNNEnHMn0mv7Gnkqw2XmkgKZcTTjihFjbKfYufX/3qV9eOG5ylOLKV96GFxPw8zNAAGkADaEBaA60kzEqjkoCibZmWhx56qBIqHnvsscr2YfbXrFmTjak7gQFSOEnhmBcNoAE0gAacNTAsFctem/zmnkqy5r/AWn6t8/qiiy6qhZGqE5YqO8W59ttvv6ouWRuQ4ixMaRrHHjs8NIAG0MD000BtnhW/IAko2pZpueyyy5whpThnDizFtvw9kAKksINCA2gADaABZw3kabX918mz91KS1dTjbrdbCSkLFiyobB9l/8knn6wdB6Q4C5Mdz/Tb8bBmrBkaQAPSGhiViuWuT35rLyVZbTzTpx/6RKVYxsbGamGj2K/8vg56dD8gBUhhB4UG0AAaQAPOGiin3vY+SwKKtmVTqn5Eo9suv/zyPnO6bVQZBjejR4+ybnxdml6xx44IDaABNIAGQmvAOBlaD5j89mwlWW0dyUGl+Fq2VYaUYt/i++XLl5eHZp+BFGd6Dn1jMD8PZzSABtBAeA1U5thWGie/M1tJVlcn7733XlcTteOBFCCFY140gAbQABpw1kBtnhW/IAko2lbMBUhxFiY7mPA7GNaANUADaCC0Bvyl+sl/2ltJVn+em88EpAAp7KDQABpAA2jAWQPmCdh2hCSgaFsxFyDFWZih6Z352UGiATSABsJrwF+qnzxnbyVZ/XluPhOQAqSwg0IDaAANoAFnDZgnYNsRk+fuoySrrR8+xgEpzsJkBxN+B8MasAZoAA2E1oCPlD01hySgaFsxFyAFSGEHhQbQABpAA84a8JfqJ/9lHyVZ/XluPhOQ4izM0PTO/Owg0QAaQAPhNWCegG1HSAKKthVzAVKAFHZQaAANoAE04KwBf6l+cs6+SrL689x8JiDFWZjsYMLvYFgD1gANoIHQGjBPwLYjuuftqySrrR8+xgEpQAo7KDSABtAAGnDWgI+UPTWHJKBoWzEXIMVZmKHpnfnZQaIBNIAGwmvAX6rvnr+fkqz+PDefCUgBUthBoQE0gAbQgLMGzBOw7YjuBfspyWrrh49xQIqzMNnBhN/BsAasARpAA6E14CNlT80hCSjaVswFSAFS2EGhATSABtCAswb8pfruRfsryerPc/OZgBRnYYamd+ZnB4kG0AAaCK8B8wRsO0ISULStmAuQAqSwg0IDaAANoAFnDfhL9d2L91eS1Z/n5jMBKc7CZAcTfgfDGrAGaAANhNaAeQK2HdH913cpyWrrh49xQAqQwg4KDaABNIAGnDXgI2VPzSEJKNpWzAVIcRZmaHpnfnaQaAANoIHwGvCX6ruXvEtJVn+em88EpAAp7KDQABpAA2jAWQPmCdh2RPe771aS1dYPH+OAFGdhsoMJv4NhDVgDNIAGQmvAR8qemkMSULStmAuQAqSwg0IDaAANoAFnDfhL9d2571aS1Z/n5jMBKc7CDE3vzM8OEg2gATQQXgPmCdh2hCSgaFsxFyAFSGEHhQbQABpAA84a8Jfqu5ceoCSrP8/NZwJSnIXJDib8DoY1YA3QABoIrQHzBGw7onvZAUqy2vrhYxyQAqSwg0IDaAANoAFnDfhI2VNzSAKKthVzAVKchRma3pmfHSQaQANoILwG/KX67uUHKsnqz3PzmYAUAUgZHx9Xxbr//nuwKxGIa5sPnaOOOrxvzfT6tTkftmWSaPE+y98TW5nYthXHVasWDtxrjzxyTYL3m3kCth3RveJAJVlt/fAxDkhxTKbbbrtNdgPmN/jHPvaBvs95O69xPUh1gtt77916D0oSXlzrU3W/3H//5dm99cgjV2fr9vzzt2SfL7roS711rBpHW9i1Ld9b6T4jfaTsqTkkAUXbirkAKQ6Q8uKLt1cCSfmm5CEZ9iFZjv8uu7ytdt0WL76UhOdwT5RjLflZ31ennPJXfetz3XVnV66l5LzYsr9/161npL9U351/kJKs/jw3nwlIcXgg/8Vf/EnlA/KMM46vbOdhZ/+wk4ydTnZ/8ifv6Ut22r5uf/vbdxxol5wbW/Ya0OtTFb+69qq+tNnH3yZ2dc9IvWbprZt5ArYdIQko2lbMBUhxgJS6G21i4o4Eb0C/DzebB2LTMXrdFi48fyDh1a1nU7v0a08j99xzSe09lV6yay+OvjVad0/Vtfv2T3Y+f6m+e+VBSrL689x8pkpIGRsbUzNmzMiqfj9v3rwBy/q6XUn/BtTC58EZ7zrrtXn00WuBFAdAl324j9bK/Plfrb2nuNdGx8/3euXz1cHIXnu9s3Y987HT79UuI9qM6n7vPUqy2vjga8wApGyxxRYZnMyfP189//zzKgeW1atX9/nUBFI6nY4q1+knvPoHQN0NqL8jD876uIXWgF6bH//4u0DKNIKUm2/+l9p7inst7nutan122GH72vUM/Xywn78vRbb6QRJQtK2YywCkVMHHkiVLMnDZZZddet+lql/v4tA38d5QpuI88MDZlTfavHmnV7ab2qd/O1rRD83jj/8YkDKNIEXfC1XJblg79087949JXOuekXot69bTxH5cfYcmPtGL3e8frCSrqHPCxhpBip7zN7/5TQYq2223XeYCkDL1AKi60XTbzJkzB5JgXDdU+AdYqHjsu+/ulQ9IvW6PP3496xYpvOj1OfbYI/rW58ILT61cy1DaYt7B58q684wUzs5DzHWveq+SrEOmCn6pMaRoT1944YUMVJYvX5692nk/KOLpfGPrG7B4Ez788Pezz5OTd/Q9TKfzd0zRd71m11zzj7012nnnHfvWMcXvPN2/09/8zScG1kiv43ves09vHaf7d0zR/3XnGWmXEW1GSQKKthVzGYAU/TsoF1xwQa3Pa9euzQCFk5TfwlZ+E+avVT9KSPHhM52/05w5p2QJL18z/Tqdv8+64nv+jyeybr99/kyHtS+ul36/Zs2iBO+32rQpfqF79fuUZBV3UNDgAKScffbZ2S/LDpvjIx/5CCcpFUfiP/vZFQneeNPrYWj6wH7wwSvVE0/8kHWr0LNpLH32/8lP5rJm02zNnn12gUr7GTksa8pekwQUbSvmMgAp7TubdtLz+aBmLrSEBtAAGohFA+1nz3yG7jWHKMma243xFUiZZrsRHkixPJDwAy2iATRQ1IC/FN+97o+VZPXnuflMQAqQwrE5GkADaAANOGvAPAHbjpAEFG0r5gKkOAuzSNK8Z2eFBtAAGlg3NeAv1Xevf7+SrP48N58JSAFS2EGhATSABtCAswbME7DtiO4PDlWS1dYPH+OAFGdhsmtaN3dNrDvrjgbQQFEDPlL21BySgKJtxVyAFCCFHRQaQANoAA04a8Bfqu/+8DAlWf15bj4TkOIszCJJ856dFRpAA2hg3dSAeQK2HSEJKNpWzAVIAVLYQaEBNIAG0ICzBvyl+u6PDleS1Z/n5jMBKc7CZNe0bu6aWHfWHQ2ggaIGzBOw7YjuDR9UktXWDx/jgBQghR0UGkADaAANOGvAR8qemkMSULStmAuQ4izMIknznp0VGkADaGDd1IC/VN/9jz9VktWf5+YzASlACjsoNIAG0AAacNaAeQK2HdG98UNKstr64WMckOIsTHZN6+auiXVn3dEAGihqwEfKnppDElC0Ldty6qmnqk6n06srVqwYaeorX/lKr38+duHChbXjgBQghR0UGkADaAANOGugNs+KX+guOEJJVhsH11tvvQw28rErV67s+5y3l181mKxZs6bXvGrVqmzchhtu2GsrvgFSnIVZJGnes7NCA2gADaybGiim1nbfd2/+MyVZbbzVsPHa1762b6hu22abbframnzIT1Sq+gIpQAo7KDSABtAAGnDWQFWKbadNElC0LZuiwaJcTjjhhEanKeVxQIqz+NgZrZs7I9addUcDaKCpBsqpt73P3VuOVJI1h4Tya903WLRoUSWMTExMVLbX2cnb9bz6x0dVZRCFqnqJtjVdcPrxcEADaAANoIHpogHRRDnUmCSgaFtlOMk/1zlx0UUX1cKIHmtSNthgg1pb2o6ZNZOZa/tOF8HhJw9HNIAG0AAaaKqB2qQnfqF760eVZDV18Prrr68FCxNI2XLLLWvt5D4BKfwoiJ9FowE0gAbQgLMG8rTa/mt34ceUZDX1uNvtVsLFggULKtur7G+//fZZ39WrV1dd7rUBKc7CbErZ9GNHhgbQABpIVwO9vNr6G0lA0bZsij4xueyyy/qGjo2NNYKUXXbZJev33HPP9Y2v+gCkACnsoNAAGkADaMBZA1Uptp227m0fV5LVxsuq31vRbZOTk33myj/+2X///RuBTG4ESHEWJjujdHdGrC1riwbQQFMN5Gm1/dfu7f9HSVZbj3NQKb6WbZUhpdi3/L48Vn8GUoAUdlBoAA2gATTgrIGqFNtOmySgaFuu5d5773U1UTseSHEWZlPKph87MjSABtBAuhqozbPiF7p3HKUkq7iDggaBFCCFHRQaQANoAA04a0AwM48wJQko2lbMBUhxFiY7o3R3Rqwta4sG0EBTDfhL9d07/0JJVn+em88EpAAp7KDQABpAA2jAWQPmCdh2RPeuo5VktfXDxzggxVmYTSmbfuzI0AAaQAPpasBHyp6aQxJQtK2YC5ACpLCDQgNoAA2gAWcN+Ev13bv/UklWf56bzwSkOAuTnVG6OyPWlrVFA2igqQbME7DtiO49xyjJauuHj3FACpDCDgoNoAE0gAacNeAjZU/NIQko2lbMBUhxFmZTyqYfOzI0gAbQQLoa8Jfquz/+pJKs/jw3nwlIAVLYQaEBNIAG0ICzBswTsO0ISUDRtmIuQIqzMNkZpbszYm1ZWzSABppqwF+q7/7kWCVZ/XluPhOQAqSwg0IDaAANoAFnDZgnYNsR3fs+pSSrrR8+xgEpzsJsStn0Y0eGBtAAGkhXAz5S9tQckoCibcVcgBQghR0UGkADaAANOGvAX6rvLv60kqz+PDefCUhxFiY7o3R3Rqwta4sG0EBTDZgnYNsR3SWfUZLV1g8f44AUIIUdFBpAA2gADThrwEfKnppDElC0rZgLkOIszKaUTT92ZGgADaCBdDXgL9V3f3qckqz+PDefCUgBUthBoQE0gAbQgLMGzBOw7QhJQNG2Yi5AirMw2RmluzNibVlbNIAGmmrAX6rv3n+8kqz+PDefCUgBUthBoQE0gAbQgLMGzBOw7YjuA59VktXWDx/jgBRnYTalbPqxI0MDaAANpKsBHyl7ag5JQNG2Yi5ACpDCDgoNoAE0gAacNeAv1Xcf+GslWf15bj4TkOIsTHZG6e6MWFvWFg2ggaYaME/AtiO6P/+ckqy2fvgYB6QAKeyg0AAaQANowFkDPlL21BySgKJtxVyAFGdhNqVs+rEjQwNoAA2kqwF/qb774IlKsvrz3HwmIAVIYQeFBtAAGkADzhowT8C2IyQBRduKuQApzsJkZ5Tuzoi1ZW3RABpoqgF/qb774P9TktWf5+YzASlACjsoNIAG0AAacNaAeQK2HdF96PNKstr64WMckOIszKaUTT92ZGgADaCBdDXgI2VPzSEJKNpWzAVIAVLYQaEBNIAG0ICzBvyl+u5//Y2SrP48N58JSHEWJjujdHdGrC1riwbQQFMNmCdg2xHd/zpZSVZbP3yMA1KAFHZQaAANoAE04KwBHyl7ag5JQNG2Yi5AirMwm1I2/diRoQE0gAbS1YC/VN99+AtKsvrz3HwmIAVIYQeFBtAAGkADzhowT8C2I7oP/52SrLZ++BgHpDgLk51Rujsj1pa1RQNooKkGfKTsqTkkAUXbirkAKUAKOyg0gAbQABpw1oC/VN9deoqSrP48N58JSHEWZlPKph87MjSABtBAuhowT8C2IyQBRduKuQApQAo7KDSABtAAGnDWgL9U3132RSVZ/XluPhOQ4ixMdkbp7oxYW9YWDaCBphowT8C2I7rLTlWS1dYPH+OAFCCFHRQaQANoAA04a8BHyp6aQxJQtK2YC5DiLMymlE0/dmRoAA2ggXQ14C/Vd3/xZSVZ/XluPhOQAqSwg0IDaAANoAFnDZgnYNsR3UdOU5LV1g8f44AUZ2GyM0p3Z8TasrZoAA001YCPlD01hySgaFsxFyAFSGEHhQbQABpAA84a8Jfqu4/8vZKs/jw3nwlIcRZmU8qmHzsyNIAG0EC6GjBPwLYjJAFF24q5AClACjsoNIAG0AAacNaAv1TfffR0JVn9eW4+E5DiLEx2RunujFhb1hYNoIGmGjBPwNYjlv+DUpLV2pH2BwIpQAo7KDSABtAAGnDWQPsJuzeDJKBoWxEXIMVZmE0pm37syNAAGkAD6WrAY6ZffoZSktWj66ZTASlACjsoNIAG0AAacNaAafp16P/YmUpJVgdX2h4KpDgLk51Rujsj1pa1RQNooKkG2k7XBfuSgKJtRVyAFCCFHRQaQANoAA04a8Bjpn/sa0pJVo+um04FpDgLsyll048dGRpAA2ggXQ2Ypl+H/pKAom05lCVLlqjTTz9drV271sFK/VAgBUhhB4UG0AAaQAPOGqhPtOJXfvl1pSSrhYMTExOq0+lkddasWb33o0w988wzvb75+GFjgBRnYbIzSndnxNqytmgADTTVwLBUK3zt8W8oJVkt3KsCDN323HPPDbW2YsUKdcMNN2R9qmyUBwMpQAo7KDSABtAAGnDWQDm9tvhZElC0LYuiAWPBggV9IzfaaKPslKSvccgHIMVZdE0Jmn7sttAAGkAD67YGhmRj6UuP/6NSktXCPw0Y5XLJJZcAKev2TcBDkPVHA2gADcSpgXLKbvHzr76plGDNTzTKr3Xf4Oqrr66FkSp4qbOTz1d3XbcPotCw3iLXuMHivMFYF9YFDaABNGCvAZEE2cyIIKBo2Fm4cGFlrXPm4osvBlLshcJNRuzQABpAA2jAtwbqUnoL7U98SynJaujiXXfdVQkpq1atqmyvM89JCr+Twi/DoQE0gAbQgBcN1KXiFtolAUXbsihVP9Y55phjgBR2B753B8yH5tAAGkADozVgkelthzzxbaUkq4UfGlI22GCDvpG6bfbs2X1twz5wjwWr+gAADwBJREFUkuKFnrl5R9+8xIgYoQE0kLoGhqVj4Wu//o5SktXCvY033rjv1OTuu+/u+5ybrDpxKV4bdl334xdnARmOgtEAGkADaMBZA3nq9fAqCSjalmW57bbbMjAZdiJSBSF5//JrlRtAirMwU98d8P3YAaMBNIAGRmugKsW21Pbrf1ZKsrbkpoRZIEUAUsbHx1Wx7r//HuxKBOI6+qFg/+A86qjD+9ZMr1+b82Hbfq2KsSveZ/n74nXey8RZMo6rVi0cuNceeeSaBO83iZTc0MZ/n6OUZG04bYhuQIpjMtUPyh13fHPvhnvhhVuzG3Llylt6bZI3PLZkHsJ63R566N96a3TQQXtn60Z8ZeLbRhyPPPKQgTXS6zhr1k69dWxjXmy6aWLdeUZ6TOGSgKJtRVyAFAdIefHF2wcemvqBpm9KXXm4uT3c2orfLru8rXJ99JotXnwp6+ZwT7S1Zvl9dcopf9W3Ptddd3blWrbpB7ab39fr1jPSY6Z/8lylJKtH102nAlIcHsizZ7+z8gF51VVnVbbzcGv+cGszVhpGTjrpE33JTs8HXMaxPnVrXwf+de11dmj3t851z8g07zXT9OvQ/8k5SklWB1faHmoEKYceeqjaZ599HH3yd4O0/TAadqPx4Ix3nfXa3HffPCDFAdDbvrfK9m+88Z9rwZ97Le57rWp99I/Iq9rL6z69PjumRpPhkoCibUVcKiFlbGxMzZgxQ+nXBx98MHM/b8vb77//fsuvFe8NZXpD6Jus7karazedg/7yetFr8+ij1wIp0whS5s//KvfaNFqv/LlV94zca6/qU+h83PR8tUyJNsOeOk8pyWrjg6cxA5CiYUTXvORwcthhh+VN6vWvf31fn96F0pvy30BP/b20fNIJJei6G3D16qnfZg/lF/MO15het5tuOhdImUZJT5986XWr0nZde1Vf2obfG9LxqXtG1rVLz+/XXikBtvlRElC0rYjLAKTok5Ji2WSTTSqBpNyvOCZ/X/V/VvQrmnZvyAMPnF354Jw37/TK9pS++3T+LvoBefzxHxtIeGk+ONu9B3zqQK9P1Xx17VV9afOrh7pnZJr3Wp75PLw+db5SktWDy7ZTjISUW265pRJSiqctZpP7vUnafihVPSB128yZMysfqG37g/3R+tp3390rIVKv2+OPX8+6RXrCotfn2GOP6FufCy88tXItuQ9G3we+YrTuPCPNMqFT76cvVEqyOjnT7uCRkKL/2dsqIKlqa+ZqPDePxE2q/42G4k24xx679n2WmAMb8prRa7bDDtv3Ep7+XFxHYi4fc9eYPvXUDdkaff/7Z2XrtmTJZdnnRYvO762j6xyMl1/38r2V7jOyWQYU6SUJKNpWxGUAUprCR5Mf91R/b/mbIPSDJb8J89eqHyWE9pH5+3U3Z84pWYLL10y/EqP+GMUYj2233YZ1i/Ska5heiveZfr9mzaIE77fqjNdK6zMXKSVZW3FSxugApJx00knqggsuGGr9yiuvrDxdGTqodzH+B+Gwm41rrB8aQANoAA0MaqCX5Np/88zFSknW9j22nmEAUqwtNR6IuAfFTUyICRpAA2hgemugcRJ07ygJKNpWxAVImYZHp9P7RuZBzPqhATSQogY8ZvoVlyglWT26bjoVkAKkJPiz4RQfgHwnEjsaiFsDpunXob8koGhbERcgBUgBUtAAGkADaMBZAx4z/YrvKiVZPbpuOhWQ4ixMdjdx725YH9YHDaABHxowTb8O/Z+dq5RkdXCl7aFACpDCDgoNoAE0gAacNdB2ui7YlwQUbSviAqQ4C9MHoTMHO0E0gAbQQNwa8Jjpn71UKcnq0XXTqYAUIIUdFBpAA2gADThrwDT9OvT/zWVKSVYHV9oeCqQ4C5PdTdy7G9aH9UEDaMCHBtpO1wX7koCibUVcgBQghR0UGkADaAANOGvAY6Z/7gqlJKtH102nAlKchemD0JmDnSAaQANoIG4NmKZfh/6SgKJtRVyAFCCFHRQaQANoAA04a8Bjpn9uvlKS1aPrplMBKc7CZHcT9+6G9WF90AAa8KEB0/Tr0H/llUpJVgdX2h4KpAAp7KDQABpAA2jAWQNtp+uCfUlA0bYiLkCKszB9EDpzsBNEA2gADcStAY+ZfuX3lJKsHl03nQpIAVLYQaEBNIAG0ICzBkzTr0P/57+vlGR1cKXtoUCKszDZ3cS9u2F9WB80gAZ8aKDtdF2wLwko2lbEBUgBUthBoQE0gAbQgLMGPGb6569WSrJ6dN10KiDFWZg+CJ052AmiATSABuLWgGn6degvCSjaVsQFSAFS2EGhATSABtCAswY8ZvoXrlFKsnp03XQqIMVZmOxu4t7dsD6sDxpAAz40YJp+HfqvulYpyergSttDgRQghR0UGkADaAANOGug7XRdsC8JKNpWxAVIcRamD0JnDnaCaAANoIG4NeAx06+6XinJ6tF106mAFCCFHRQaQANoAA04a8A0/Tr0X/0DpSSrgyttDwVSnIXJ7ibu3Q3rw/qgATTgQwNtp+uCfUlA0bYiLkAKkMIOCg2gATSABpw14DHTr/6hUpLVo+umUwEpzsL0QejMwU4QDaABNBC3BkzTr0N/SUDRtiIuQAqQwg4KDaABNIAGnDXgMdOv+ZFSktWj66ZTASnOwmR3E/fuhvVhfdAAGvChAdP069B/zQ1KSVYHV9oeCqQAKeyg0AAaQANowFkDbafrgn1JQNG2Ii5AirMwfRA6c7ATRANoAA3ErQGPmX7tjUpJVo+um04FpAAp7KDQABpAA2jAWQOm6deh/9oFSklWB1faHgqkOAuT3U3cuxvWh/VBA2jAhwbaTtcF+5KAom1FXIAUIIUdFBpAA2gADThrwGOmf/EmpSSrR9dNpwJSnIXpg9CZg50gGkADaCBuDZimX4f+E7coJVkdXGl7KJACpLCDQgNoAA2gAWcNtJ2uC/YlAUXbirgAKc7CZHcT9+6G9WF90AAa8KEBj5l+4lalJKtH102nAlKAFHZQaAANoAE04KwB0/Tr0F8SULStiAuQ4ixMH4TOHOwE0QAaQANxa8Bjpp9cqJRk9ei66VRACpDCDgoNoAE0gAacNWCafh36T96mlGR1cKXtoUCKszDZ3cS9u2F9WB80gAZ8aKDtdF2wLwko2pZDWbJkiTr99NPV2rVrjaxMTk6qM844Q91zzz1DxwEpQAo7KDSABtAAGnDWwNBcK3uxe7tSktXCu4mJCdXpdLI6a9as3vsmpvJxO++8c2/cypUrK4cCKc7C9EHozMFOEA2gATQQtwYqc2w7jd07lZKsFl7moFEcqtv06ciwcumll2ZgUuxTZSu/DqQAKeyg0AAaQANowFkDeVr18CoJKNqWRdFgsWBB/z+pv9FGGw0ASNl0FZAsW7asdhyQ4ixMdjdx725YH9YHDaABHxoop+M2P0t/HzNf16xZUwkVd9xxR2V70bqGFH2aUi66/eGHHy43KyAFSGEHhQbQABpAA84aGMivLTbIQkp+ulF+rfsCc+fOrYURbWNY0ddXr1490EW361/ALZfh1sq9+VwbgYULF9YuWu0gLgSPgL4x9NpRplcERj0Ip9e3WTe81WvGusW51voZWFXrvL344otr13LUGuvrL7744oBp3f6lL31psH2ghQarCAApVmELPkjfGEBK8GUwdmDUg9DYIANaj4BeM9at9TB7mWD58uWVa7l06dLK9qJTWgM33nhjsSl7r9urnsWcpAyEyq4BSLGLW+hRdTdGaL+Yf3gESHbD4xPjVb1mrFuMK2PnU9VaHnPMMSPXWI87+OCDByatsqc7ASkDobJrAFLs4hZ6lL4xqug9tF/MPzwCdQ+04aO4GjICes1Yt5ArIDu3XssNNtigz6humz17dl9b+cORRx45oIONN954oC0fB6TkkXB8BVIcAxhouL6pgJRAwXeYlmTnELxAQ/WasW6Bgt/CtPPnz8/W84ADDlDPPPNMBixV61vXNjY2pp566il12GGHZXa+/vWvV3oJpFSGhUYiQASIABEgAkRgWARuu+22DDCGAWgVpGib+Rj9eu2119ZOA6TUhoYLRIAIEAEiQASIQMgIACkho8/cRIAIEAEiQASIQG0EgJTa0HCBCBABIkAEiAARCBkBICVk9JmbCBABIkAEiAARqI0AkFIbGi4QASJABIgAESACISMApAhEP/8/P+a/rbxixQoBq5hoMwL77rtv32+XtzkXtt0j8Ktf/UrNmDGjb83q/mrAfTYsSEXg85///MCasW5S0V037AApjuu83nrrZTdhbuZd73pX3+e8nde4IqAflIccckjvARqXd3hTjsDHP/5x9Y53vKOvOd8U9DXyIaoInHfeeQP+sG4DIaFhSASAlCHBaXJJ33DPP/98X1fdts022/S18SHOCPDAjHNdmnql1++CCy5o2p1+kURArxuFCDSJAEppEqWaPvr/P1B1s51wwgmV7TVmaA4YASAlYPAFptbrV/V/ThUwjYkWI1D13GxxOkxP4wgAKQ6LV5fgJiYmgBSHuPocWreGPn1gLrsI7LrrrtxndqHzPmrRokXq5ptvVkcffXS2Zj/72c+8+8CE0zMCQIrDug1LcOwUHALrceiwNfToBlNZRIC1swhaoCH5WulX/f9soRCBphEAUppGqqJffuNVXGKHVxWUCNuGrWGE7uLSSxHQ67bnnnsSj2kYgQ984AM8H6fhuoVyGUhxiPzLX/7yypttwYIFle0OUzG0pQgAKS0FtkWzrFmLwfVkWq/h+9//fk+zMc10jgCQ4rB6P/3pTythRB9n6puQEn8ESHjxr1HRQ9arGI3p+16v4+zZs6fvF8BzbxEgkzqGuvzQfOCBBzJAmZycdLTMcB8RKK+fjzmZwzwC3W43u6+22GIL88GMCBaB+fPnD8z9ute9jk3cQFRoqIsAkFIXGYP2PNEVXw2G0zVABIprVXy/dOnSAN4w5agIbLbZZlliK65V/l5fo8QZgXyNyq+LFy+O02G8ii4CQIrgktx7772C1jBFBIgAESACRGDdjgCQsm6vP9+eCBABIkAEiEC0EQBSol0aHCMCRIAIEAEisG5HAEhZt9efb08EiAARIAJEINoIACnRLg2OEQEiQASIABFYtyPw/wE9n2BFblGCLAAAAABJRU5ErkJggg==;" parent="1" vertex="1">
          <mxGeometry x="480" y="200" width="199.73" height="160" as="geometry" />
        </mxCell>
        <mxCell id="8NRp37ZozChNo-UHmFwA-5" value="Epoch=0" style="text;html=1;align=center;verticalAlign=middle;resizable=0;points=[];autosize=1;strokeColor=none;fillColor=none;fontSize=15;fontStyle=1" parent="1" vertex="1">
          <mxGeometry x="50" y="370" width="80" height="30" as="geometry" />
        </mxCell>
        <mxCell id="8NRp37ZozChNo-UHmFwA-6" value="Epoch=20" style="text;html=1;align=center;verticalAlign=middle;resizable=0;points=[];autosize=1;strokeColor=none;fillColor=none;fontSize=15;fontStyle=1" parent="1" vertex="1">
          <mxGeometry x="298.35" y="370" width="90" height="30" as="geometry" />
        </mxCell>
        <mxCell id="8NRp37ZozChNo-UHmFwA-7" value="Epoch=40" style="text;html=1;align=center;verticalAlign=middle;resizable=0;points=[];autosize=1;strokeColor=none;fillColor=none;fontSize=15;fontStyle=1" parent="1" vertex="1">
          <mxGeometry x="544.87" y="370" width="90" height="30" as="geometry" />
        </mxCell>
        <mxCell id="8NRp37ZozChNo-UHmFwA-8" value="Epoch=60" style="text;html=1;align=center;verticalAlign=middle;resizable=0;points=[];autosize=1;strokeColor=none;fillColor=none;fontSize=15;fontStyle=1" parent="1" vertex="1">
          <mxGeometry x="770" y="370" width="90" height="30" as="geometry" />
        </mxCell>
        <mxCell id="5tbWThVG1ohRwNFAAD9K-1" value="" style="shape=image;verticalLabelPosition=bottom;labelBackgroundColor=default;verticalAlign=top;aspect=fixed;imageAspect=0;image=data:image/png,iVBORw0KGgoAAAANSUhEUgAAAlYAAAHgCAYAAABn3iPqAAAgAElEQVR4Ae2dC7glRXXvDzMiwccVvd5EEmTkdQYyRN6IAZGH8tAQQ8CoISAqCFERUS7wJVxR3kFQZAKIj4BKEAIRIqiQiaIgw1MeykPCe4CB4c0wwwzMObvuV016u3fv7t5r71Ora+06v/q+Yu/url5Vtda/e/2qzpnDmKPgATyAB/AAHsADeAAPBPHAWBArGMEDeAAP4AE8gAfwAB5wgBUiwAN4AA/gATyAB/BAIA8AVoEciRk8gAfwAB7AA3gADwBWaAAP4AE8gAfwAB7AA4E8AFgFciRm8AAewAN4AA/gATwQAaxucs5R8QEaGDUNfGls3FHT9cHtq73NUdP1QSzc0XpnxJqPpF/ACsgDdNGASANaL0js2oA1oCpdqPKxjVW0nu9Y85H0C1iRVEVJddR2Vxhv+B1BrRckdgEroE4f6iRAoNHm6LFxp1E1xhrKJmAFWAFWaECkAQDIBgBpxQG40YebmD4OBQ2D2tGAKm/TcgGsSKqipMoOUPgdoFHzqVZCx64NYIuZ9OlbH+pigcixY+NOo8aaj6RfwAqwAqzQgEgDAJANANKKA3CjDzcxfSwBAo02GlDlbVougBVJVZRUR213hfGG32HTSujYtQFsMZM+fetDXSwQOX5s3GnUWPOR9AtYAVaAFRoQaQAAsgFAWnEAbvThJqaPJUCg0UYDqrxNywWwIqmKkio7QOF3gEbNp1oJHbs2gC1m0qdvfaiLBSInjo07jRprPpJ+ASvACrBCAyINAEA2AEgrDsCNPtzE9LEECDTanDQ27jSqxlhD2QSsSKqipDpquyuMN/wOm1ZCx64NYIuZ9OlbH+pCQcOgdjSgytu0XAArwAqwQgMiDQBANgBIKw7AjT7cxPRxLBD5yti406ix5iPpF7AiqYqSKjtA4XeARs2nWgkduzaALWbSp299qJMAgUYbDajyNi0XwAqwAqzQgEgDAJANANKKA3CjDzcxfRwLRE4ZG3caNdZ8JP0CViRVUVIdtd0Vxht+h00roWPXBrDFTPr0rQ91EiDQaKMBVd6m5QJYAVaAFRoQaQAAsgFAWnEAbvThJqaPY4HI18bGnUaNNR9Jv4AVSVWUVNkBCr8DNGo+1Uro2LUBbDGTPn3rQ50ECDTafH1s3GlUjbGGsglYAVaAFRoQaQAAsgFAWnEAbvThJqaPQ0HDoHY0oMrbtFwAK5KqKKmO2u4K4w2/w6aV0LFrA9hiJn361oe6WCAyd2zcadRY85H0C1gBVoAVGhBpAACyAUBacQBu9OEmpo8lQKDRRgOqvE3LBbAiqYqSKjtA4XeARs2nWgkduzaALWbSp299qIsFIqePjTuNGms+kn4BK8AKsEIDIg0AQDYASCsOwI0+3MT0sQQINNpoQJW3abkAViRVUVIdtd0Vxht+h00roWPXBrDFTPr0rQ91sUDkzLFxp1FjzUfSL2AFWAFWaECkAQDIBgBpxQG40YebmD6WAIFGm7PGxp1G1RhrKJuAFUlVlFTZAQq/AzRqPtVK6Ni1AWwxkz5960NdKGgY1I4GVHmblgtgBVgBVmhApAEAyAYAacUBuNGHm5g+jgUi3xobdxo11nwk/QJWJFVRUh213RXGG36HTSuhY9cGsMVM+vStD3USINBoowFV3qblAlgBVoAVGhBpAACyAUBacQBu9OEmpo9jgch3xsadRo01H0m/gBVJVZRU2QEKvwM0aj7VSujYtQFsMZM+fetDnQQINNpoQJW3abkAVoAVYIUGRBoAgGwAkFYcgBt9uInp41ggcvbYuNOoseYj6RewIqmKkuqo7a4w3vA7bFoJHbs2gC1m0qdvfaiTAIFGm++OjTuNqjHWUDYBK8AKsEIDIg0AQDYASCsOwI0+3MT0cShoGNSOBlR5m5YLYEVSFSVVdoDC7wCNmk+1Ejp2bQBbzKRP3/pQFwtEvjc27jRqrPlI+gWsACvACg2INAAA2QAgrTgAN/pwE9PHEiDQaKMBVd6m5QJYkVRFSXXUdlcYb/gdNq2Ejl0bwBYz6dO3PtTFApFzx8adRo01H0m/gBVgBVihAZEGACAbAKQVB+BGH25i+lgCBBptNKDK27RcACuSqiipsgMUfgdo1HyqldCxawPYYiZ9+taHulggct7YuNOoseYj6RewAqwAKzQg0gAAZAOAtOIA3OjDTUwfS4BAo835Y+NOo2qMNZRNwIqkKkqqo7a7wnjD77BpJXTs2gC2mEmfvvWhLhQ0DGpHA6q8TcsFsAKsACs0INIAAGQDgLTiANzow01MH8cCkX8bG3caNdZ8JP0CViRVUVJlByj8DtCo+VQroWPXBrDFTPr0rQ91EiDQaKMBVd6m5QJYAVaAFRoQaQAAsgFAWnEAbvThJqaPY4HIRWPjTqPGmo+kX8CKpCpKqqO2u8J4w++waSV07NoAtphJn771oU4CBBptfjg27jSqxlhD2QSsACvACg2INAAA2QAgrTgAN/pwE9PHoaBhUDsaUOVtWi6AFUlVlFTZAQq/AzRqPtVK6Ni1AWwxkz5960NdLBC5ZGzcadRY85H0C1gBVoAVGhBpAACyAUBacQBu9OEmpo8lQKDRRgOqvE3LBbAiqYqS6qjtrjDe8DtsWgkduzaALWbSp299qIsFIj8aG3caNdZ8JP0CVoAVYIUGRBoAgGwAkFYcgBt9uInpYwkQaLTRgCpv03IBrEiqoqTKDlD4HaBR86lWQseuDWCLmfTpWx/qYoHIZWPjTqPGmo+kX8BKAazGx8ddsY5aEmW81SBVjK0/ng7+GjUAuvvSn/e8A5+6+34nnUfPzc713Puzf/xaWbPsnLQfK+1GDW4WX/5fPb6/++3bOMk8em7sOHHfznu0bTx6yD90XOn+KunHUpvu0Td39JOxcadRm5vB4D0BVoHBaoMN1s+gasGCH7eTbZ6Ip0PyTX2OeXzzeS5d+qs2ROfnUv20AgDScfjX4TP3LWjD0D0/vSp7Q/74U19qn6uylb9KO6+XnfNg9eNPf7nL3o/2+8es6UUfPqTrfKcti98tQUC/sdyzza6Zj1964KE2BC2e94vsXL97q64//5N5Pfc/+MF92/bz++74w1d+DDW5fHnPtbyNxc9schH+owFV3qblAlgFBisPUVtuuWkbqvIkO112NfL5pvrp4/jii9d0xffjH98zg6tU55zPyyIMVI3pprPOz967xev5y7h4vnjs2xXPHf+6TbLbf3LQMT3Xim2l/RTvi3lsEQaqxpT7t3jdn1/+u3uGAh5/78uPPyG6t6r/4ngsHedjbvrzp2PjTqNOZR6rrrqqGxsba9e9995bbO7RRx9t35fb2HfffbvuB6wCgtUBB3y4MsH6hLz55ht3JeQ8YfFZ/WM3S76Z7vGNmfQH7du/5R66+qYeALrquDOzF2CdvetO/W5lm/ztWXe/v/bCY09U2uh3b6zrliCg31i8c5dce0MPBOXx6Xd/8fojn/6/2a3F81XHw/ZTZa+J8/mYm/7UgCpvc9gyc+bMDIzy+5csWdIGpfxc1eehhx6atb377rvbTe64446e+0vB6he/+IU76KCD3IEHHuhOPfVU9/TTT7eNTP3LaCTRYRK6h6eqnam6a8P0xT3N66guhnXXUolVrIQ/TL/+PVX2o7iTV98me4XV2Zx32Fcq2+Tvv7r7/TVfnvyd/Pe5+tlr4noTyT1UH96/Cz5xUDCwyuMqGd+De+yTNb/33X/R07/k/lht8jk2/XnF2LjTqMPOw+8yLV26tOv2nXfeuQu2ui52HOQ7VB2nsq/F822warVabqWVVsrqjBkzXLH6axtttFHR3hDHzSfEphJbXXKtu9bU+Ohnatqri2HdtVT83kRyD9WHfzHNHd+5Z8fK2/elXz++zTGvntPV7hsbfyC7t9/9Ly155aXdrw9r12Ml/GH69TH478136AGbFYuezGI0qE1/U+vll3vs5Xae+dcLM7v5f/Lzo/SZj73pTw2o8jaHKUcffXQlQHk42mGHHWrNFgEqb1w8n4HVPvvsk4HULrvskrfr+Zw7d27WxgOWpMyfP9+V1VSSTNk86pJr3bUyW5ybGgRp+K8uhnXXNMYSw6Y1EKgbj39H/fMGu3aBUd7eX8u/V33e//PrstfccwsWurPf/Xdu+eIlXa+9qvvyRieutnnfPqpsxDo/apBwzzve0wNCK558KgvBIHPJYya9x//LQ18mXljS07/URox2+Tyb/pw3Nu406jDzKAJQp426a8V255xzTvvUWWedlcHa4Ycf3j6XgZXfnVp//fXbJ+u++LaSkg+y+BkjITTVZ11yrbvW1PjoZ2qwVhfDumup+D1Wwh+mX/+Ounifw3rg5muzts9eXxKbj916V9erzt+Tl7L7f3u+/5fAzp3yx9v09FvW3tq5GMl+2D69nx8+8PM9YJPHZxC7Td0zyJg02ubzbPrzZ2PjTqMW2SI/rptfXZu6a0Wbedv8c/HixV1N2mDVdbbmwO9Y3X777TUt+l2aWnKznKS+8IWP1f6O1bbbbsUvrwf8xwJNa2G6x9caCNSNx7+FHr/tdz2Ac/3c72cvqLp7667lb7dim1vO/vfs0tfX3rGnz2Jbq8cayVzLpnf2stvvCgZW9+34Vz226sb+xFdPz+Jd18batVy7TX9qQJW3WfYTMX+uruQgVNam7lpn+7zdN7/5TXfZZZe1f3H9pps827xS2mB12mmn5edqP6U/Cqw2ki5Y+UTvdy7mzNmgC6BarRsrgatpOKC/qenPx3fhwiu64rvLLttNi/haBYKycV151Cvvs+K1/L1UPC859qDmS7FtbvP0Oe/vuVZsa/nYGgjUjSf3ebGNP//CL68RQ5L/W1S+FO30O67qv999Ma/nY2768+crjTuNOsw8cigqu7fuWt6+qs3s2bO7fncrA6vXvOY12e9PLVu2LL+/9NP/GBCwqk/M/m9Y+eR76aX+xf5K2+nwY6J8rql/5vHN53nHHRdl8fYxzs+l+mkZCsrG5l9iK5Ytb8OO/30pX87Zbu/2OX+fL88+8HDXuWXPLe46fvKu+7J2N55xXtf5Kz5/Qnb+sgOPct96xwd7atm4rJ6LmfQH7fuutV/5m2KTy37/RzpffuTRLBZFW/7kSw89XApP/toTJ/9z6TVvx5d7tt6l6/qiY0/Jzvvf5yr2Zfk4G3SE/2hAlbc5TNlrr726AKjThoemNdZYo/NUz/cqsPrNb36T2b3wwlf+kUMGVv5uD0w5OPnPYs2vn3DCKy+Snh7FJ+rBJIWklP917hyopkPSTSFu0jl0xjX/Lr13lNtZBYKqcf304ON63kq3fu+SLjDy9/pSBKueGyt+Z+uBK1/5Jfey9v5c1dgsnrcMBWVjW3jEl3vc7v8qerGtb1QGVg9/8nPZ/cX2ncc9HfzPCf+vBDvbjcL3qrlon//FjPWcRh123B6OisX/4zx//uGHHy5e6jquAqtTTjklu/+3v/1t1r6rh/33378NWEWwWnfddbs6GP4gfbDKk+dtt12Q/C5GPtfp+Dnd4msRBiRjOuENm7mT37L1SEGOZF6h24wCHJSN0f/rwN/N3mLkQKdsLprnhs/ZU7tTA6q8zWFLGRyVnZs1a1bP7lZZOz+O4vkusBp2oIPdN33AajrCBnNOV9+hEzn2xk3BnmZSx/bbooPfYHk6XOtfzlzPadSpjDAHoc7Por0ysPJtVl999TZIVd0PWI3wv1IDYtKFGIuxBYRsgVDoeAA/8eFHMwZFcGjq+KqZ6zmNGmL8N9xww9BmFi5c6O68887S+wErwIofV6IBkQZCJ3Ls2QI1zaSO7fjQVkoADZzUgCpv03IBrEiqoqRqcQeFMTW7YwcI2QKh0PEAfuLDj2YMYoHI1a9a12nUWPOR9AtYAVaAFRoQaSB0IseeLVDTTOrYjg9tEiDQaKMBVd6m5QJYkVRFSZXdoWZ3hyz6GxCyBUKh4wH8xIcfzRjEApFfrbyu06ix5iPpF7ACrAArNCDSQOhEjj1boKaZ1LEdH9okQKDRRgOqvE3LBbAiqYqSqsUdFMbU7C4aIGQLhELHA/iJDz+aMYgFIte8el2nUWPNR9IvYAVYAVZoQKSB0Ikce7ZATTOpYzs+tEmAQKPNtaus4zSqxlhD2QSsSKqipMruULO7Qxb9DQjZAqHQ8QB+4sOPZgxCQcOgdjSgytu0XAArwAqwQgMiDYRO5NizBWqaSR3b8aEtFohct8o6TqPGmo+kX8CKpCpKqhZ3UBhTs7togJAtEAodD+AnPvxoxkACBBptNKDK27RcACvACrBCAyINhE7k2LMFappJHdvxoS0WiFz/B+s4jRprPpJ+ASuSqiipsjvU7O6QRX8DQrZAKHQ8gJ/48KMZAwkQaLTRgCpv03IBrAArwAoNiDQQOpFjzxaoaSZ1bMeHtlggcsOq6ziNGms+kn4BK5KqKKla3EFhTM3uogFCtkAodDyAn/jwoxkDCRBotNGAKm/TcgGsACvACg2INBA6kWPPFqhpJnVsx4e2WCBy42vWdho11nwk/QJWJFVRUmV3qNndIYv+BoRsgVDoeAA/8eFHMwYSINBo8+vXru00qsZYQ9kErAArwAoNiDQQOpFjzxaoaSZ1bMeHtlDQMKgdDajyNi0XwIqkKkqqFndQGFOzu2iAkC0QCh0P4Cc+/GjGIBaI3Py6tZ1GjTUfSb+AFWAFWKEBkQZCJ3Ls2QI1zaSO7fjQJgECjTYaUOVtWi6AFUlVlFTZHWp2d8iivwEhWyAUOh7AT3z40YxBLBC55XVrOY0aaz6SfgErwAqwQgMiDYRO5NizBWqaSR3b8aFNAgQabW59/VpOo2qMNZRNwIqkKkqqFndQGFOzu2iAkC0QCh0P4Cc+/GjGIBQ0DGpHA6q8TcsFsAKsACs0INJA6ESOPVugppnUsR0f2mKByG3/ay2nUWPNR9IvYEVSFSVVdoea3R2y6G9AyBYIhY4H8BMffjRjIAECjTYaUOVtWi6AFWAFWKEBkQZCJ3Ls2QI1zaSO7fjQFgtEfvuGtzmNGms+kn4BK5KqKKla3EFhTM3uogFCtkAodDyAn/jwoxkDCRBotNGAKm/TcgGsACvACg2INBA6kWPPFqhpJnVsx4e2WCCiFftY85H0C1iRVEVJld2hZneHLPobELIFQqHjoZUAsRsfqnwMYpU7Vnub06ix5iPpF7ACrAArNCDSQOhEjj1boAYA2QAgrThIgECjjQZUeZuWC2BFUhUlVYs7KIyp2V00QMgWCIWOh1ZCx64NYIsFIne+cZbTqLHmI+kXsAKsACs0INJA6ESOPVugBgDZACCtOEiAQKONBlR5m5YLYEVSFSVVdoea3R2y6G9AyBYIhY6HVkLHrg1giwUid71pltOoseYj6RewAqwAKzQg0kDoRI49W6AGANkAIK04SIBAo40GVHmblgtgRVIVJVWLOyiMqdldNEDIFgiFjodWQseuDWCLBSJ3/+9ZTqPGmo+kX8AKsAKs0IBIA6ETOfZsgRoAZAOAtOIgAQKNNv/95jWdRtUYayibgBVJVZRU2R1qdnfIor8BIVsgFDoeWgkduzaALRQ0DGpHA6q8TcsFsAKsACs0INJA6ESOPVugBgDZACCtOMQCkXvevKbTqLHmI+kXsCKpipKqxR0UxtTsLhogZAuEQsdDK6Fj1wawSYBAo40GVHmblgtgBVgBVmhApIHQiRx7tkANALIBQFpxiAUi9/6fNZ1GjTUfSb+AFUlVlFTZHWp2d8iivwEhWyAUOh5aCR27NoBNAgQabe77w7c6jaox1lA2ASvACrBCAyINhE7k2LMFagCQDQDSikMoaBjUjgZUeZuWC2BFUhUlVYs7KIyp2V00QMgWCIWOh1ZCx64NYIsFIg/80VudRo01H0m/gBVgBVihAZEGQidy7NkCNQDIBgBpxUECBBptNKDK27RcACuSqiipsjvU7O6QRX8DQrZAKHQ8tBI6dm0AWywQefAtb3UaNdZ8JP0CVoAVYIUGRBoIncixZwvUACAbAKQVBwkQaLTRgCpv03IBrEiqoqRqcQeFMTW7iwYI2QKh0PHQSujYtQFssUDkodXf6jRqrPlI+gWsACvACg2INBA6kWPPFqgBQDYASCsOEiDQaLNg9TWcRtUYayibgBVJVZRU2R1qdnfIor8BIVsgFDoeWgkduzaALRQ0DGpHA6q8TcsFsAKsACs0INLAWWPjjpquDzR+XINNnR+DDePXWCDy8B+v4TRqrPlI+gWsSKqipGpxB4UxNbuLBlSlC1U+tsMka+6xA079YiEBAo02GlDlbVougBVgBVihAZEGACvAql/y5rpd0IoFIo+s8VanUWPNR9IvYEVSFSVVdoea3R2y6G/ACrACnOyCU7/YSIBAo40GVHmblgtgBVgBVmhApAHACrDql7y5bhe8YoHIo2u+1WnUWPOR9AtYkVRFSdXiDgpjanYXDbACrAAnu+DULzYSINBos3DWW51G1RhrKJuAFWAFWKEBkQYAK8CqX/Lmul3wCgUNg9rRgCpv03IBrEiqoqTK7lCzu0MW/Q1YAVaAk11w6hebWCCycK01nUaNNR9Jv4AVYAVYoQGRBgArwKpf8ua6XfCSAIFGGw2o8jYtF8CKpCpKqhZ3UBhTs7togBVgBTjZBad+sYkFIo+ts6bTqLHmI+kXsAKsACs0INIAYAVY9UveXLcLXhIg0GijAVXepuUCWJFURUmV3aFmd4cs+huwAqwAJ7vg1C82sUDk8XVnOY0aaz6SfgErwAqwQgMiDQBWgFW/5M11u+AlAQKNNovGZzmNqjHWUDYBK5KqKKla3EFhTM3uogFWgBXgZBec+sUmFDQMakcDqrxNywWwAqwAKzQg0gBgBVj1S95ctwtesUBk0ey3OY0aaz6SfgErkqooqbI71OzukEV/A1aAFeBkF5z6xUYCBBptNKDK27RcACvACrBCAyINAFaAVb/kzXW74BULRJ7Y4G1Oo8aaj6RfwIqkKkqqFndQGFOzu2iAFWAFONkFp36xkQCBRhsNqPI2LRfACrACrNCASAOAFWDVL3lz3S54xQKRJ+es5TRqrPlI+gWsSKqipMruULO7Qxb9DVgBVoCTXXDqFxsJEGi00YAqb9NyAawAK8AKDYg0AFgBVv2SN9ftglcsEHlqw7WcRo01H0m/gBVJVZRULe6gMKZmd9EAK8AKcLILTv1iIwECjTZPv30tp1E1xhrKJmAFWAFWaECkAcAKsOqXvLluF7xCQcOgdjSgytu0XAArkqooqbI71OzukEV/A1aAFeBkF5z6xSYWiDy98dpOo8aaj6RfwAqwAqzQgEgDgBVg1S95c90ueEmAQKONBlR5m5YLYEVSFSVVizsojKnZXTTACrACnOyCU7/YxAKRZzZZ22nUWPOR9AtYAVaAFRoQaQCwAqz6JW+u2wUvCRBotNGAKm/TcgGsSKqipMruULO7Qxb9DVgBVoCTXXDqF5tYIPLsZus4jRprPpJ+ASvACrBCAyINAFaAVb/kzXW74CUBAo02z22xjtOoGmMNZROwIqmKkqrFHRTG1OwuGmAFWAFOdsGpX2xCQcOgdjSgytu0XAArwAqwQgMiDQBWgFW/5M11u+AVC0Se33Jdp1FjzUfSL2BFUhUlVXaHmt0dsuhvwAqwApzsglO/2EiAQKONBlR5m5YLYAVYAVZoQKQBwAqw6pe8uW4XvGKByPNbres0aqz5SPoFrEiqoqRqcQeFMTW7iwZYAVaAk11w6hcbCRBotFn8znWdRtUYayibgBVgBVihAZEGACvAql/y5rpd8AoFDYPa0YAqb9NyAaxIqqKkyu5Qs7tDFv0NWAFWgJNdcOoXm1gg8sLW6zmNGms+kn4BK8AKsEIDIg0AVoBVv+TNdbvgJQECjTYaUOVtWi6AFUlVlFQt7qAwpmZ30QArwApwsgtO/WITC0SWvGs9p1GnMp+xsTFXrIPYK96bH+c2ACvACrBCAyINAFaAVb/kzXW74JUn/aY/NaDK2xy2zJw5M4Oq/P4lS5a0ISs/V/e55pprZu1XrFjR1eyLX/xi+xiwIqmKkiq7Q83uDln0N2AFWAFOdsGpX2zaWb/hL0u2HXcaddhp+N2lpUuXdt2+8847d8FW18XCgb+/X+nfop+Fga+ToCwmTcaELvtpALACrPolb67bBa+BU3WgG5ZuN+406jDD22233SoBygPTaqutVmu2+CO/qsaAFTtW7FihAZEGACvACnCyC079YlMFAdrnNaDK25w/f35prZtPHRjVXctt5m1OOOGE9o8P/bnPfOYzeZPsE7AiqYqSar/dDK6nv+MFWAFW/ZI31+2CV1fmb/DgxR1mO42aQ07xs25qeduyNnXX8vZ5G/958sknu2XLlrkZM2ZkkPWmN70pb+YAK8AKsEIDIg0AVoAV4GQXnPrFpp31G/6iAVXe5jAlB6Oye+uu5e2r2uy6664ZXD377LNZU8CKpCpKquxIpb8j1S/GgBVg1S95c90ueOVw0PTnsh1nO406zDyqwMjbqruW91XXxl/bb7/9sqaAFWAFWKEBkQYAK8AKcLILTv1ik8NB058aUOVtDlP22muvDKDK7vVgtMYaa5Rdap/rB1Yf+tCHsraAFUlVlFT77WZwPf0dLcAKsOqXvLluF7zadNDwl+XvXd9p1GGn4eFowYIFXbevv/76lcDV2fCqq64qbbfJJptk5ycnJ7PmgBVgBVihAZEGACvACnCyC079YtMJCE1+X77T+k6jDjsH/0vmHq7ycvPNN2fHnef8tVmzZnW1y9sXd62+8Y1v9Nz/e+v5Xeqf6a/s892b00//R3fbbeeLklZ+D5+joY977rnE+fi+/PJ10ya+owpW8z54sPv5Poe5Ycb/vT/6czf/c8e5y977saHuH6bPWPf0S8xWrz/z/77knvrsIW7Y8T32l7u7Z088yS3aa59aG09+6iD3zJFH1bYZdgxN3Kee2is60DEfBf8AACAASURBVIAqb3MqJYejzs+ivSqw8u067/PfV1pppa7bAavAuxUTEze48fHxrH70o7u3vy9aNG/aJOCU4XA6xzdWwh+23/xNN/HSS+6lxUvyQxEg/Wi7vdvtF113a/u7/9I5nis/enjXteJBZ1vr35tI7iH7yH390u23u8kXXsgOVzz0kBh8Jp56Kjfhll39K9datiw7Lo4xbzTx+CL30u/uzg/F/RTtxTpuD7zhLy/tsr7TqA1PY6DuAKvAYJVDVSdcvP/9O2SA1XmO76OxM1WMk4/vxhv/WRckl8W8eF8Kx9bBoDg+/yY8f/YubRD69qpvz16Oy556pn2ueE9+7BuueHFZV7sL1t8lu/+Jm37bdT6/p/PTN3zxiaf7tuu8J/b3WAl/mH6XXXV1FotH37VdG3AWrP3K/z9uwTqz2+eqbC/5j0uz+x//wF/Xtl1+w41Zu0Uf3qurnT+54pFHus5V9WXlfDaRCP/RgCpv03IBrAKC1YoV12cAdcwxB3UlXp9UffK9/fYLe86nkHCnyxzy+Bbne/nlZ0yL+MZO/IP0v+zpV/6eTPGe/GVcPF889u3OXm3zHjCS3P/tP/Dg3b2zVbRv8dgKAEjGkceh2LbqfFm7yaVL+4JRlb2q88V+LB3nY2768+X3beA0atPzGKQ/wCogWB1wwIcrd6Y8WG2++caAVUB/FwFH+3i6x9ciDFSNyb8EH7v6ph4wuvm4M7P3Y9V9+Xnf6PLdDuy535/3P1rM25V9tv7nXwaVXbN8zhIE9BuLj8Oy62/oAaMsuM71nC/a8+0eetu6onZZ29W7f2n9pdt+k3VVtGv5OPdN058aUOVtWi6AVcBEX/cjobpr2kCA/TA/dqyLYd21VPxvGQqKY/Mv3Uu336cHgL4545UfIRTbF4//5XWbZO/tRdff5s5+w2buV5/+cvs9XmxbPPYNJ1es6Om72M7asWUoKI7N+/jxPT/UA0Z5kIrtO48XrLVu1mzBur0/Tnpsl/d32ayyl59/5tjju9p39mPtez7mpj9XvH8Dp1Gbnscg/Q0FVv7/jTN8CZPkLCaruuRad83iXBhTr07rYlh3LRVfWgOBuvH499N5a+9YCjf+Wt29+bWbjz2j6zW35NFFfe976ta7snu++ao/7ds278fKpzUQqBuPd/KjW23TAzUrHl2Y+b/u3sd2+6t2XJ894Z/aNvwvvvvSeW9rYiI7539/q/N8buCFc8/rOt/Zxtr3fMxNf07s9qdOozY9j0H6UwOr6v/zdG/CSiXx1CXXumupzD/1edTFsO5aKn6xAgCScfiX4AUb7FoKN/5aPxtLH3sie49+57Ubt9v6XajM7vq//4X4op2sgcB+8T4Lx9ZAoG483s+PbrtDD9Tk/9Kv7t6FO70vC5P/kW2xnb/gYarzfB7Tpw493D2x3wHZ4fKbb8k+nz/jzK62nfdZ+57Po+lPDajyNi0XNbAq/p2H/DiVJFM2jw03nFP7O1Y++Zbdx7nRgO3pHl8LyV86Bv/SveHIU9tQlN/3H+/62+x9nB+Xff7L/9q0sk3+Mi+7z5/z5ZKtP9LTb1V7S+etgUDdeLyfn/2nr/RATR6funv9NV8e/6s9xPc/sukWzv+5hRUPPuQWzJ7jnvzk32c2Fqw93mOjX9+xrue+afpz4gN/6jRq0/MYpL82WPk/cCWt/CiwHAS+973jMrBavPiqHoDyUHXQQX/Xcx6oKvelRb/k8S0b23SIryUI6DcW/xIs+z0n/6cSfKm7/78+9LnKNtmFivvv/cFllffV9WflWqyEP0y/3tGtFSt6oCaPTz+bvt2TB35q6Pur/uZVv35jXs990/SnBlR5m5YLYBXwl9d9wvUJds4c/y8Wfg8MrdaNlTtZne34/nufWfWFj+/ChVd0xXeXXbabFvG1AgCScdx01GnZe7fYNn8ZF893Hn9r5Tml9/o2eelsn3/31/yPEPPjUfuMmfQH7TuPQ/E+f97/sc/i+eJx3f0TTz8jun9i0aK+7Yr9xjzO59z058Tuc5xGbXoeg/TXBqtBdqEGads7GPvJcypJfd68M7Mk6xOw/yvdRx55QHZ8/PEHdyXjqfTBvfE0lMd3v/0+mMXXQ7SP9XSI76iBQv7uufwv/979aNu98sMe8PEXFj/wcNf5ieUvZe0fvfK67O9ZXXXgUe37L97qb7raer/M+xv/fNfvhFn3X8ykP0zfeUAe/rNN3OO775kf9sCOv7BiwYKu853/ItD/8c/n5p5ee//zZ57lFn3k71z+u1UTTz7ZZW+Y8Td9T3uCDX+Z2GOO06gNT2Og7tpg5X8MeMUVfiXevwBW9Yn91lvPb8OVT7pbb70lUNWxgzfqYLj77jt3xfeSS06dFvG1DgZl4yu+zaraFMHKt3vpucXF2905b9yiB6p827yU2R+Vc00n+hD95X7PP8ts+mtFsMrb5ffln/n5zs/8Wv754n/OGzmo8vOJVTSgytu0XNpg9YY3vMFttNFGorE++OCDonbljeqhZNSTLuMnvqlqYFQAgXGOl8JfP790wgTfu/8gaAr+KM/H+mcnPrih06j6Ix++hzZYDW9i0DtJvKkmXuaVtrb7JWauDwc0VvyWAjwwh2ogHDRTh2qvAVXepuUCWCX0IyrAJm2wiR1fKwDAOHQADiiphpIUfBMLRCY+tKHTqLHmI+kXsAKspsXvB8WGkhT6B2h0gMaKX1OAB+ZQDYcSINBoowFV3qblAlgBVoAVGhBpwAoAMA4dwANKqqEkBd/EApGJj/yZ06ix5iPpF7AiqYqSago7Lsxhaj8qBWh0gMaKX1OAB+ZQDYcSINBoM7HX251G1RhrKJuAFWAFWKEBkQasAADj0AE8oKQaSlLwTShoGNSOBlR5m5YLYEVSFSVVdnumttuTgv8AGh2gseLXFOCBOVTDYSwQmdj77U6jxpqPpF/ACrACrNCASANWAIBx6AAeUFINJSn4RgIEGm00oMrbtFwAK5KqKKmmsOPCHKa26wbQ6ACNFb+mAA/MoRoOY4HIxEc3cho11nwk/QJWgBVghQZEGrACAIxDB/CAkmooScE3EiDQaKMBVd6m5QJYkVRFSZXdnqnt9qTgP4BGB2is+DUFeGAO1XAYC0QmPraR06ix5iPpF7ACrAArNCDSgBUAYBw6gAeUVENJCr6RAIFGGw2o8jYtF8CKpCpKqinsuDCHqe26ATQ6QGPFrynAA3OohsNYIDLxiY2dRo01H0m/gBVgBVihAZEGrAAA49ABPKCkGkpS8I0ECDTaTOy3sdOoGmMNZROwIqmKkiq7PVPb7UnBfwCNDtBY8WsK8MAcquEwFDQMakcDqrxNywWwAqwAKzQg0oAVAGAcOoAHlFRDSQq+iQUiE5/cxGnUWPOR9AtYkVRFSTWFHRfmMLVdN4BGB2is+DUFeGAO1XAoAQKNNhpQ5W1aLoAVYAVYoQGRBqwAAOPQATygpBpKUvBNLBCZOHBTp1FjzUfSL2BFUhUlVXZ7prbbk4L/ABodoLHi1xTggTlUw6EECDTaaECVt2m5AFaAFWCFBkQasAIAjEMH8ICSaihJwTexQGTiU5s6jRprPpJ+ASuSqiipprDjwhymtusG0OgAjRW/pgAPzKEaDiVAoNFm4jObOY2qMdZQNgErwAqwQgMiDVgBAMahA3hASTWUpOCbUNAwqB0NqPI2LRfAiqQqSqrs9kxttycF/wE0OkBjxa8pwANzqIbDWCAy+dnNnEaNNR9Jv4AVYAVYoQGRBqwAAOPQATygpBpKUvCNBAg02mhAlbdpuQBWJFVRUk1hx4U5TG3XDaDRARorfk0BHphDNRzGApHJz23uNGqs+Uj6BawAK8AKDYg0YAUAGIcO4AEl1VCSgm8kQKDRRgOqvE3LBbAiqYqSKrs9U9vtScF/AI0O0FjxawrwwByq4TAWiEx+fnOnUWPNR9IvYAVYAVZoQKQBKwDAOHQADyiphpIUfCMBAo02k4du4TSqxlhD2QSsSKqipJrCjgtzmNquG0CjAzRW/JoCPDCHajgMBQ2D2tGAKm/TcgGsACvACg2INGAFABiHDuABJdVQkoJvYoHI5GFbOo0aaz6SfgErkqooqbLbM7XdnhT8B9DoAI0Vv6YAD8yhGg4lQKDRRgOqvE3LBbACrAArNCDSgBUAYBw6gAeUVENJCr6JBSKTR2zpNGqs+Uj6BaxIqqKkmsKOC3OY2q4bQKMDNFb8mgI8MIdqOJQAgUYbDajyNi0XwAqwAqzQgEgDVgCAcegAHlBSDSUp+CYWiEz+wzucRo01H0m/gBVJVZRU2e2Z2m5PCv4DaHSAxopfU4AH5lANhxIg0GgzeeQ7nEbVGGsom4AVYAVYoQGRBqwAAOPQATygpBpKUvBNKGgY1I4GVHmblgtgRVIVJdUUdlyYw9R23QAaHaCx4tcU4IE5VMNhLBCZ/OJWTqPGmo+kX8AKsAKs0IBIA1YAgHHoAB5QUg0lKfhGAgQabTSgytu0XAArkqooqbLbM7XdnhT8B9DoAI0Vv6YAD8yhGg5jgcjkl7ZyGjXWfCT9AlaAFWCFBkQasAIAjEMH8ICSaihJwTcSINBoM3n0O51G1RhrKJuAFUlVlFRT2HFhDlPbdQNodIDGil9TgAfmUA2HoaBhUDsaUOVtWi6AFWAFWKEBkQasAADj0AE8oKQaSlLwTSwQmTz2nU6jxpqPpF/AiqQqSqrs9kxttycF/wE0OkBjxa8pwANzqIZDCRBotNGAKm/TcgGsACvACg2INGAFABiHDuABJdVQkoJvYoHI5PF/7jRqrPlI+gWsSKqipJrCjgtzmNquG0CjAzRW/JoCPDCHajiUAIFGGw2o8jYtF8AKsAKs0IBIA1YAgHHoAB5QUg0lKfgmFohMnri106ix5iPpF7AiqYqSKrs9U9vtScF/AI0O0FjxawrwwByq4VACBBptJk/a2mlUjbGGsglYAVaAFRoQacAKADAOHcADSqqhJAXfhIKGQe1oQJW3abkAViRVUVJNYceFOUxt1w2g0QEaK35NAR6YQzUcxgKRyZO3cRo11nwk/QJWgBVghQZEGrACAIxDB/CAkmooScE3EiDQaKMBVd6m5QJYkVRFSZXdnqnt9uA//IcG0EBcDcRBkcmvbuM0apzZyHoFrAArwAoNoAE0gAaS14AMCkK30oAqb9NyAaySf5hYJcZdJeJ//I8G0IAFDcRBkcmvvctp1DizkfUKWAFWrFTRABpAA2ggeQ3IoCB0q8lT3+U0auhxhrQHWCX/MFlYKTEGVuxoAA2ggbgaCIkOclsaUOVtWi6AFWDFShUNoAE0gAaS10AcFJn8+rZOo8aZjaxXwCr5h4lVYtxVIv7H/2gADVjQgAwKQrfSgCpv03IBrAArVqpoAA2gATSQvAbioMjkads6jRpnNrJeAavkHyYLKyXGwIodDaABNBBXAzIoCN1qcu67nUYNPc6Q9gArwIqVKhpAA2gADSSvgZDoILelAVXepuUCWCX/MLFKjLtKxP/4Hw2gAQsaiIMik6e/22nUOLOR9QpYAVasVNEAGkADaCB5DcigIHQrDajyNi0XwCr5h8nCSokxsGJHA2gADcTVQBwUmTxjO6dR48xG1itgBVixUkUDaAANoIHkNSCDgtCtNKDK27RcAKvkHyZWiXFXifgf/6MBNGBBA3FQZPLM7ZxGjTMbWa+AFWDFShUNoAE0gAaS14AMCkK30oAqb9NyAaySf5gsrJQYAyt2NIAG0EBcDcRBkclvbO80apzZyHoFrAArVqpoAA2gATSQvAZkUBC61eRZ2zuNGnqcIe0BVsk/TKwS464S8T/+RwNowIIGQqKD3JYGVHmblgtgBVixUkUDaAANoIHkNRAHRSa/uYPTqHFmI+sVsEr+YbKwUmIMrNjRABpAA3E1IIOC0K00oMrbtFwAK8CKlSoaQANoAA0kr4E4KDL57R2cRo0zG1mvgFXyDxOrxLirRPyP/9EAGrCgARkUhG6lAVXe5lTKggUL3NjYWFZf//rXD21q2bJlbTudRgArwIqVKhpAA2gADSSvgc7U39z3ye/s6DTqsDOYmJhow9COO+7Y/r5w4cKBTeZw5j87S/dR5xW17xbInTGwgkQDaAANoIHppAG1pF5rePJfdnQatbbTmosegk488cSuFjkgdZ3sc+DvmTFjRhvMOpsDVsmvUqbTi4O5kijRABpAA+Ua6Ez9zX3XgCpvc5hy9dVXZyBUvDf/kd6xxx5bvFR6/IMf/KBtpwzKACvAih8BoAE0gAbQQPIaKGUE9ZOTZ7/HadRhBj5r1qw2EBXvLwOkYpv82LedO3dudlh2H2CV/MPE6q189YZf8AsaQAPTSQM5FjT7qQFV3ub8+fNLa93syiAob193LW/jP6+55pouOCu7D7ACrFipogE0gAbQQPIa6MSD5r63znmP06g50BQ/62aWty1rU3ctb5//4nt+7D/L7gOskn+YptOKjLmyA4EG0AAaKNdAJw40910DqrzNYUoZBOV26q51tllllVXyw+yz7D7ACrBipYoG0AAaQAPJa6CLBxo7aH33vU6jDjMBD0UehMpKGSB1tjvnnHOye6+99lrXWfP78nP+nvIeOq0F/85qonw1gV/wCxpAA2gADWhpIHgyFxlsfe+9TqOKOi80uvPOO0vBatGiRdn5M888s3DH7w/PPvvsrE0OUlWf/g7AKvlVitZDil0SABpAA2hgdDTwe0ho8psGVHmbwxYPRPvss0/X7TkkdZ6s+xeEne3K7gWsACt+BIAG0AAaQAPJa6ATB5r73jp3J6dRh53BxRdfnO087brrrs7/MvrKK6+cHR9yyCFdJgGr5B8IVoWjsyokVsQKDaABixro4obGDjSgytucavmTP/mTDKh22223KZk66qijnK+dhR0roIyVKhpAA2gADSSvgc7U39z31r/u5DRqczMYvCfAKvmHyeLKiTGxokcDaAANNKuBwQEhxB0aUOVtWi6AFWDFShUNoAE0gAaS10AcFGmdt7PTqHFmI+sVsEr+YWJV2OyqEH/jbzSABixqQAYFoVu1frCz06ihxxnSHmAFWLFSRQNoAA2ggeQ1EBId5LY0oMrbtFwAq+QfJosrJ8bEih4NoAE00KwG4qBI6/xdnEaNMxtZr4AVYMVKFQ2gATSABpLXgAwKQrfSgCpv03IBrJJ/mFgVNrsqxN/4Gw2gAYsaiIMirQt2cRo1zmxkvQJWgBUrVTSABtAAGkheAzIoCN1KA6q8TcsFsEr+YbK4cmJMrOjRABpAA81qIA6KtC7c1WnUOLOR9QpYAVasVNEAGkADaCB5DcigIHSr1kW7Oo0aepwh7QFWyT9MrAqbXRXib/yNBtCARQ2ERAe5LQ2o8jYtF8AKsGKligbQABpAA8lrIA6KtP79fU6jxpmNrFfASulh2mabd7jx8fGs3nbb+by0lPwcY2W8cOEV7dhusslGxDah2Ho9EV+Luy3hxjR94yuDgtCtNKDK27RcAKvASWFi4oZ20v3oR3dvf1+0aB4JOLCvY0AV8Q2X4GLEr1+f++33wfYzu+eeu7a/97uP66Ohizy+c+Zs4KZffOOgSOuH73MaNc5sZL0CVoGTfb5L1fmivfnm87IXdOc5vo/Gi7gYJx/fs876Yhckl8W8eB/HoxFv4jsacRrmefrNb/4tew9P3+dXBgWhW7Uufr/TqKHHGdIeYBUQrG688dzswb3hhu93JV7/EvAv7DPOOLLn/DAvCO6J8/LP41v0//Ll84lvwOeo6N+mjvvFt6lx0I/O8121AHr72zfMnt/0/R4SHeS2NKDK27RcAKuACWH77f+88gGteqjTf5h1XpIx/EZ804llmX76xfeRR37Kwijg+7IsBprnqt7Bl112WvbeTj++cVCkdcn7nUaNMxtZr11gde6557qDDz7YLV68uPLutdZaq/Ka7EK6L+eqB9e/LOquab5MsB1Ob3UxrLtGDMLFQNOXdTH010466QuAVYJg5TU1PeIry9ChW2lAlbdpubTBasaMGa6zvvGNbywdt28ztTIaL9lhXuD9Xsz++jB2uceGZoivjThoPQ/94nvEEfvz/CYMVunHd2qZe9i7Wz/6C6dRhx1PE/dlYOV3oTwwXXzxxVmfe+65ZxuyioOQgtXY2Jgrq1ovRQt2+72YAavRTszEd7Tj1+8d0S++X/3qYYBVwmCVfnyL2byZYw2o8jYtlwysPCxtttlmXeO8/PLLS+FKClbz5893ZbXfy22Ur2+44Rx+x2qEX7z9tEd80warfvG95ZYfAFYj/HxXgbP/x0b+Wvrx7UrxjR20Lt3NadTGJjBER22wqrp3pZVWcr7mRQpWefvez3Rfzvfe+x/ZA3r55Wf0vID9g3veeSf2nO+XzLluRy95fIsxeeqpn2VxJ752YlWMkeS4X3wlNmhjVwNVYDV79uzKBXFa8ezNxk2caV32l06jNjH2YfvoC1becCdcAVb1L46yh/fCC0+eJg9uvW9SeEn5+B522Ce6ALks5inMdTrOgfim+ww//vi87D08fZ/fYTFhavdpQJW3abm0wWrfffetHacHKg9YgFX9i2fevDOzh9e/oP1f6T7yyAOy4+OPP7grGU/HpJXCnPP4+r/g7OPr/4KzjzXxrX8uRiX2OST7+D7//C/b8R2V8TPOeh3m8Z037xvTML61KV7tYuvHH3AaVW3AAQxnYLX99tt3/bivyi5gVf/Qdr7UDj98vyzhbr75xu6ll64Fqkb4dzM645p/f9e7tsrie8ABHya2icXWx5j4yt91+TMxSp85YE2v57cqs+ue14Aqb9NyycCq2QGm/cCO0suFsaJFNIAG0MB00UCzmT7vrfWT3Z1Gze1b/ASsElxt86KcLi9K5onW0QAakGogDoJoQJW3abkAVoAVP8pCA2gADaCB5DUQB0Val/+106hxZiPrFbBK/mGSrmZox8oXDaABNJCuBmRQELpV64o9nEYNPc6Q9gArwIqVKhpAA2gADSSvgZDoILelAVXepuUCWCX/MLECTXcFSmyJLRpAA1INxEGR1n9+0GnUOLOR9QpYAVasVNEAGkADaCB5DcigIHQrDajyNi0XwCr5h0m6mqEdK180gAbQQLoaiIMirXl/4zRqnNnIegWsACtWqmgADaABNJC8BmRQELqVBlR5m5YLYJX8w8QKNN0VKLEltmgADUg1EAdFWj/7kNOocWYj6xWwAqxYqaIBNIAG0EDyGpBBQehWrZ9/xGnU0OMMaQ+wSv5hkq5maMfKFw2gATSQrgZCooPclgZUeZuWC2AFWLFSRQNoAA2ggeQ1EAdFWlf+rdOocWYj6xWwSv5hYgWa7gqU2BJbNIAGpBqQQUHoVhpQ5W1aLoAVYMVKFQ2gATSABpLXQBwUaf1iL6dR48xG1itglfzDJF3N0I6VLxpAA2ggXQ3IoCB0Kw2o8jYtF8AKsGKligbQABpAA8lrIA6KtH65t9OocWYj6xWwSv5hYgWa7gqU2BJbNIAGpBqQQUHoVq2r93EaNfQ4Q9oDrAArVqpoAA2gATSQvAZCooPclgZUeZuWC2CV/MMkXc3QjpUvGkADaCBdDcRBkdavPuo0apzZyHoFrAArVqpoAA2gATSQvAZkUBC6lQZUeZuWC2CV/MPECjTdFSixJbZoAA1INRAHRVrXfMxp1DizkfUKWAFWrFTRABpAA2ggeQ3IoCB0Kw2o8jYtF8Aq+YdJupqhHStfNIAG0EC6GoiDIq35H3caNc5sZL0CVoAVK1U0gAbQABpIXgMyKAjdSgOqvE3LBbBK/mFiBZruCpTYEls0gAakGoiDIq3rPuE0apzZyHoFrAArVqpoAA2gATSQvAZkUBC6Vev6/Z1GDT3OkPYAq+QfJulqhnasfNEAGkAD6WogJDrIbWlAlbdpuQBWgBUrVTSABtAAGkheA3FQpHXDJ51GjTMbWa+AVfIPEyvQdFegxJbYogE0INWADApCt9KAKm/TcgGsACtWqmgADaABNJC8BuKgSOvGA5xGjTMbWa+AVfIPk3Q1QztWvmgADaCBdDUgg4LQrVo3Heg0auhxhrQHWAFWrFTRABpAA2ggeQ2ERAe5LQ2o8jYtF8Aq+YeJFWi6K1BiS2zRABqQaiAOirRu/pTTqHFmI+sVsAKsWKmiATSABtBA8hqQQUHoVhpQ5W1aLoBV8g+TdDVDO1a+aAANoIF0NRAHRVq3fNpp1DizkfUKWAFWrFTRABpAA2ggeQ3IoCB0Kw2o8jYtF8Aq+YeJFWi6K1BiS2zRABqQaiAOirRu/YzTqHFmI+sVsAKsWKmiATSABtBA8hqQQUHoVq3bPus0auhxhrQHWCX/MElXM7Rj5YsG0AAaSFcDIdFBbksDqrxNywWwAqxYqaIBNIAG0EDyGoiDIq3fHuw0apzZyHoFrJJ/mFiBprsCJbbEFg2gAakGZFAQupUGVHmblgtgBVixUkUDaAANoIHkNRAHRVq3f85p1DizkfUKWCX/MElXM7Rj5YsG0AAaSFcDMigI3UoDqrxNywWwAqxYqaIBNIAG0EDyGoiDIq07Pu80apzZyHoFrJJ/mFiBprsCJbbEFg2gAakGZFAQulXrzi84jRp6nCHtAVaAFStVNIAG0AAaSF4DIdFBbksDqrxNywWwSv5hkq5maMfKFw2gATSQrgbioEjrrkOdRo0zG1mvgBVgxUoVDaABNIAGkteADApCt9KAKm/TcgGskn+YWIGmuwIltsQWDaABqQbioEjr7sOcRo0zG1mvgBVgxUoVDaABNIAGkteADApCt2rdfbjTqKHHGdIeYJX8wyRdzdCOlS8aQANoIF0NhEQHuS0NqPI2LRfACrBipYoG0AAaQAPJayAOirT++winUePMRtYrYJX8w8QKNN0VKLEltmgADUg1IIOC0K00oMrbtFwAK8CKlSoaQANoAA0kr4E4KNK65x+cRo0zG1mvgFXyD5N0COTxPQAAFWRJREFUNUM7Vr5oAA2ggXQ1IIOC0K00oMrbtFwAK8CKlSoaQANoAA0kr4E4KNK65x+dRo0zG1mvgFXyDxMr0HRXoMSW2KIBNCDVgAwKQrdq3Xuk06ihxxnSHmAFWLFSRQNoAA2ggeQ1EBId5LY0oMrbtFwAq+QfJulqhnasfNEAGkAD6WogDoq07vui06hTmc2qq67qxsbG2nXvvfcWmTvppJPa93TeX7wZsAKsWKmiATSABtBA8hoopv9mjjWgytsctsycOTODo/z+JUuWtGEpP1f16WHqwgsv7LqcA9b999/fPg9YJf8wsQJNdwVKbIktGkADUg20836jX1r3HeU06rCT8CC0dOnSrtt33nnnLtjquig4yOEqbwpYAVasVNEAGkADaCB5DeRpv9lPDajyNocpRx99dCVAeTjaYYcdhjHbs+MFWCX/MElXM7Rj5YsG0AAaSFcDQzHDlG9q3f8lp1GHGVhxZ6nTRt21znbF75deemkGVp/85CfblwArwIqVKhpAA2gADSSvgXbeb/RL6/6jnUbNQaj4WTe5vG1Zm7prZe3zc2X3AVbJP0ysQNNdgRJbYosG0IBUAzkKNPupAVXe5vz580tr3ezKIChvX3ctb1P8XH311Ut/tAhYAVasVNEAGkADaCB5DRSxoJnj1gPHOI06zOjr4KnuWllf4+PjGVStWLGi5zJglfzDJF3N0I6VLxpAA2ggXQ305P9GTmhAlbc5TNlrr71Kd5i8LQ9Wa6yxhshsDmEvvvhiaXvACrBipYoG0AAaQAPJa6CUAdRPth481mnUYQfuoahY5s6dm4HVww8/XLzUc/zOd74za7t48eKea/mJ3h7yK2qfrIjSXRERW2KLBtAAGrCpAbWkXmtYA6q8zWFLvtvUeX/ZuVmzZvXsbu20007ZuWeffbbz9p7vgFXyqxRecjZfcsSFuKABNNCkBnryfyMnWg8e5zTqVAafg1TnZ9FeGVh1ti/7ntsArAArfgSABtAAGkADyWsgT/vNfmpAlbcZotxwww0hzPTYAKySf5iaXBHRFytwNIAG0IBNDfTk/0ZOtB46wWnURgY/ZCeAFWDFShUNoAE0gAaS18CQlDDF21oLTnQadYrDUr0dsEr+YWL1aHP1SFyICxpAA01qQJUlKo1rQJW3abkAVoAVK1U0gAbQABpIXgNxUKS14J+cRo0zG1mvgFXyD1OTKyL6YgWOBtAAGrCpARkUhG6lAVXepuUCWAFWrFTRABpAA2ggeQ3EQZHWw19xGjXObGS9AlbJP0ysHm2uHokLcUEDaKBJDcigIHQrDajyNi0XwAqwYqWKBtAAGkADyWsgEoo8crJzGjXSdCTdAlbJP0xNrojoixU4GkADaMCmBiRIoNDmkVOc06gKQw1lErACrFipogE0gAbQQPIaCIUNA9rRgCpv03ABrJJ/mFg92lw9EhfiggbQQJMaiEQij37NOY0aaTqSbgErwIqVKhpAA2gADSSvAQkSKLTRgCpv03ABrJJ/mJpcEdEXK3A0gAbQgE0NRCKRR091TqNGmo6kW8AKsGKligbQABpAA8lrQIIECm00oMrbNFwAq+QfJlaPNlePxIW4oAE00KQGIpHIwq87p1EjTUfSLWAFWLFSRQNoAA2ggeQ1IEEChTaPzXVOoyoMNZRJwCr5h6nJFRF9sQJHA2gADdjUQChsGNCOBlR5m4YLYAVYsVJFA2gADaCB5DUQiUQe+2fnNGqk6Ui6BaySf5hYPdpcPRIX4oIG0ECTGpAggUIbDajyNg0XwAqwYqWKBtAAGkADyWsgEok8frpzGjXSdCTdAlbJP0xNrojoixU4GkADaMCmBiRIoNBm0ZnOaVSFoYYyCVgBVqxU0QAaQANoIHkNhMKGAe1oQJW3abgAVsk/TKweba4eiQtxQQNooEkNRCKRRd9wTqNGmo6kW8AKsGKligbQABpAA8lrQIIECm00oMrbNFwAq+QfpiZXRPTFChwNoAE0YFMDkUjkibOc06iRpiPpFrACrFipogE0gAbQQPIakCCBQhsNqPI2DRfAKvmHidWjzdUjcSEuaAANNKmBSCTyxLec06iRpiPpFrBSAKvx8XFXrLxAmnyB6PZVjK0/Jr66Pm/Kv8uWze95dolvGrH1GiqL7047bTtNnl8JEii0efLbzmlUhaGGMglYBQarDTZYP3sxL1jw4/bDmifippID/eglgjy+uY+XLv1VOxHn5/jU87+2b4vPah7fc889vv08a48B+3r6md7xDYUNA9rRgCpv03ABrAKDlX9wt9xy056XsD/PC1PvhdmUb30cX3zxmq5Yfvzje2Zw1dQY6EdPR8RXz7exdXvkkQdkz2nx+fUxnx7v50gk8tR3nNOokaYj6RawCghWBxzw4coH1D+4m2++cVdCjv2iof/BkgjxHcxfo6avfvEdtfkw3m69VgHUKaccWvneTsuHEiRQaKMBVd6m4QJYBQSrqgfXP5x119J6eLtfZinNrS6GdddS8kHKc6mLob920UUnszAK+L5sWktV8X388XnZ+zn9+EYikafOdk6jRpqOpNsusFpvvfXc7Nmzu+579atf7VZaaSU3Y8YMd/TRR3ddG+6AxNv0C4X+wmiu6sXs/Vt3Df+H8b+2H+ti6K99+cufBqwSBKv8+U0/vsNl7CnfpQFV3qbhkoHVtddem4GTB6gcovyYPUz54/e85z1u5syZ2bE/Jynz5893ZVX75RjTfr8Xs78ec3z0PbUET3yn5j/r+usX32OOOYjnN2GwSj++ksyt0Obpc5zTqApDDWUyA6tOmPKG77//fvf6178+A6nOjm655Zaec53XO7+PjY25smr95TqV8fV7MQNWo52Yie9ox6/fs90vvpdeehpglSBYPfzwT7Md5/Tj25mhG/z+9Hed06gNTmHQrjKw8rtQ9957b9e9/tzcuXO7zvkDD2FTK+m+nL/whY9lD2jZC9y/tLfdditezCP8Yia+6T67/pntF9+y55pzo6OJKnD2PwL019KP5dQy99B3a0CVt2m4tMGqOMaqH/kBVvUvEv+AzpmzQddD2mrdOE0e3HrfpPDi8vFduPCKrvjusst2xHeEgblTl8Q33Wf4tNOOyJ7T4vPrY+5rpw7S/F7M8g0dP/N95zRqQ8Mfpps2WK1YsaLrfsBquBeM/xtW/iHt3FaePg/ucD4bpZdYHt98zHfccVEW7+nxYk4/vsVnNY/vtdf6FXL68099jtM7vl0pvrkDDajyNg2X9u9Y7b///qJhVgGX6OasUfovp/yvc+cPMUk3rZh3xjX/nnpCmk7zy2Pa+Tmd5p/6XDvj6r8feujHpwk0y7N00JbPnuucRg06yLDG2mAlBSZpu+phppVk615Ct912wTR5YKdPTDvjTXzTjvvvfvdDnt9Ed+mef/6XbvrFtzorq17RgCpv03DJwKrZ8aX9Mu5MvHwn1mgADaABNGBDA81m+nZvz/6rcxq13YG9L4BVoisyGw8yL1TigAbQABqwoYFIAPLcD5zTqJGmI+kWsAKs+HEHGkADaAANJK8BCRIotNGAKm/TcAGskn+YWC3aWC0SB+KABtBATA1EIpHnzndOo0aajqRbwAqwYqWKBtAAGkADyWtAggQKbTSgyts0XACr5B+mmCsk+maFjgbQABqwoYFIJPL8Bc5p1EjTkXQLWAFWrFTRABpAA2ggeQ1IkEChzfMXOqdRFYYayiRglfzDxGrRxmqROBAHNIAGYmogFDYMaEcDqrxNwwWwAqxYqaIBNIAG0EDyGohEIosvck6jRpqOpFvAKvmHKeYKib5ZoaMBNIAGbGhAggQKbTSgyts0XAArwIqVKhpAA2gADSSvgUgk8sIPndOokaYj6RawSv5hYrVoY7VIHIgDGkADMTUgQQKFNhpQ5W0aLoAVYMVKFQ2gATSABpLXQCQSeeFi5zRqpOlIugWskn+YYq6Q6JsVOhpAA2jAhgYkSKDQRgOqvE3DBbACrFipogE0gAbQQPIaiEQiSy5xTqNGmo6kW8Aq+YeJ1aKN1SJxIA5oAA3E1IAECRTaLPmRcxpVYaihTAJWgBUrVTSABtAAGkheA6GwYUA7GlDlbRougFXyD1PMFRJ9s0JHA2gADdjQQCQSWXqpcxo10nQk3QJWgBUrVTSABtAAGkheAxIkUGijAVXepuECWCX/MLFatLFaJA7EAQ2ggZgaiEQiS3/snEaNNB1Jt4AVYMVKFQ2gATSABpLXgAQJFNpoQJW3abgAVsk/TDFXSPTNCh0NoAE0YEMDkUjkxZ84p1EjTUfSLWAFWLFSRQNoAA2ggeQ1IEEChTbLfuqcRlUYaiiTgFXyDxOrRRurReJAHNAAGoipgVDYMKAdDajyNg0XwAqwYqWKBtAAGkADyWsgEoksu8I5jRppOpJuAavkH6aYKyT6ZoWOBtAAGrChAQkSKLTRgCpv03ABrAArVqpoAA2gATSQvAYikcjy/3ROo0aajqRbwCr5h4nVoo3VInEgDmgADcTUgAQJFNpoQJW3abgAVoAVK1U0gAbQABpIXgORSGT5POc0aqTpSLoFrJJ/mGKukOibFToaQANowIYGJEig0OalnzmnURWGGsokYAVYsVJFA2gADaCB5DUQChsGtKMBVd6m4QJYJf8wsVq0sVokDsQBDaCBmBqIRCIv/dw5jRppOpJuASvAipUqGkADaAANJK8BCRIotNGAKm/TcAGskn+YYq6Q6JsVOhpAA2jAhgYikcjLv3BOo0aajqRbwAqwYqWKBtAAGkADyWtAggQKbTSgyts0XACr5B8mVos2VovEgTigATQQUwORSOTlXzqnUSNNR9ItYAVYsVJFA2gADaCB5DUgQQKFNiuuck6jKgw1lEnAKvmHKeYKib5ZoaMBNIAGbGggFDYMaEcDqrxNwwWwAqxYqaIBNIAG0EDyGohEIhO/ck6jRpqOpFvAKvmHidWijdUicSAOaAANxNSABAkU2mhAlbdpuABWgBUrVTSABtAAGkheA5FIZOIa5zRqpOlIugWskn+YYq6Q6JsVOhpAA2jAhgYkSKDQRgOqvE3DBbACrFipogE0gAbQQPIaiEQik/Od06iRpiPpFrBK/mFitWhjtUgciAMaQAMxNSBBAoU2k9c5p1EVhhrKJGAFWLFSRQNoAA2ggeQ1EAobBrSjAVXe5hTLHXfc4Y455hj38ssvD2Xp3HPPdaecckrpvYBV8g9TzBUSfbNCRwNoAA3Y0EApA+ifbF3vnEYdcuQTExNubGwsqzvuuGP7+8KFC0UWN9lkk+yeVVdd1W266abt+ztvBqwAK1aqaAANoAE0kLwGOlN/g981oMrbHLJ4qHrta1/bdXcOWl0nSw4mJyczkFq0aFH76uOPP56dmz17dvscYJX8w8Rq0cZqkTgQBzSABmJqoJ33m/3SutE5jTrELFasWJFBUPHWiy66KDv/61//unip63jmzJml9xfBDLACrFipogE0gAbQQPIa6GKEBg+0YHLwKcyaNasUjLylIhyVWa9qc8IJJ2T3e3DLbJXdrHtOy8nYZTWIBtAAGkADaKBcA7qZvdq6Tjzmz5/vymr1OOrhqQqaOu1VtbnvvvsysLrggguy5hF2rDqHmfZ3HwRKmh7wDzTxTTO2flbEN93Y+plVJci0Z53W7PIYFj/rZpm3LWtTdy1vX9Um/xHjcccdlzUl8+ceU/j0QaCk6QESb5pxzWdFfHNPpPlZlSDTnC2zyj1QF/e6a/3uf+yxxzJY/9a3vpU1JfPnHlP4BKwUnGrEJInXSCCUhkF8lRxrxKwkiRoZKsMI6IFVVlml8icNEk1Utfnud7+b2fWA5QtgFTBoRVOAVdEj6RyTeNOJZdlMiG+ZV9I5V5Ug05khMynzwGmnnVYLVnvssUfZbe1zVbp585vf3GUXsGq7LPwXwCq8T61YJPFaiYTOOIivjl+tWK1KkFbGxzj0POBjv88++3R1UKaHsn9BeOONN3YBVG6keD9glXtG4dM7m5KmB0i8acY1nxXxzT2R5mcxEaY5S2ZV5oGLL744g6Ndd93V+b/CvvLKK2fHhxxySFfzMrDyDXLtXHHFFe6pp55qH3feTObv9Abf8QAewAN4AA/ggaQ9sNlmm7WByIPS97///Z75VoGVb5jDVf5ZvBmwKnqEYzyAB/AAHsADeAAPDOkBwGpIx3EbHsADeAAP4AE8gAeKHgCsih7hGA/gATyAB/AAHsADQ3oAsBrScdyGB/AAHsADeAAP4IGiBwCrokc4xgN4AA/gATyAB/DAkB4ArIZ0nOS2Y445xl1//fWSprTBA3jAiAduuukmd/zxx7u77rrLyIgYRkgPXHPNNc6/my+77LKQZrGFB9oeAKzargj3Jf8nmJ2f4axjKaYHOmPqv1955ZUxh0PfAT1QjG1+vO+++wbsBVOxPJDHs/h5xBFHxBoS/SbqAcAqcGDzh7bT7Jw5c7K/e9F5ju+j6YHdd9+9PXAfa8Cq7Y6R/7L11lv3zOHEE0/k2e3xSjonJicns/jm//PcdGbGTGJ6ALAK6P0VK1ZkD+lnP/vZHqs+Cf/617/uOc+J0fUAYDW6sRtk5D7O/kdHlDQ94OP7mte8Js3JMasoHgCsArp9t912q1zd+od3tdVWC9gbpmJ7ALCKHYFm+vdx9r9zRUnTAz6+/Lg3zdjGmhVgFdDz/gH1tazUXStrzzn7HvAx5UeB9uM0lRFutdVWlc/0VOxybzwPXHvtte7qq692Bx54YBbb9dZbL95g6DlJD5RTQJJT1Z9UHTzVXdMfGT1oeACw0vCqHZt33HFHlnh9nCnpeCB/F+ef/vesKHggpAd4YwT0Zv6glpmsu1bWnnP2PeBjyo6V/TgNO0Ke2WE9Nzr3bbHFFhk8P/PMM6MzaEZq3gOAVcAQ1b2I664FHAKmGvQAYNWgsxvuiue1YYdH7I5YR3R+ol0DVgEDe9ppp2Wrn+eee67Hqn9499hjj57znBhdDwBWoxu7qpEvX76cH/9VOSfR84BVooGNOC3AKrDz/UO68sord1lttVrZy7rrJAcj7wHAauRD2DMBkmyPS5I/QcyTD3HjEwSsArv8TW96UwZR5513XtsyD27bFUl9AaySCmd7p8r/q7Fivfnmm9Oa7DSczYYbbtgz61e96lVZ3JcuXdpzjRN4YFgPAFbDeq7mvuuuu679kvbJd/XVV69pzaVR8kAOyWWfDzzwwChNhbEWPFAW0/zcrFmzCq05HDUPbLrppl3vZR/bt7zlLaM2DcY7Ah4ArEYgSAwRD+ABPIAH8AAeGA0PAFajESdGiQfwAB7AA3gAD4yAB/4/dZHt+I3oRgAAAAAASUVORK5CYII=;" parent="1" vertex="1">
          <mxGeometry x="710" y="200" width="199.34" height="160" as="geometry" />
        </mxCell>
      </root>
    </mxGraphModel>
  </diagram>
</mxfile>
